<?xml version="1.0" encoding="UTF-8"?>
<svg id="Layer_1" data-name="Layer 1" xmlns="http://www.w3.org/2000/svg" viewBox="0 0 271 361">
  <defs>
    <style>
      .cls-1 {
        fill: #303b8d;
        stroke-width: 0px;
      }
    </style>
  </defs>
  <path class="cls-1" d="m11.56,11.98c38.47,27.4,79.6,48.53,127.59,50.12,11.45.48,23.07.01,34.81-1.26,5.88-.57,11.76-1.44,17.8-2.02,4.6-.41,9.39-.91,14.08-.12,5.45.69,10.41,4.96,10.56,10.73.08,9.16-7.31,17.93-12.17,25-7.16,9.63-14.47,19-21.23,28.68-12.91,18.68-25.33,39.24-30.09,61.45-1.86,8.76-2.07,17.69-1.08,26.52,4,28.74,21.7,53.63,40.66,75.05,0,0,1.42,1.65,1.42,1.65l1.51,1.57c3.38,3.5,8.6,9.28,12.2,12.56,12.54,12.32,26.05,24.12,39.6,35.34,4.6,3.75,9.21,7.52,13.76,11.4l-.77,1.17c-10.49-5.69-20.93-11.71-30.87-18.34-15.1-9.77-29.54-21.11-42.79-33.33-3.09-2.78-6.76-6.72-9.71-9.68-2.06-2.03-7.18-7.99-9.17-10.3-1.72-1.92-4.12-5.19-5.7-7.29-1.01-1.44-3.27-4.18-4.11-5.62-9.23-13.74-16.65-28.72-19.36-45.45-6.98-38.91,13.54-73.6,38.46-101.42,7.8-9.02,16.04-17.64,23.54-26.84,3.61-4.5,7.23-9.19,9.73-14.34,1.22-2.5,2.07-5.17,1.92-7.53-1.09-9.15-13.21-6.23-19.55-5.18-5.72,1.18-11.51,2.59-17.36,3.96-17.55,4.2-36.4,6.8-54.63,4.57-30.52-3.35-59.45-16.88-83.5-35.51-9.54-7.43-18.44-15.58-26.47-24.49,0,0,.93-1.05.93-1.05h0Z"/>
</svg>