<?xml version="1.0" encoding="UTF-8"?>
<svg id="Layer_1" data-name="Layer 1" xmlns="http://www.w3.org/2000/svg" viewBox="0 0 1265 3032.5">
  <defs>
    <style>
      .cls-1 {
        stroke-width: 17px;
      }

      .cls-1, .cls-2, .cls-3 {
        fill: none;
        stroke: #e6b45d;
        stroke-miterlimit: 10;
      }

      .cls-2 {
        stroke-width: 5px;
      }

      .cls-3 {
        stroke-width: 11px;
      }
    </style>
  </defs>
  <path class="cls-4" d="m1130.07-139.59C684.01,637.76-343.75,1107.66,246.19,1090.26c694.38-20.48-361.49,690.29,374.17,881.14,404.42,104.92-192.88,1059.91-57.14,1196.09"/>
  <path class="cls-5" d="m1179.64-77.94C709.11,737.83-204.96,1051.17,385.1,1045.26c670.28-7.18-421.58,722.58,374.17,881.14,344.17,68.58-267.09,1109.2-153.14,1222.4"/>
  <path class="cls-6" d="m1229.2-16.29C734.22,837.89-62.98,938.8,524.01,1000.26c548.6,57.44-484.07,767.17,374.17,881.14,282.85,37.56-341.29,1158.49-249.15,1248.71"/>
</svg>