<?xml version="1.0" encoding="utf-8"?>
<!-- Generator: Adobe Illustrator 27.9.4, SVG Export Plug-In . SVG Version: 9.03 Build 54784)  -->
<svg version="1.1" id="Layer_1" xmlns="http://www.w3.org/2000/svg" xmlns:xlink="http://www.w3.org/1999/xlink" x="0px" y="0px"
	 viewBox="0 0 581.9 260.6" style="enable-background:new 0 0 581.9 260.6;" xml:space="preserve">
<g>
	<g>
		<path d="M4.6,39.9V5.1h3.2v15.6h18.4V5.1h3.3v34.9h-3.3V23.7H7.9v16.2H4.6z"/>
		<path d="M47.5,40.3c-1.8,0-3.5-0.3-4.9-1c-1.4-0.6-2.6-1.5-3.5-2.6c-0.9-1.1-1.6-2.5-2.1-4c-0.5-1.5-0.7-3.2-0.7-4.9
			c0-1.8,0.2-3.4,0.7-5c0.5-1.5,1.2-2.9,2.1-4.1c0.9-1.2,2.1-2.1,3.4-2.8c1.4-0.7,2.9-1,4.7-1c1.9,0,3.5,0.3,4.8,1
			c1.4,0.6,2.5,1.5,3.3,2.6c0.9,1.1,1.5,2.3,1.9,3.7c0.4,1.3,0.6,2.7,0.6,4.1c0,0.3,0,0.6,0,1c0,0.4-0.1,0.8-0.1,1.1H39.4
			c0.1,2.8,0.8,5,2.3,6.6c1.5,1.6,3.4,2.4,5.9,2.4c1.6,0,2.9-0.2,4-0.7c1.1-0.5,2.2-1.3,3.2-2.4l2.2,2c-0.9,1-1.9,1.7-2.9,2.3
			c-1,0.6-2,1-3.1,1.3C50,40.1,48.8,40.3,47.5,40.3z M54.6,26.8c0.1-0.3,0.1-0.5,0.1-0.8s0-0.6,0-0.8c0-0.9-0.1-1.8-0.4-2.6
			c-0.3-0.9-0.7-1.7-1.3-2.5c-0.6-0.7-1.4-1.3-2.4-1.8c-1-0.5-2.1-0.7-3.5-0.7c-1.5,0-2.9,0.4-4,1.1c-1.1,0.8-2,1.8-2.7,3.1
			c-0.6,1.3-1,2.7-1.1,4.3h16.3L54.6,26.8z"/>
		<path d="M62.5,50.5c-0.5,0-1.1-0.1-1.7-0.2c-0.6-0.1-1.2-0.3-1.9-0.4v-2.8c0.5,0.2,1,0.3,1.4,0.4c0.4,0.1,0.8,0.1,1,0.1
			c0.9,0,1.5-0.3,2-0.8c0.4-0.5,0.6-1.4,0.6-2.6V15.3h3.1v29.6c0,1.9-0.4,3.3-1.2,4.2C65.1,50,64,50.5,62.5,50.5z M63.8,10.5V5.1
			h3.8v5.4H63.8z"/>
		<path d="M72.1,47.7l5.4-14.9h3.5l-6.7,14.9H72.1z"/>
		<path d="M99.4,39.9V5.1h3.2v15.6H121V5.1h3.3v34.9H121V23.7h-18.4v16.2H99.4z"/>
		<path d="M142.3,40.3c-1.8,0-3.5-0.3-4.9-1c-1.4-0.6-2.6-1.5-3.5-2.6c-0.9-1.1-1.6-2.5-2.1-4c-0.5-1.5-0.7-3.2-0.7-4.9
			c0-1.8,0.2-3.4,0.7-5c0.5-1.5,1.2-2.9,2.1-4.1c0.9-1.2,2.1-2.1,3.4-2.8c1.4-0.7,2.9-1,4.7-1c1.9,0,3.5,0.3,4.8,1
			c1.4,0.6,2.5,1.5,3.3,2.6c0.9,1.1,1.5,2.3,1.9,3.7c0.4,1.3,0.6,2.7,0.6,4.1c0,0.3,0,0.6,0,1c0,0.4-0.1,0.8-0.1,1.1h-18.2
			c0.1,2.8,0.8,5,2.3,6.6c1.5,1.6,3.4,2.4,5.9,2.4c1.6,0,2.9-0.2,4-0.7c1.1-0.5,2.2-1.3,3.2-2.4l2.2,2c-0.9,1-1.9,1.7-2.9,2.3
			c-1,0.6-2,1-3.1,1.3C144.8,40.1,143.6,40.3,142.3,40.3z M149.4,26.8c0.1-0.3,0.1-0.5,0.1-0.8s0-0.6,0-0.8c0-0.9-0.1-1.8-0.4-2.6
			c-0.3-0.9-0.7-1.7-1.3-2.5c-0.6-0.7-1.4-1.3-2.4-1.8c-1-0.5-2.1-0.7-3.5-0.7c-1.5,0-2.9,0.4-4,1.1c-1.1,0.8-2,1.8-2.7,3.1
			c-0.6,1.3-1,2.7-1.1,4.3h16.3L149.4,26.8z"/>
		<path d="M163.3,40.3c-1.4,0-2.5-0.4-3.4-1.3c-0.8-0.9-1.2-2.3-1.2-4.2V5.1h3.2v29.1c0,1.1,0.2,2,0.6,2.5c0.4,0.5,1,0.8,1.8,0.8
			c0.3,0,0.7,0,1.1-0.1c0.4-0.1,0.8-0.2,1.2-0.3v2.7c-0.6,0.2-1.1,0.4-1.7,0.5C164.3,40.2,163.8,40.3,163.3,40.3z"/>
		<path d="M175.9,40.3c-1.4,0-2.5-0.4-3.4-1.3c-0.8-0.9-1.2-2.3-1.2-4.2V5.1h3.2v29.1c0,1.1,0.2,2,0.6,2.5c0.4,0.5,1,0.8,1.8,0.8
			c0.3,0,0.7,0,1.1-0.1c0.4-0.1,0.8-0.2,1.2-0.3v2.7c-0.6,0.2-1.1,0.4-1.7,0.5C176.9,40.2,176.4,40.3,175.9,40.3z"/>
		<path d="M194.6,40.3c-2.3,0-4.3-0.5-6.1-1.6c-1.8-1.1-3.2-2.6-4.2-4.5c-1-1.9-1.5-4.1-1.5-6.6c0-2.5,0.5-4.6,1.5-6.5
			c1-1.9,2.4-3.4,4.1-4.5c1.8-1.1,3.8-1.6,6.1-1.6s4.3,0.5,6.1,1.6c1.8,1.1,3.1,2.6,4.1,4.5c1,1.9,1.5,4.1,1.5,6.5
			c0,2.5-0.5,4.7-1.5,6.6c-1,1.9-2.4,3.4-4.2,4.5C198.9,39.7,196.9,40.3,194.6,40.3z M194.6,37.5c1.7,0,3.2-0.4,4.5-1.2
			c1.3-0.8,2.3-2,3-3.5c0.7-1.5,1-3.2,1-5.2c0-2-0.3-3.7-1-5.2c-0.7-1.5-1.7-2.6-3-3.4c-1.3-0.8-2.8-1.2-4.5-1.2
			c-1.7,0-3.2,0.4-4.5,1.2c-1.3,0.8-2.3,2-3,3.5s-1.1,3.2-1.1,5.2c0,2,0.4,3.7,1.1,5.2c0.7,1.5,1.7,2.6,3,3.5
			C191.4,37,192.9,37.5,194.6,37.5z"/>
		<path d="M210.1,47.7l5.4-14.9h3.5l-6.7,14.9H210.1z"/>
		<path d="M237.4,39.9V5.1H248c3.2,0,5.8,0.8,7.6,2.3c1.8,1.5,2.8,3.6,2.8,6.3c0,1.8-0.4,3.4-1.2,4.7c-0.8,1.3-2,2.3-3.5,3
			c2.1,0.5,3.7,1.5,4.8,3c1.1,1.5,1.7,3.5,1.7,5.9c0,3.1-1,5.5-2.9,7.1c-1.9,1.7-4.7,2.5-8.2,2.5H237.4z M240.7,20.4h8.2
			c1.9,0,3.4-0.6,4.5-1.7c1.1-1.1,1.7-2.6,1.7-4.5s-0.6-3.4-1.9-4.5c-1.2-1.1-3-1.6-5.2-1.6h-7.3V20.4z M240.7,36.9h8.1
			c5.4,0,8-2.3,8-6.8c0-2.1-0.6-3.8-1.8-5c-1.2-1.2-2.9-1.8-5-1.8h-9.4V36.9z"/>
		<path d="M277.1,40.3c-2.3,0-4.3-0.5-6.1-1.6c-1.8-1.1-3.2-2.6-4.2-4.5c-1-1.9-1.5-4.1-1.5-6.6c0-2.5,0.5-4.6,1.5-6.5
			c1-1.9,2.4-3.4,4.1-4.5c1.8-1.1,3.8-1.6,6.1-1.6s4.3,0.5,6.1,1.6c1.8,1.1,3.1,2.6,4.1,4.5c1,1.9,1.5,4.1,1.5,6.5
			c0,2.5-0.5,4.7-1.5,6.6c-1,1.9-2.4,3.4-4.2,4.5C281.4,39.7,279.4,40.3,277.1,40.3z M277.1,37.5c1.7,0,3.2-0.4,4.5-1.2
			c1.3-0.8,2.3-2,3-3.5c0.7-1.5,1-3.2,1-5.2c0-2-0.3-3.7-1-5.2c-0.7-1.5-1.7-2.6-3-3.4c-1.3-0.8-2.8-1.2-4.5-1.2
			c-1.7,0-3.2,0.4-4.5,1.2c-1.3,0.8-2.3,2-3,3.5s-1.1,3.2-1.1,5.2c0,2,0.4,3.7,1.1,5.2c0.7,1.5,1.7,2.6,3,3.5
			C273.9,37,275.4,37.5,277.1,37.5z"/>
		<path d="M295.1,39.9V15.3h3.2V21l-0.8,0.2c0.4-1.4,1.1-2.5,1.9-3.5c0.8-0.9,1.8-1.6,2.9-2.1c1.1-0.5,2.4-0.8,3.7-0.8
			c2.7,0,4.8,0.8,6.2,2.4c1.5,1.6,2.2,4,2.2,7.2v15.4h-3.1V25.7c0-2.7-0.5-4.8-1.5-6c-1-1.3-2.5-2-4.6-2c-1.4,0-2.6,0.3-3.7,1
			c-1.1,0.7-1.9,1.8-2.4,3.2c-0.6,1.5-0.9,3.4-0.9,5.8v12.2H295.1z"/>
		<path d="M320.2,50.5c-0.5,0-1.1-0.1-1.7-0.2c-0.6-0.1-1.2-0.3-1.9-0.4v-2.8c0.5,0.2,1,0.3,1.4,0.4c0.4,0.1,0.8,0.1,1,0.1
			c0.9,0,1.5-0.3,2-0.8c0.4-0.5,0.6-1.4,0.6-2.6V15.3h3.2v29.6c0,1.9-0.4,3.3-1.2,4.2C322.7,50,321.6,50.5,320.2,50.5z M321.4,10.5
			V5.1h3.8v5.4H321.4z"/>
		<path d="M342.9,40.3c-2.3,0-4.3-0.5-6.1-1.6c-1.8-1.1-3.2-2.6-4.2-4.5c-1-1.9-1.5-4.1-1.5-6.6c0-2.5,0.5-4.6,1.5-6.5
			s2.4-3.4,4.2-4.5c1.8-1.1,3.8-1.6,6.1-1.6s4.3,0.5,6.1,1.6c1.8,1.1,3.1,2.6,4.1,4.5s1.5,4.1,1.5,6.5c0,2.5-0.5,4.7-1.5,6.6
			c-1,1.9-2.4,3.4-4.2,4.5C347.2,39.7,345.1,40.3,342.9,40.3z M342.9,37.5c1.7,0,3.2-0.4,4.5-1.2c1.3-0.8,2.3-2,3-3.5
			c0.7-1.5,1-3.2,1-5.2c0-2-0.3-3.7-1-5.2c-0.7-1.5-1.7-2.6-3-3.4c-1.3-0.8-2.8-1.2-4.5-1.2c-1.7,0-3.2,0.4-4.5,1.2
			c-1.3,0.8-2.3,2-3,3.5s-1.1,3.2-1.1,5.2c0,2,0.4,3.7,1.1,5.2c0.7,1.5,1.7,2.6,3,3.5C339.6,37,341.1,37.5,342.9,37.5z"/>
		<path d="M369,40.3c-1.7,0-3.2-0.4-4.5-1.1c-1.3-0.7-2.2-1.8-2.9-3.2c-0.7-1.4-1-3.2-1-5.4V15.3h3.2v14.2c0,1.8,0.2,3.3,0.7,4.5
			c0.5,1.2,1.2,2.1,2.1,2.6c0.9,0.6,2,0.9,3.4,0.9c1.5,0,2.7-0.4,3.8-1.1c1-0.7,1.8-1.8,2.4-3.2c0.5-1.4,0.8-3.3,0.8-5.5V15.3h3.2
			v24.6h-3.2v-5.8h0.8c-0.6,2-1.7,3.6-3.2,4.6C372.8,39.7,371.1,40.3,369,40.3z"/>
		<path d="M387.4,39.9V15.3h3.2v6.5l-0.8,0.1c0.3-1.5,0.8-2.8,1.8-3.8s1.9-1.8,3.2-2.4c1.2-0.6,2.3-0.8,3.4-0.8c0.7,0,1.3,0.1,2,0.2
			c0.7,0.1,1.3,0.4,2,0.7l-1.6,2.8c-0.4-0.2-0.9-0.4-1.4-0.5c-0.5-0.1-1.1-0.2-1.6-0.2c-0.9,0-1.7,0.2-2.6,0.5
			c-0.9,0.3-1.7,0.9-2.4,1.6c-0.7,0.7-1.2,1.7-1.6,2.9c-0.1,0.5-0.2,1.1-0.3,1.9c-0.1,0.7-0.1,1.8-0.1,3.1v12H387.4z"/>
		<path d="M404.5,47.7l5.4-14.9h3.5l-6.7,14.9H404.5z"/>
		<path d="M455,39.2c-3.3,0.6-7.5,0.9-11.2,0.9c-3.1,0-5.8-0.2-7.3-0.5c-4.5-1-6.4-3.8-6.4-7.1c0-2.8,1.6-5.7,3.8-7.9l2.1,1.1
			c-2.1,2.1-3.3,4.5-3.3,6.6c0,2.1,1.4,4.1,4.6,4.8c1.3,0.3,3.5,0.4,6,0.4c3.6,0,7.9-0.3,11.4-1L455,39.2z M438.4,20.6
			c1.9-1.5,4.6-3.3,6.5-4.3v0c-2.8,0.3-9.3,0.5-13.4,0.4c0-0.7,0-1.9,0-2.6c0.8,0,15,0.3,21.1-1.2l0.3,2.7
			c-4.4,0.5-10.1,4.4-12.4,6.3L438.4,20.6z"/>
		<path d="M462.8,40.5c2.7-7.8,7.3-20.9,8.7-24.9c0.7-2,1.7-4.8,1.9-5.7l4,1c-0.2,0.5-0.7,0.7-1.4,0.7c-2,5.1-5.2,13.7-6.5,17.4h0
			c2.2-2.7,5.5-4.6,8.1-4.6c3.2,0,4.8,2.2,4.7,5.6l-0.1,4.4c0,2.8,1.4,4.3,3.8,4.3c3.3,0,6.4-3.8,8.1-10.2c0.7,0.5,1.6,1,2.4,1.4
			c-2,7.1-5.7,11.5-10.6,11.5c-3.9,0-6.5-2.4-6.5-6.1c0-0.7,0.1-4.1,0.1-4.9c0-2.3-1-3.6-2.6-3.6c-4.3,0-8.5,6.2-9.5,8.6
			c-0.5,1.3-1.3,3.7-2,5.8L462.8,40.5z"/>
		<path d="M507.5,11.4c-0.1,0.4-0.5,0.6-1.2,0.6c-1.3,6-2,12.7-2,16.7c0,2.8,0.1,5.6,0.5,7.3c0.7-1.8,2.3-5.7,2.8-7l1.6,1.6
			c-1.5,3.7-2.6,5.8-3.1,7.5c-0.2,0.6-0.3,1.2-0.3,1.7c0,0.4,0.1,0.8,0.2,1.1l-2.6,0.5c-1.2-3.5-1.6-7.8-1.6-12.7
			c0-4.8,0.8-11.6,2-18L507.5,11.4z M531.1,38.5c-1.3,0.1-2.7,0.1-4.1,0.1c-2.6,0-5.1-0.1-6.9-0.4c-4.6-0.7-6.7-3.2-6.7-6.1
			c0-2.6,1.4-4.7,3.5-7.1l2.4,1c-1.8,1.9-3.1,3.7-3.1,5.8c0,4.3,6.3,4.3,10.1,4.3c1.6,0,3.2-0.1,4.8-0.2L531.1,38.5z M513.9,15.9
			c4.8-0.1,11.2-0.6,16.1-1.4l0.2,2.6c-4.6,0.8-12,1.3-16.3,1.4L513.9,15.9z"/>
		<path d="M539.7,41c-1.2-2.7-1.6-8.4-1.6-13.4c0-5.1,0.8-11.4,2.1-17.7l3.7,0.7c-0.1,0.4-0.5,0.6-1,0.7c-1.4,5.2-2.2,12-2.2,16.4
			c0,2.9,0,5.8,0.3,7.2c0.8-2.3,2.4-5.9,3.2-7.7l1.7,1.6c-1.3,2.6-3.9,8.4-3.9,10.1c0,0.5,0.1,1.1,0.4,1.8L539.7,41z M549.3,18.6
			c3.2,0,6.4,0.1,9.6-0.2c-0.2-3.3-0.3-6.1-0.3-8.9l3.8,0.1c0,0.4-0.4,0.7-1,0.8c0,2.4,0.1,4.9,0.2,7.8c3-0.3,5.4-0.8,7.4-1.5
			l0.3,2.7c-1.8,0.6-4.4,1.1-7.7,1.4c0.2,4.2,0.3,8.7,0.5,11.1c2.9,1.2,5.8,3,7.8,4.8l-1.5,2.4c-1.6-1.6-3.8-3.2-6.2-4.3
			c0,3.2-0.6,6.8-6.3,6.8c-4.4,0-7.4-2.1-7.4-5.5c0-3.9,3.9-5.6,7.4-5.6c1.2,0,2.4,0.2,3.6,0.5c-0.1-2.4-0.3-6.4-0.5-10.1
			c-1.2,0.1-2.8,0.1-3.9,0.1h-5.8L549.3,18.6z M559.7,33.6c-1.2-0.4-2.5-0.7-3.8-0.7c-2.3,0-5.1,0.8-5.1,3.2c0,2.1,2.3,3.2,5.1,3.2
			c2.8,0,3.8-1.4,3.8-4.4L559.7,33.6z"/>
		<path d="M573.7,47.7l5.4-14.9h3.5l-6.7,14.9H573.7z"/>
		<path d="M19,81.4c-3.1,0-5.9-0.7-8.3-2.2c-2.4-1.5-4.2-3.6-5.6-6.3c-1.3-2.7-2-5.9-2-9.5c0-3.6,0.7-6.7,2-9.4
			c1.3-2.7,3.2-4.8,5.6-6.2c2.4-1.5,5.1-2.2,8.3-2.2c3.4,0,6.4,0.8,8.9,2.5c2.5,1.7,4.3,4,5.4,7l-3.1,1.1c-0.9-2.3-2.3-4.2-4.2-5.5
			c-1.9-1.3-4.2-2-7-2c-2.5,0-4.7,0.6-6.6,1.8C10.5,51.7,9,53.4,8,55.6c-1,2.2-1.6,4.8-1.6,7.8c0,3,0.5,5.7,1.6,7.9
			c1,2.2,2.5,3.9,4.4,5.1c1.9,1.2,4.1,1.8,6.6,1.8c2.8,0,5.1-0.7,7-2c1.9-1.4,3.3-3.2,4.2-5.5l3.1,1.1c-1.1,3-2.9,5.3-5.4,7
			C25.3,80.6,22.4,81.4,19,81.4z"/>
		<path d="M38.7,51.5v-5.4h3.8v5.4H38.7z M39,80.9V56.3h3.1v24.6H39z"/>
		<path d="M57.3,81.3c-1.8,0-3.4-0.3-4.8-1s-2.4-1.5-3.1-2.6c-0.7-1.1-1.1-2.4-1.1-3.9c0-1.3,0.3-2.5,0.8-3.4c0.5-0.9,1.2-1.6,2-2.2
			c0.9-0.6,1.9-1,3.1-1.2c1.1-0.2,2.4-0.3,3.7-0.3h8.2V69h-7.8c-1,0-1.9,0.1-2.8,0.2c-0.9,0.2-1.7,0.5-2.3,1
			c-0.5,0.4-0.9,0.8-1.2,1.4c-0.3,0.6-0.4,1.3-0.4,2.1c0,1.5,0.5,2.7,1.6,3.6c1.1,0.9,2.6,1.3,4.4,1.3c1.5,0,2.9-0.4,4.1-1.1
			c1.2-0.7,2.2-1.7,3-3c0.8-1.3,1.1-2.7,1.1-4.2l1.4,1.5c-0.2,1.9-0.7,3.5-1.6,4.9c-0.9,1.4-2.1,2.5-3.5,3.3
			C60.6,80.9,59.1,81.3,57.3,81.3z M66,80.9l-0.2-5.6v-9.8c0-2.3-0.6-4-1.8-5.1c-1.2-1.2-2.9-1.8-5.1-1.8c-1.5,0-2.8,0.3-4,0.9
			c-1.2,0.6-2.4,1.6-3.5,3l-2.3-2c1.3-1.6,2.8-2.8,4.5-3.5s3.5-1.1,5.6-1.1c3.1,0,5.5,0.8,7.2,2.5c1.7,1.6,2.5,4,2.5,7.2v15.4H66z"
			/>
		<path d="M86.7,81.3c-2.3,0-4.3-0.5-6.1-1.6c-1.8-1.1-3.2-2.6-4.2-4.5c-1-1.9-1.5-4.1-1.5-6.6c0-2.5,0.5-4.6,1.5-6.5
			c1-1.9,2.4-3.4,4.1-4.5c1.8-1.1,3.8-1.6,6.1-1.6s4.3,0.5,6.1,1.6c1.8,1.1,3.1,2.6,4.1,4.5c1,1.9,1.5,4.1,1.5,6.5
			c0,2.5-0.5,4.7-1.5,6.6c-1,1.9-2.4,3.4-4.2,4.5C91,80.7,89,81.3,86.7,81.3z M86.7,78.5c1.7,0,3.2-0.4,4.5-1.2c1.3-0.8,2.3-2,3-3.5
			c0.7-1.5,1-3.2,1-5.2c0-2-0.3-3.7-1-5.2c-0.7-1.5-1.7-2.6-3-3.4c-1.3-0.8-2.8-1.2-4.5-1.2c-1.7,0-3.2,0.4-4.5,1.2
			c-1.3,0.8-2.3,2-3,3.5s-1.1,3.2-1.1,5.2c0,2,0.4,3.7,1.1,5.2c0.7,1.5,1.7,2.6,3,3.5C83.5,78,85,78.5,86.7,78.5z"/>
		<path d="M102.2,88.7l5.4-14.9h3.5l-6.7,14.9H102.2z"/>
		<path d="M143.7,81.4c-3.1,0-5.9-0.7-8.2-2.2c-2.4-1.5-4.2-3.6-5.5-6.3s-2-5.9-2-9.5c0-3.6,0.7-6.7,2-9.4c1.3-2.7,3.2-4.8,5.6-6.2
			c2.4-1.5,5.1-2.2,8.3-2.2c3.4,0,6.4,0.8,8.9,2.5c2.5,1.7,4.3,4,5.4,7l-3.1,1.1c-0.9-2.3-2.3-4.2-4.2-5.5c-1.9-1.3-4.2-2-7-2
			c-2.5,0-4.7,0.6-6.6,1.8c-1.9,1.2-3.3,2.9-4.4,5.1c-1,2.2-1.6,4.8-1.6,7.8c0,3,0.5,5.7,1.6,7.9c1,2.2,2.5,3.9,4.4,5.1
			c1.9,1.2,4.1,1.8,6.6,1.8c1.3,0,2.6-0.2,3.9-0.5c1.3-0.4,2.5-1,3.7-1.8c1.1-0.9,2-2.1,2.7-3.6c0.7-1.5,1-3.4,1-5.8v-2.9l0.8,2.2
			h-9.7v-3h11.9v18h-2.9l-0.5-7.4l0.5,0.4c-0.6,1.8-1.4,3.2-2.6,4.3c-1.2,1.1-2.6,1.9-4.1,2.4C147,81.1,145.4,81.4,143.7,81.4z"/>
		<path d="M173.4,81.3c-1.7,0-3.2-0.4-4.5-1.1c-1.3-0.7-2.2-1.8-2.9-3.2c-0.7-1.4-1-3.2-1-5.4V56.3h3.2v14.2c0,1.8,0.2,3.3,0.7,4.5
			c0.5,1.2,1.1,2.1,2.1,2.6c0.9,0.6,2,0.9,3.4,0.9c1.5,0,2.7-0.4,3.8-1.1c1-0.7,1.8-1.8,2.4-3.2c0.5-1.4,0.8-3.3,0.8-5.5V56.3h3.2
			v24.6h-3.2v-5.8h0.8c-0.6,2-1.7,3.6-3.2,4.6C177.2,80.7,175.4,81.3,173.4,81.3z"/>
		<path d="M188.4,58.8v-2.5h14.5v2.5H188.4z M199.4,81.3c-1.1,0-2.1-0.2-2.9-0.6c-0.8-0.4-1.5-1.1-1.9-2c-0.5-0.9-0.7-2.1-0.7-3.5
			V49.2l3.2-1.8v27c0,1.3,0.2,2.4,0.7,3.1c0.4,0.8,1.2,1.1,2.4,1.1c0.4,0,0.8,0,1.3-0.1c0.5-0.1,1-0.2,1.5-0.3v2.5
			c-0.6,0.2-1.2,0.4-1.8,0.5C200.5,81.2,199.9,81.3,199.4,81.3z"/>
		<path d="M218.3,81.3c-1.8,0-3.5-0.3-4.9-1c-1.4-0.6-2.6-1.5-3.5-2.6c-0.9-1.1-1.6-2.5-2.1-4c-0.5-1.5-0.7-3.2-0.7-4.9
			c0-1.8,0.2-3.4,0.7-5c0.5-1.5,1.2-2.9,2.1-4.1c0.9-1.2,2.1-2.1,3.4-2.8c1.4-0.7,2.9-1,4.7-1c1.9,0,3.5,0.3,4.8,1
			c1.4,0.6,2.5,1.5,3.3,2.6c0.9,1.1,1.5,2.3,1.9,3.7c0.4,1.3,0.6,2.7,0.6,4.1c0,0.3,0,0.6,0,1c0,0.4-0.1,0.8-0.1,1.1h-18.2
			c0.1,2.8,0.8,5,2.3,6.6c1.5,1.6,3.4,2.4,5.9,2.4c1.6,0,2.9-0.2,4-0.7c1.1-0.5,2.2-1.3,3.2-2.4l2.2,2c-0.9,1-1.9,1.7-2.9,2.3
			c-1,0.6-2,1-3.1,1.3C220.8,81.1,219.6,81.3,218.3,81.3z M225.4,67.8c0.1-0.3,0.1-0.5,0.1-0.8s0-0.6,0-0.8c0-0.9-0.1-1.8-0.4-2.6
			c-0.3-0.9-0.7-1.7-1.3-2.5c-0.6-0.7-1.4-1.3-2.4-1.8c-1-0.5-2.1-0.7-3.5-0.7c-1.5,0-2.9,0.4-4,1.1c-1.1,0.8-2,1.8-2.7,3.1
			c-0.6,1.3-1,2.7-1.1,4.3h16.3L225.4,67.8z"/>
		<path d="M234.8,80.9V56.3h3.2V62l-0.8,0.2c0.4-1.4,1.1-2.5,1.9-3.5c0.8-0.9,1.8-1.6,2.9-2.1c1.1-0.5,2.4-0.8,3.7-0.8
			c2.7,0,4.8,0.8,6.2,2.4c1.5,1.6,2.2,4,2.2,7.2v15.4h-3.1V66.7c0-2.7-0.5-4.8-1.5-6c-1-1.3-2.5-2-4.6-2c-1.4,0-2.6,0.3-3.7,1
			c-1.1,0.7-1.9,1.8-2.4,3.2c-0.6,1.5-0.9,3.4-0.9,5.8v12.2H234.8z"/>
		<path d="M283.3,80.9V49h-12.2v-3h27.6v3h-12.1v31.9H283.3z"/>
		<path d="M311.1,81.3c-1.8,0-3.4-0.3-4.8-1s-2.4-1.5-3.1-2.6c-0.7-1.1-1.1-2.4-1.1-3.9c0-1.3,0.3-2.5,0.8-3.4
			c0.5-0.9,1.2-1.6,2-2.2c0.9-0.6,1.9-1,3.1-1.2c1.1-0.2,2.4-0.3,3.7-0.3h8.2V69h-7.8c-1,0-1.9,0.1-2.8,0.2c-0.9,0.2-1.7,0.5-2.3,1
			c-0.5,0.4-0.9,0.8-1.2,1.4c-0.3,0.6-0.4,1.3-0.4,2.1c0,1.5,0.5,2.7,1.6,3.6c1.1,0.9,2.6,1.3,4.4,1.3c1.5,0,2.9-0.4,4.1-1.1
			c1.2-0.7,2.2-1.7,3-3c0.8-1.3,1.1-2.7,1.1-4.2l1.4,1.5c-0.2,1.9-0.7,3.5-1.6,4.9c-0.9,1.4-2.1,2.5-3.5,3.3
			C314.4,80.9,312.9,81.3,311.1,81.3z M319.8,80.9l-0.2-5.6v-9.8c0-2.3-0.6-4-1.8-5.1c-1.2-1.2-2.9-1.8-5.1-1.8
			c-1.5,0-2.8,0.3-4,0.9c-1.2,0.6-2.4,1.6-3.5,3l-2.3-2c1.3-1.6,2.8-2.8,4.5-3.5s3.5-1.1,5.6-1.1c3.1,0,5.5,0.8,7.2,2.5
			s2.5,4,2.5,7.2v15.4H319.8z"/>
		<path d="M339.6,91.5c-3.5,0-6.3-0.6-8.3-2c-2-1.3-3-3.1-3-5.4c0-0.2,0-0.4,0-0.6s0-0.5,0.1-0.7l5.7-4.6l1.2,0.8l-3.9,4.4
			c0,0.1,0,0.3,0,0.4c0,0.1,0,0.2,0,0.3c0,1.6,0.8,2.8,2.3,3.6c1.5,0.8,3.5,1.2,5.9,1.2c2,0,3.7-0.3,5-1c1.3-0.6,2-1.7,2-3
			c0-0.8-0.2-1.4-0.7-1.9c-0.5-0.5-1.1-0.9-1.9-1.1c-0.8-0.3-1.7-0.5-2.8-0.7c-1.1-0.2-2.2-0.4-3.5-0.6c-1.5-0.2-2.9-0.6-4.2-1
			c-1.3-0.4-2.4-1-3.3-1.8c-0.8-0.8-1.3-1.8-1.3-3.2c0-1.1,0.4-2.1,1.1-3c0.7-0.9,1.8-1.6,3-2.3l2,1.4c-1.1,0.3-1.9,0.8-2.4,1.4
			c-0.5,0.6-0.7,1.3-0.7,2.1c0,0.8,0.3,1.4,0.8,1.9c0.5,0.5,1.2,0.8,2.2,1.1c0.9,0.2,2,0.5,3.2,0.6c1.5,0.2,3,0.5,4.4,0.8
			c1.4,0.3,2.6,0.6,3.7,1.1c1.1,0.5,1.9,1.1,2.5,1.9c0.6,0.8,0.9,1.8,0.9,3.1c0,2.2-0.9,3.9-2.7,5.1
			C345.1,90.9,342.7,91.5,339.6,91.5z M338.9,72.8c-1.8,0-3.4-0.4-4.8-1.1c-1.4-0.7-2.5-1.7-3.3-2.9c-0.8-1.3-1.2-2.7-1.2-4.4
			c0-1.7,0.4-3.1,1.2-4.4s1.9-2.3,3.3-3c1.4-0.7,3-1.1,4.7-1.1s3.2,0.4,4.6,1.1c1.4,0.7,2.5,1.7,3.3,3c0.8,1.3,1.2,2.8,1.2,4.5
			c0,1.6-0.4,3.1-1.2,4.3c-0.8,1.2-1.8,2.2-3.2,2.9C342.2,72.4,340.6,72.8,338.9,72.8z M338.8,70.2c1.8,0,3.3-0.5,4.3-1.6
			s1.6-2.5,1.6-4.1c0-1.8-0.5-3.2-1.7-4.3c-1.1-1.1-2.5-1.6-4.3-1.6c-1.8,0-3.3,0.6-4.4,1.7c-1.1,1.1-1.7,2.5-1.7,4.2
			c0,1.7,0.5,3.1,1.6,4.2C335.5,69.6,337,70.2,338.8,70.2z M346.4,60.5l-2.3-1.6l5-4.2l1.6,2L346.4,60.5z"/>
		<path d="M352.4,88.7l5.4-14.9h3.5l-6.7,14.9H352.4z"/>
		<path d="M379.7,80.9V46.1h3.2v15.6h18.4V46.1h3.3v34.9h-3.3V64.7H383v16.2H379.7z"/>
		<path d="M423.1,81.3c-2.3,0-4.3-0.5-6.1-1.6c-1.8-1.1-3.2-2.6-4.2-4.5c-1-1.9-1.5-4.1-1.5-6.6c0-2.5,0.5-4.6,1.5-6.5
			s2.4-3.4,4.2-4.5c1.8-1.1,3.8-1.6,6.1-1.6s4.3,0.5,6.1,1.6c1.8,1.1,3.1,2.6,4.1,4.5s1.5,4.1,1.5,6.5c0,2.5-0.5,4.7-1.5,6.6
			c-1,1.9-2.4,3.4-4.2,4.5C427.4,80.7,425.4,81.3,423.1,81.3z M423.1,78.5c1.7,0,3.2-0.4,4.5-1.2c1.3-0.8,2.3-2,3-3.5
			c0.7-1.5,1-3.2,1-5.2c0-2-0.3-3.7-1-5.2c-0.7-1.5-1.7-2.6-3-3.4c-1.3-0.8-2.8-1.2-4.5-1.2c-1.7,0-3.2,0.4-4.5,1.2
			c-1.3,0.8-2.3,2-3,3.5s-1.1,3.2-1.1,5.2c0,2,0.4,3.7,1.1,5.2c0.7,1.5,1.7,2.6,3,3.5C419.9,78,421.4,78.5,423.1,78.5z"/>
		<path d="M445.7,81.3c-1.4,0-2.5-0.4-3.4-1.3c-0.8-0.9-1.2-2.3-1.2-4.2V46.1h3.2v29.1c0,1.1,0.2,2,0.6,2.5s1,0.8,1.8,0.8
			c0.3,0,0.7,0,1.1-0.1c0.4-0.1,0.8-0.2,1.2-0.3v2.7c-0.6,0.2-1.1,0.4-1.7,0.5C446.7,81.2,446.1,81.3,445.7,81.3z"/>
		<path d="M461.5,81.3c-1.8,0-3.4-0.3-4.8-1s-2.4-1.5-3.1-2.6c-0.7-1.1-1.1-2.4-1.1-3.9c0-1.3,0.3-2.5,0.8-3.4
			c0.5-0.9,1.2-1.6,2-2.2c0.9-0.6,1.9-1,3.1-1.2c1.1-0.2,2.4-0.3,3.7-0.3h8.2V69h-7.8c-1,0-1.9,0.1-2.8,0.2c-0.9,0.2-1.7,0.5-2.3,1
			c-0.5,0.4-0.9,0.8-1.2,1.4c-0.3,0.6-0.4,1.3-0.4,2.1c0,1.5,0.5,2.7,1.6,3.6c1.1,0.9,2.6,1.3,4.4,1.3c1.5,0,2.9-0.4,4.1-1.1
			c1.2-0.7,2.2-1.7,3-3c0.8-1.3,1.1-2.7,1.1-4.2l1.3,1.5c-0.2,1.9-0.7,3.5-1.6,4.9c-0.9,1.4-2.1,2.5-3.5,3.3
			C464.8,80.9,463.3,81.3,461.5,81.3z M470.2,80.9l-0.2-5.6v-9.8c0-2.3-0.6-4-1.8-5.1c-1.2-1.2-2.9-1.8-5.2-1.8
			c-1.5,0-2.8,0.3-4,0.9c-1.2,0.6-2.4,1.6-3.5,3l-2.3-2c1.3-1.6,2.8-2.8,4.5-3.5s3.5-1.1,5.6-1.1c3.1,0,5.5,0.8,7.2,2.5
			s2.5,4,2.5,7.2v15.4H470.2z"/>
		<path d="M477.8,88.7l5.4-14.9h3.5L480,88.7H477.8z"/>
		<path d="M4.6,121.9V87.1h3.2v15.6h18.4V87.1h3.3v34.9h-3.3v-16.2H7.9v16.2H4.6z"/>
		<path d="M45.2,122.3c-1.8,0-3.4-0.3-4.8-1s-2.4-1.5-3.1-2.6c-0.7-1.1-1.1-2.4-1.1-3.9c0-1.3,0.3-2.5,0.8-3.4
			c0.5-0.9,1.2-1.6,2-2.2c0.9-0.6,1.9-1,3.1-1.2c1.1-0.2,2.4-0.3,3.7-0.3H54v2.4h-7.8c-1,0-1.9,0.1-2.8,0.2c-0.9,0.2-1.7,0.5-2.3,1
			c-0.5,0.4-0.9,0.8-1.2,1.4c-0.3,0.6-0.4,1.3-0.4,2.1c0,1.5,0.5,2.7,1.6,3.6c1.1,0.9,2.6,1.3,4.4,1.3c1.5,0,2.9-0.4,4.1-1.1
			c1.2-0.7,2.2-1.7,3-3c0.8-1.3,1.1-2.7,1.1-4.2l1.4,1.5c-0.2,1.9-0.7,3.5-1.6,4.9c-0.9,1.4-2.1,2.5-3.5,3.3
			C48.5,121.9,46.9,122.3,45.2,122.3z M53.9,121.9l-0.2-5.6v-9.8c0-2.3-0.6-4-1.8-5.1c-1.2-1.2-2.9-1.8-5.1-1.8
			c-1.5,0-2.8,0.3-4,0.9c-1.2,0.6-2.4,1.6-3.5,3l-2.3-2c1.3-1.6,2.8-2.8,4.5-3.5s3.5-1.1,5.6-1.1c3.1,0,5.5,0.8,7.2,2.5
			c1.7,1.6,2.5,4,2.5,7.2v15.4H53.9z"/>
		<path d="M68.5,122.3c-1.4,0-2.5-0.4-3.4-1.3c-0.8-0.9-1.2-2.3-1.2-4.2V87.1H67v29.1c0,1.1,0.2,2,0.6,2.5c0.4,0.5,1,0.8,1.8,0.8
			c0.3,0,0.7,0,1.1-0.1c0.4-0.1,0.8-0.2,1.2-0.3v2.7c-0.6,0.2-1.1,0.4-1.7,0.5C69.5,122.2,68.9,122.3,68.5,122.3z"/>
		<path d="M81.1,122.3c-1.4,0-2.5-0.4-3.4-1.3c-0.8-0.9-1.2-2.3-1.2-4.2V87.1h3.2v29.1c0,1.1,0.2,2,0.6,2.5c0.4,0.5,1,0.8,1.8,0.8
			c0.3,0,0.7,0,1.1-0.1c0.4-0.1,0.8-0.2,1.2-0.3v2.7c-0.6,0.2-1.1,0.4-1.7,0.5C82.1,122.2,81.5,122.3,81.1,122.3z"/>
		<path d="M99.8,122.3c-2.3,0-4.3-0.5-6.1-1.6c-1.8-1.1-3.2-2.6-4.2-4.5c-1-1.9-1.5-4.1-1.5-6.6c0-2.5,0.5-4.6,1.5-6.5
			c1-1.9,2.4-3.4,4.1-4.5c1.8-1.1,3.8-1.6,6.1-1.6s4.3,0.5,6.1,1.6c1.8,1.1,3.1,2.6,4.1,4.5c1,1.9,1.5,4.1,1.5,6.5
			c0,2.5-0.5,4.7-1.5,6.6c-1,1.9-2.4,3.4-4.2,4.5C104.1,121.7,102,122.3,99.8,122.3z M99.8,119.5c1.7,0,3.2-0.4,4.5-1.2
			c1.3-0.8,2.3-2,3-3.5c0.7-1.5,1-3.2,1-5.2c0-2-0.3-3.7-1-5.2c-0.7-1.5-1.7-2.6-3-3.4c-1.3-0.8-2.8-1.2-4.5-1.2
			c-1.7,0-3.2,0.4-4.5,1.2c-1.3,0.8-2.3,2-3,3.5s-1.1,3.2-1.1,5.2c0,2,0.4,3.7,1.1,5.2c0.7,1.5,1.7,2.6,3,3.5
			C96.5,119,98,119.5,99.8,119.5z"/>
		<path d="M115.3,129.7l5.4-14.9h3.5l-6.7,14.9H115.3z"/>
		<path d="M142.6,121.9V87.1h3.2v15.6h18.4V87.1h3.3v34.9h-3.3v-16.2h-18.4v16.2H142.6z"/>
		<path d="M183.1,122.3c-1.8,0-3.4-0.3-4.8-1s-2.4-1.5-3.1-2.6c-0.7-1.1-1.1-2.4-1.1-3.9c0-1.3,0.3-2.5,0.8-3.4
			c0.5-0.9,1.2-1.6,2-2.2c0.9-0.6,1.9-1,3.1-1.2c1.1-0.2,2.4-0.3,3.7-0.3h8.2v2.4h-7.8c-1,0-1.9,0.1-2.8,0.2c-0.9,0.2-1.7,0.5-2.3,1
			c-0.5,0.4-0.9,0.8-1.2,1.4c-0.3,0.6-0.4,1.3-0.4,2.1c0,1.5,0.5,2.7,1.6,3.6c1.1,0.9,2.6,1.3,4.4,1.3c1.5,0,2.9-0.4,4.1-1.1
			c1.2-0.7,2.2-1.7,3-3c0.8-1.3,1.1-2.7,1.1-4.2l1.4,1.5c-0.2,1.9-0.7,3.5-1.6,4.9c-0.9,1.4-2.1,2.5-3.5,3.3
			C186.4,121.9,184.9,122.3,183.1,122.3z M191.8,121.9l-0.2-5.6v-9.8c0-2.3-0.6-4-1.8-5.1c-1.2-1.2-2.9-1.8-5.1-1.8
			c-1.5,0-2.8,0.3-4,0.9c-1.2,0.6-2.4,1.6-3.5,3l-2.3-2c1.3-1.6,2.8-2.8,4.5-3.5s3.5-1.1,5.6-1.1c3.1,0,5.5,0.8,7.2,2.5
			c1.7,1.6,2.5,4,2.5,7.2v15.4H191.8z"/>
		<path d="M206.4,122.3c-1.4,0-2.5-0.4-3.4-1.3c-0.8-0.9-1.2-2.3-1.2-4.2V87.1h3.2v29.1c0,1.1,0.2,2,0.6,2.5c0.4,0.5,1,0.8,1.8,0.8
			c0.3,0,0.7,0,1.1-0.1c0.4-0.1,0.8-0.2,1.2-0.3v2.7c-0.6,0.2-1.1,0.4-1.7,0.5C207.4,122.2,206.9,122.3,206.4,122.3z"/>
		<path d="M225.1,122.3c-2.3,0-4.3-0.5-6.1-1.6c-1.8-1.1-3.2-2.6-4.2-4.5c-1-1.9-1.5-4.1-1.5-6.6c0-2.5,0.5-4.6,1.5-6.5
			c1-1.9,2.4-3.4,4.1-4.5c1.8-1.1,3.8-1.6,6.1-1.6s4.3,0.5,6.1,1.6c1.8,1.1,3.1,2.6,4.1,4.5c1,1.9,1.5,4.1,1.5,6.5
			c0,2.5-0.5,4.7-1.5,6.6c-1,1.9-2.4,3.4-4.2,4.5C229.4,121.7,227.4,122.3,225.1,122.3z M225.1,119.5c1.7,0,3.2-0.4,4.5-1.2
			c1.3-0.8,2.3-2,3-3.5c0.7-1.5,1-3.2,1-5.2c0-2-0.3-3.7-1-5.2c-0.7-1.5-1.7-2.6-3-3.4c-1.3-0.8-2.8-1.2-4.5-1.2
			c-1.7,0-3.2,0.4-4.5,1.2c-1.3,0.8-2.3,2-3,3.5s-1.1,3.2-1.1,5.2c0,2,0.4,3.7,1.1,5.2c0.7,1.5,1.7,2.6,3,3.5
			C221.9,119,223.4,119.5,225.1,119.5z"/>
		<path d="M240.6,129.7l5.4-14.9h3.5l-6.7,14.9H240.6z"/>
		<path d="M270.4,104.4c-1.3,2.2-2.6,4.2-4,5.9c-0.3-0.5-1.1-1.5-1.6-2.1c3.6-4.3,7-11.5,9.2-18.5l3.2,1c-0.2,0.4-0.5,0.5-0.9,0.4
			c-1,3-2.2,6.1-3.6,9l1.1,0.3c-0.1,0.2-0.3,0.4-0.8,0.5v24.2h-2.5V104.4z M296.4,105.3c0.3-1.4,0.7-3.5,1-5.6h-7.6v22.2
			c0,2.7-1,3.2-6.3,3.2c-0.2-0.8-0.5-1.9-0.9-2.6c0.9,0,1.9,0,2.6,0h1.5c0.5,0,0.6-0.2,0.6-0.6V99.8h-6.1c-1.1,2.8-2.5,5.3-3.9,7.2
			c-0.5-0.5-1.3-1.2-1.9-1.6c2.7-3.5,5-9.5,6.3-15.5l3.2,0.8c-0.1,0.3-0.3,0.4-0.8,0.4c-0.5,2.1-1.1,4.2-1.8,6.2h16.8l1.3,0
			c0,0.6-0.9,5.6-1.7,8.4L296.4,105.3z M284.2,106.6c-0.1,0.3-0.4,0.4-0.8,0.4c-1.2,4.7-3.3,9.7-5.7,12.7c-0.5-0.4-1.4-1-2-1.3
			c2.3-2.9,4.3-7.8,5.5-12.7L284.2,106.6z M298,119.4c-0.7-3.6-2.9-9-5.2-13.1l2.2-0.8c2.4,4.1,4.6,9.4,5.4,13L298,119.4z"/>
		<path d="M316,97.7l1.4,0.4l-0.2,0.5c-0.5,6.7-1.7,12.1-3.6,16.3c1.9,1.4,3.5,2.8,4.5,4.1l-1.6,2.1c-0.9-1.2-2.4-2.6-4.1-4
			c-1.9,3.5-4.5,6.1-7.5,7.9c-0.3-0.6-1.1-1.6-1.6-2.1c2.8-1.5,5.2-4,7.1-7.4c-1.4-1.1-2.9-2.1-4.3-2.9l-0.5,1.7l-2.2-1.1
			c0.9-3.3,2.1-8.2,3.2-13.1h-3.8v-2.4h4.3c0.6-2.8,1.1-5.6,1.6-8l3.1,0.4c0,0.3-0.3,0.4-0.8,0.5c-0.4,2.2-0.9,4.6-1.5,7.2h5.9
			L316,97.7z M309.1,100.2c-0.8,3.5-1.7,7.1-2.5,10.2c1.6,0.9,3.2,1.9,4.8,3c1.5-3.5,2.6-7.9,3.2-13.2H309.1z M338.1,106.8v2.5H329
			v12.6c0,2.9-1.1,3.4-7.9,3.3c-0.2-0.7-0.6-1.8-0.9-2.5c1.8,0,3.5,0.1,4.6,0.1c1.3,0,1.7,0,1.7-0.8v-12.6h-9.3v-2.5h9.3v-6.5
			l1.3,0.1c2-1.7,4.1-4.1,5.6-6.2h-14.6v-2.4h16.6l0.5-0.2l2,1.3c-0.1,0.2-0.4,0.3-0.6,0.4c-2,2.8-5.2,6.4-8.1,8.8v4.7H338.1z"/>
		<path d="M340.6,129.7l5.3-14.9h3.5l-6.7,14.9H340.6z"/>
		<path d="M363.4,121.9l13-34.9h2.8l12.9,34.9h-3.5l-10.7-30.3l-10.7,30.3H363.4z M369.8,113l1-2.9h13.8l1.1,2.9H369.8z"/>
		<path d="M396.8,121.9V87.1h3.2v16l-0.8,0.2c0.4-1.4,1.1-2.5,1.9-3.5c0.8-0.9,1.8-1.6,2.9-2.1c1.1-0.5,2.4-0.8,3.7-0.8
			c2.7,0,4.8,0.8,6.3,2.4c1.5,1.6,2.2,4,2.2,7.2v15.4H413v-14.2c0-2.7-0.5-4.8-1.5-6c-1-1.3-2.5-2-4.6-2c-2.1,0-3.8,0.8-5.1,2.4
			s-1.9,4.1-1.9,7.6v12.2H396.8z"/>
		<path d="M434,122.3c-2.3,0-4.3-0.5-6.1-1.6c-1.8-1.1-3.2-2.6-4.2-4.5c-1-1.9-1.5-4.1-1.5-6.6c0-2.5,0.5-4.6,1.5-6.5
			s2.4-3.4,4.2-4.5c1.8-1.1,3.8-1.6,6.1-1.6s4.3,0.5,6.1,1.6c1.8,1.1,3.1,2.6,4.1,4.5s1.5,4.1,1.5,6.5c0,2.5-0.5,4.7-1.5,6.6
			c-1,1.9-2.4,3.4-4.2,4.5C438.3,121.7,436.2,122.3,434,122.3z M434,119.5c1.7,0,3.2-0.4,4.5-1.2c1.3-0.8,2.3-2,3-3.5
			c0.7-1.5,1-3.2,1-5.2c0-2-0.3-3.7-1-5.2c-0.7-1.5-1.7-2.6-3-3.4c-1.3-0.8-2.8-1.2-4.5-1.2c-1.7,0-3.2,0.4-4.5,1.2
			c-1.3,0.8-2.3,2-3,3.5s-1.1,3.2-1.1,5.2c0,2,0.4,3.7,1.1,5.2c0.7,1.5,1.7,2.6,3,3.5C430.7,119,432.2,119.5,434,119.5z"/>
		<path d="M450.5,132.5c-0.5,0-1.1-0.1-1.7-0.2c-0.6-0.1-1.2-0.3-1.9-0.4v-2.8c0.5,0.2,1,0.3,1.4,0.4c0.4,0.1,0.8,0.1,1,0.1
			c0.9,0,1.5-0.3,2-0.8c0.4-0.5,0.6-1.4,0.6-2.6V97.3h3.2v29.6c0,1.9-0.4,3.3-1.2,4.2C453,132,451.9,132.5,450.5,132.5z M451.7,92.5
			v-5.4h3.8v5.4H451.7z"/>
		<path d="M460,129.7l5.4-14.9h3.5l-6.7,14.9H460z"/>
		<path d="M490.2,121.9c-0.7-0.3-1.4-0.9-2.1-1.9c-0.5-0.9-0.8-2-0.8-3.4V104c0-0.7-0.1-1.1-0.3-1.4c-0.2-0.2-0.6-0.4-1.4-0.5
			c1.3-2.2,2.8-4,4.4-5.5V99h7.8c3.2,0,5.7,0.2,7.3,0.5c1.7,0.4,2.8,1.1,3.4,2.1c0.6,1.1,0.9,3.6,0.9,7.5c0,4.9-0.5,8.1-1.4,9.6
			c-0.9,1.5-1.6,2.4-1.9,2.7s-1,0.4-1.9,0.4H490.2z M506,118c0.3-1.1,0.5-3.5,0.5-7.2c0-3.4-0.5-5.6-1.6-6.6c-0.5-0.5-1.2-0.8-2-1
			c-0.8-0.2-2.4-0.2-4.8-0.2H490V118H506z"/>
		<path d="M515.9,97.3l5.3,4.1c1.3,1.1,2,2.4,2,3.9v14.5l-3.4,3.2v-15.4c0-1-0.2-1.7-0.5-2.1c-0.4-0.4-1-0.9-2-1.5l-4.4-2.8
			L515.9,97.3z"/>
		<path d="M529.9,93.8V99h7.3c2.3,0,3.8,0.1,4.4,0.3c0.7,0.2,1.2,0.7,1.6,1.4c0.4,0.7,0.6,1.5,0.6,2.4v2.8c0,4-1.6,7.5-4.8,10.6
			c-3.2,3.1-7.1,5.3-11.7,6.6l2.3-5c2.9-0.5,5.5-1.6,7.7-3.3c2.2-1.7,3.3-4.1,3.3-7.2v-1.7c0-1.1-0.2-1.8-0.5-2.3
			c-0.4-0.4-1.1-0.6-2.2-0.6h-9.6c-0.6,0-1-0.4-1-1.1v-1.5c0-3.7-0.4-5.8-1.1-6.5l3-3.9c0,0.1,0.1,0.2,0.2,0.4
			C529.7,91.1,529.9,92.2,529.9,93.8z"/>
		<path d="M551.7,101.3c0.3,1,0.7,2.5,1.1,4.5l1.1,5.7c1.5-0.8,2.6-1.6,3.3-2.4c0.7-0.8,1-1.9,1-3.3c0-1.7-0.3-3.4-0.9-5l3.4-3.4
			c0.6,2.3,0.9,4.1,0.9,5.6c0,4.5-2.4,8.3-7.3,11.4l0.6,2.8c0.2,0.7,0.4,1.1,0.6,1.3c0.2,0.2,0.7,0.3,1.5,0.3c1.3,0,2.8-0.5,4.6-1.6
			c1.8-1,3.2-2.2,4.4-3.5s1.7-2.9,1.7-4.8c0-1.4-0.4-3.8-1.3-7.3l3.7-4.2c0.7,3,1.1,5.3,1.1,6.9c0,3.4-0.6,6.2-1.7,8.4
			c-1.2,2.2-3.1,4.4-5.7,6.6c-2.6,2.2-5.3,3.3-8.2,3.3c-1.5,0-2.6-1.2-3.2-3.6l-1.8-6.7c-0.6-2.2-1.1-3.8-1.4-4.8s-0.7-1.9-0.9-2.7
			c-0.6-1.6-1.1-2.8-1.4-3.5l3-3.9C550.7,98.8,551.3,100.1,551.7,101.3z"/>
		<path d="M574.2,129.7l5.4-14.9h3.5l-6.7,14.9H574.2z"/>
		<path d="M19,163.4c-3.2,0-5.9-0.7-8.3-2.2c-2.4-1.5-4.2-3.6-5.6-6.2c-1.3-2.7-2-5.8-2-9.4s0.7-6.8,2-9.5c1.3-2.7,3.2-4.8,5.6-6.3
			c2.4-1.5,5.1-2.2,8.3-2.2c3.2,0,6,0.7,8.4,2.2c2.4,1.5,4.2,3.6,5.6,6.3c1.3,2.7,2,5.9,2,9.5s-0.7,6.7-2,9.4
			c-1.3,2.7-3.2,4.8-5.6,6.2C25,162.7,22.2,163.4,19,163.4z M19,160.3c2.6,0,4.8-0.6,6.7-1.8c1.9-1.2,3.3-2.9,4.4-5.1
			c1-2.2,1.5-4.8,1.5-7.8c0-3-0.5-5.6-1.5-7.9c-1-2.2-2.5-3.9-4.4-5.1c-1.9-1.2-4.1-1.8-6.7-1.8c-2.5,0-4.7,0.6-6.6,1.8
			c-1.9,1.2-3.3,2.9-4.4,5.1c-1,2.2-1.6,4.8-1.6,7.9c0,3,0.5,5.6,1.6,7.9c1,2.2,2.5,3.9,4.4,5.1C14.2,159.7,16.4,160.3,19,160.3z"/>
		<path d="M45.9,163.3c-1.4,0-2.5-0.4-3.4-1.3c-0.8-0.9-1.2-2.3-1.2-4.2v-29.6h3.2v29.1c0,1.1,0.2,2,0.6,2.5c0.4,0.5,1,0.8,1.8,0.8
			c0.3,0,0.7,0,1.1-0.1c0.4-0.1,0.8-0.2,1.2-0.3v2.7c-0.6,0.2-1.1,0.4-1.7,0.5C46.9,163.2,46.3,163.3,45.9,163.3z"/>
		<path d="M61.7,163.3c-1.8,0-3.4-0.3-4.8-1s-2.4-1.5-3.1-2.6c-0.7-1.1-1.1-2.4-1.1-3.9c0-1.3,0.3-2.5,0.8-3.4
			c0.5-0.9,1.2-1.6,2-2.2c0.9-0.6,1.9-1,3.1-1.2c1.1-0.2,2.4-0.3,3.7-0.3h8.2v2.4h-7.8c-1,0-1.9,0.1-2.8,0.2c-0.9,0.2-1.7,0.5-2.3,1
			c-0.5,0.4-0.9,0.8-1.2,1.4c-0.3,0.6-0.4,1.3-0.4,2.1c0,1.5,0.5,2.7,1.6,3.6c1.1,0.9,2.6,1.3,4.4,1.3c1.5,0,2.9-0.4,4.1-1.1
			c1.2-0.7,2.2-1.7,3-3c0.8-1.3,1.1-2.7,1.1-4.2l1.4,1.5c-0.2,1.9-0.7,3.5-1.6,4.9c-0.9,1.4-2.1,2.5-3.5,3.3
			C65,162.9,63.5,163.3,61.7,163.3z M70.4,162.9l-0.2-5.6v-9.8c0-2.3-0.6-4-1.8-5.1c-1.2-1.2-2.9-1.8-5.1-1.8c-1.5,0-2.8,0.3-4,0.9
			c-1.2,0.6-2.4,1.6-3.5,3l-2.3-2c1.3-1.6,2.8-2.8,4.5-3.5s3.5-1.1,5.6-1.1c3.1,0,5.5,0.8,7.2,2.5c1.7,1.6,2.5,4,2.5,7.2v15.4H70.4z
			 M62.6,135.1l5.4-7h3.4l-6.4,7H62.6z"/>
		<path d="M78,170.7l5.4-14.9h3.5l-6.7,14.9H78z"/>
		<path d="M125.5,133.5c0,1.3-0.3,2.5-1,3.6c-0.7,1.1-1.7,2.2-3,3.1c1.3,1.4,2,3.6,2,6.4v16.3h-3.6v-4.6c-0.7-2.3-1.8-4.1-3.2-5.7
			s-2.9-2.3-4.5-2.3c-1.4,0-2.5,0.4-3.2,1.2s-1.1,1.9-1.1,3.5v0.7c0.5-0.1,0.9-0.2,1.4-0.2c1.1,0,2,0.4,2.7,1.1s1.1,1.7,1.1,2.7
			s-0.4,2-1.1,2.7s-1.7,1.1-2.7,1.1c-1.6,0-2.8-0.5-3.7-1.6s-1.3-2.6-1.3-4.5v-2.1c0-2.3,0.7-4.2,2.1-5.6s3.3-2.1,5.8-2.1
			c1.7,0,3.2,0.5,4.6,1.5s2.4,2.3,3.2,3.9v-5.8c0-1.8-0.5-3.1-1.4-4.2s-2.6-1.5-5-1.5c-1.9,0-3.4,0.4-4.5,1.1s-1.9,1.8-2.3,3.2
			L103,145c0.5-2.4,1.7-4.2,3.5-5.4s4.3-1.8,7.5-1.8c2.1,0,3.7,0.3,5,0.8c0.9-0.7,1.6-1.6,2.1-2.4c0.5-0.9,0.7-1.8,0.7-2.8v-0.2h3.6
			V133.5z M109.2,160.6c0.4,0,0.7-0.1,0.9-0.4c0.3-0.3,0.4-0.6,0.4-1c0-0.4-0.1-0.7-0.4-0.9c-0.3-0.3-0.6-0.4-0.9-0.4
			c-0.4,0-0.7,0.1-1,0.4c-0.3,0.3-0.4,0.6-0.4,0.9c0,0.4,0.1,0.7,0.4,1C108.5,160.5,108.8,160.6,109.2,160.6z"/>
		<path d="M146.6,157c0,2-0.4,3.5-1.3,4.5s-2.1,1.6-3.7,1.6c-1.1,0-2-0.4-2.7-1.1s-1.1-1.7-1.1-2.7s0.4-2,1.1-2.7s1.7-1.1,2.7-1.1
			c0.4,0,0.9,0.1,1.3,0.2v-8.8c0-1.8-0.4-3.1-1.2-4.2s-2.3-1.5-4.5-1.5c-3.3,0-5.4,1.4-6.2,4.3l-3.6-0.5c1-4.8,4.4-7.2,10.3-7.2
			s8.8,2.9,8.8,8.8V157z M141.6,160.6c0.4,0,0.7-0.1,0.9-0.4s0.4-0.6,0.4-1c0-0.4-0.1-0.7-0.4-0.9s-0.6-0.4-0.9-0.4
			c-0.4,0-0.7,0.1-0.9,0.4c-0.3,0.3-0.4,0.6-0.4,0.9c0,0.4,0.1,0.7,0.4,1C140.9,160.5,141.2,160.6,141.6,160.6z"/>
		<path d="M150.1,126.8c-0.5,2.5-1.7,4.4-3.4,5.7c-1.7,1.3-3.8,2-6.4,2c-2.1,0-3.8-0.5-5.1-1.5c-1.3-1-2-2.2-2-3.6
			c0-1,0.3-1.8,1-2.5s1.5-1.1,2.5-1.1c1,0,1.8,0.4,2.5,1.1s1.1,1.5,1.1,2.5c0,1.1-0.4,1.9-1.1,2.6c0.2,0.1,0.6,0.2,1.1,0.2
			c4,0,6.5-1.8,7.3-5.3H150.1z M136.9,130.5c0.3,0,0.6-0.1,0.8-0.4s0.4-0.5,0.4-0.8c0-0.3-0.1-0.6-0.4-0.8s-0.5-0.4-0.8-0.4
			s-0.6,0.1-0.8,0.4s-0.4,0.5-0.4,0.8c0,0.3,0.1,0.6,0.3,0.8C136.3,130.4,136.5,130.5,136.9,130.5z"/>
		<path d="M173.9,133.5c0,1.3-0.3,2.5-1,3.6c-0.7,1.1-1.7,2.2-3,3.1c1.3,1.4,2,3.6,2,6.4v16.3h-3.6v-4.6c-0.7-2.3-1.8-4.1-3.2-5.7
			s-2.9-2.3-4.5-2.3c-1.4,0-2.5,0.4-3.2,1.2s-1.1,1.9-1.1,3.5v0.7c0.5-0.1,0.9-0.2,1.4-0.2c1.1,0,2,0.4,2.7,1.1s1.1,1.7,1.1,2.7
			s-0.4,2-1.1,2.7s-1.7,1.1-2.7,1.1c-1.6,0-2.8-0.5-3.7-1.6s-1.3-2.6-1.3-4.5v-2.1c0-2.3,0.7-4.2,2.1-5.6s3.3-2.1,5.8-2.1
			c1.7,0,3.2,0.5,4.6,1.5s2.4,2.3,3.2,3.9v-5.8c0-1.8-0.5-3.1-1.4-4.2s-2.6-1.5-5-1.5c-1.9,0-3.4,0.4-4.5,1.1s-1.9,1.8-2.3,3.2
			l-3.6-0.5c0.5-2.4,1.7-4.2,3.5-5.4s4.3-1.8,7.5-1.8c2.1,0,3.7,0.3,5,0.8c0.9-0.7,1.6-1.6,2.1-2.4c0.5-0.9,0.7-1.8,0.7-2.8v-0.2
			h3.6V133.5z M157.6,160.6c0.4,0,0.7-0.1,0.9-0.4c0.3-0.3,0.4-0.6,0.4-1c0-0.4-0.1-0.7-0.4-0.9c-0.3-0.3-0.6-0.4-0.9-0.4
			c-0.4,0-0.7,0.1-1,0.4c-0.3,0.3-0.4,0.6-0.4,0.9c0,0.4,0.1,0.7,0.4,1C156.9,160.5,157.2,160.6,157.6,160.6z"/>
		<path d="M198.8,162.9h-3.6v-16.7c0-1.4-0.7-2.6-2-3.5c-1.4-1-3-1.4-4.9-1.4c-2,0-3.8,0.5-5.2,1.6c-1.4,1.1-2.1,2.5-2.1,4.2
			c0,1.4,0.4,3.6,1.3,6.7c0.6,2.2,0.9,3.7,0.9,4.4c0.2-0.3,0.6-0.8,1.3-1.7c1.1-1.3,1.8-2.3,2.2-2.8c-0.8-0.3-1.5-0.8-2-1.5
			c-0.5-0.7-0.8-1.5-0.8-2.3c0-1.1,0.4-2,1.1-2.7s1.7-1.1,2.7-1.1c1,0,1.9,0.4,2.7,1.1c0.8,0.8,1.2,1.7,1.2,2.7v0.2
			c0,1-0.3,2.1-0.9,3.3c-0.6,1.2-2,2.8-4.1,4.9c-1.5,1.5-2.5,2.5-2.8,3.2c-0.4,0.6-0.6,1.2-0.6,1.7h-3.6v-3.6c0-1.3-0.4-3.3-1.1-6.2
			c-0.7-2.9-1.1-5-1.1-6.3c0-2.4,1-4.5,2.9-6.3s4.6-2.7,8-2.7c3.2,0,5.8,0.8,7.8,2.4c1.9,1.6,2.9,3.5,2.9,5.9V162.9z M187.8,151.1
			c0.4,0,0.7-0.1,0.9-0.4c0.3-0.3,0.4-0.6,0.4-0.9c0-0.4-0.1-0.7-0.4-0.9s-0.6-0.4-0.9-0.4c-0.4,0-0.7,0.1-1,0.4s-0.4,0.6-0.4,0.9
			s0.1,0.7,0.4,0.9C187.1,151,187.4,151.1,187.8,151.1z"/>
		<path d="M196.7,135.4h-17.3v-0.5c0-1.9,0.6-3.5,1.8-4.9s3-2,5.6-2c2.9,0,5.3,1,7.3,3.1v-4.3h2.6V135.4z M192.7,133
			c-1.2-1.7-3.2-2.6-5.9-2.6c-1.2,0-2.3,0.2-3,0.7s-1.3,1.1-1.4,1.9H192.7z"/>
		<path d="M211.1,162.9c0,2.1-0.4,3.6-1.2,4.7c-0.8,1.1-1.8,1.9-2.9,2.3l-1.2-1.9c1.8-0.8,2.7-2.5,2.8-5.2h-2.5v-5h5V162.9z"/>
		<path d="M246.5,163.4c-3.1,0-5.9-0.7-8.3-2.2c-2.4-1.5-4.2-3.6-5.6-6.3c-1.3-2.7-2-5.9-2-9.5c0-3.6,0.7-6.7,2-9.4
			c1.3-2.7,3.2-4.8,5.6-6.2c2.4-1.5,5.1-2.2,8.3-2.2c3.4,0,6.4,0.8,8.9,2.5c2.5,1.7,4.3,4,5.4,7l-3.1,1.1c-0.9-2.3-2.3-4.2-4.2-5.5
			c-1.9-1.3-4.2-2-7-2c-2.5,0-4.7,0.6-6.6,1.8c-1.9,1.2-3.3,2.9-4.4,5.1c-1,2.2-1.6,4.8-1.6,7.8c0,3,0.5,5.7,1.6,7.9
			c1,2.2,2.5,3.9,4.4,5.1c1.9,1.2,4.1,1.8,6.6,1.8c2.8,0,5.1-0.7,7-2c1.9-1.4,3.3-3.2,4.2-5.5l3.1,1.1c-1.1,3-2.9,5.3-5.4,7
			C252.9,162.6,249.9,163.4,246.5,163.4z"/>
		<path d="M264.6,162.9v-2.4l16.5-20.4l0.1,0.6h-15.9v-2.5h18.8v2.5l-16.4,20.4l-0.1-0.9h16.4v2.6H264.6z"/>
		<path d="M300,163.3c-1.8,0-3.5-0.3-4.9-1c-1.4-0.6-2.6-1.5-3.5-2.6c-0.9-1.1-1.6-2.5-2.1-4c-0.5-1.5-0.7-3.2-0.7-4.9
			c0-1.8,0.2-3.4,0.7-5c0.5-1.5,1.2-2.9,2.1-4.1c0.9-1.2,2.1-2.1,3.4-2.8c1.4-0.7,2.9-1,4.7-1c1.9,0,3.5,0.3,4.8,1
			c1.4,0.6,2.5,1.5,3.3,2.6c0.9,1.1,1.5,2.3,1.9,3.7c0.4,1.3,0.6,2.7,0.6,4.1c0,0.3,0,0.6,0,1c0,0.4-0.1,0.8-0.1,1.1h-18.2
			c0.1,2.8,0.8,5,2.3,6.6c1.5,1.6,3.4,2.4,5.9,2.4c1.6,0,2.9-0.2,4-0.7c1.1-0.5,2.2-1.3,3.2-2.4l2.2,2c-0.9,1-1.9,1.7-2.9,2.3
			c-1,0.6-2,1-3.1,1.3C302.5,163.1,301.3,163.3,300,163.3z M307.1,149.8c0.1-0.3,0.1-0.5,0.1-0.8s0-0.6,0-0.8c0-0.9-0.1-1.8-0.4-2.6
			c-0.3-0.9-0.7-1.7-1.3-2.5c-0.6-0.7-1.4-1.3-2.4-1.8c-1-0.5-2.1-0.7-3.5-0.7c-1.5,0-2.9,0.4-4,1.1c-1.1,0.8-2,1.8-2.7,3.1
			c-0.6,1.3-1,2.7-1.1,4.3h16.3L307.1,149.8z"/>
		<path d="M324.4,163.3c-1.6,0-3.1-0.2-4.4-0.8c-1.3-0.5-2.5-1.2-3.4-2c-0.9-0.9-1.7-1.8-2.2-2.8l2.2-1.8c0.6,1.4,1.6,2.5,3,3.4
			c1.4,0.9,3,1.3,4.8,1.3c1.8,0,3.2-0.4,4.2-1.2c1.1-0.8,1.6-1.9,1.6-3.2c0-1.1-0.3-2-1-2.6c-0.6-0.6-1.5-1.1-2.5-1.5
			c-1-0.4-2.1-0.7-3.3-1c-0.9-0.2-1.9-0.5-2.8-0.8c-0.9-0.3-1.8-0.7-2.5-1.2c-0.8-0.5-1.3-1.1-1.8-1.9c-0.4-0.8-0.7-1.7-0.7-2.9
			c0-1.9,0.8-3.5,2.3-4.7c1.5-1.2,3.5-1.8,5.9-1.8c1.8,0,3.5,0.4,5,1.2c1.5,0.8,2.7,2,3.5,3.6l-2,1.5c-0.7-1.3-1.6-2.2-2.8-2.8
			c-1.2-0.6-2.4-0.9-3.8-0.9c-1.5,0-2.7,0.3-3.7,1c-1,0.7-1.5,1.6-1.5,2.7c0,0.8,0.2,1.5,0.7,2c0.5,0.5,1.1,0.9,2,1.3
			c0.9,0.3,1.9,0.6,3,0.9c1.1,0.2,2.1,0.5,3.2,0.8c1,0.3,2,0.8,2.9,1.3c0.9,0.5,1.6,1.2,2.1,2.1c0.5,0.9,0.8,2,0.8,3.3
			c0,1.5-0.4,2.8-1.1,3.9c-0.7,1.1-1.8,2-3.1,2.6C327.8,163,326.2,163.3,324.4,163.3z M322.9,135.1l5.3-7h3.4l-6.3,7H322.9z"/>
		<path d="M349.5,163.3c-1.7,0-3.3-0.3-4.6-1c-1.4-0.6-2.5-1.6-3.5-2.7c-0.9-1.2-1.7-2.5-2.2-4c-0.5-1.5-0.8-3.2-0.8-5
			c0-1.7,0.2-3.4,0.8-4.9c0.5-1.5,1.2-2.9,2.2-4c1-1.2,2.1-2.1,3.5-2.7c1.4-0.6,2.9-1,4.6-1c2.2,0,4.2,0.5,5.9,1.6s3,2.8,3.8,5.1
			l-2.8,1.1c-0.5-1.6-1.4-2.8-2.5-3.7c-1.2-0.9-2.6-1.4-4.3-1.4c-1.8,0-3.3,0.5-4.4,1.4c-1.2,0.9-2,2.1-2.6,3.6
			c-0.6,1.5-0.9,3.1-0.9,4.9c0,1.7,0.3,3.4,0.9,4.9c0.6,1.5,1.5,2.7,2.6,3.7c1.2,0.9,2.6,1.4,4.4,1.4c1.7,0,3.1-0.5,4.3-1.4
			c1.2-0.9,2-2.1,2.5-3.8l2.8,1.1c-0.8,2.2-2,3.9-3.8,5C353.8,162.7,351.8,163.3,349.5,163.3z M348,135.1l5.4-7h3.4l-6.3,7H348z"/>
		<path d="M362.6,170.7l5.4-14.9h3.5l-6.7,14.9H362.6z"/>
		<path d="M389.9,162.9v-34.9h3.2v34.9H389.9z M392.4,151.5v-4.2l18.4-19.2h4.4L392.4,151.5z M411.5,162.9l-12.2-19.4l2.4-2.2
			l13.7,21.6H411.5z"/>
		<path d="M427.9,163.3c-1.8,0-3.4-0.3-4.8-1s-2.4-1.5-3.1-2.6c-0.7-1.1-1.1-2.4-1.1-3.9c0-1.3,0.3-2.5,0.8-3.4
			c0.5-0.9,1.2-1.6,2-2.2c0.9-0.6,1.9-1,3.1-1.2c1.1-0.2,2.4-0.3,3.7-0.3h8.2v2.4H429c-1,0-1.9,0.1-2.8,0.2c-0.9,0.2-1.7,0.5-2.3,1
			c-0.5,0.4-0.9,0.8-1.2,1.4c-0.3,0.6-0.4,1.3-0.4,2.1c0,1.5,0.5,2.7,1.6,3.6c1.1,0.9,2.6,1.3,4.4,1.3c1.5,0,2.9-0.4,4.1-1.1
			c1.2-0.7,2.2-1.7,3-3c0.8-1.3,1.1-2.7,1.1-4.2l1.3,1.5c-0.2,1.9-0.7,3.5-1.6,4.9c-0.9,1.4-2.1,2.5-3.5,3.3
			C431.2,162.9,429.7,163.3,427.9,163.3z M436.6,162.9l-0.2-5.6v-9.8c0-2.3-0.6-4-1.8-5.1c-1.2-1.2-2.9-1.8-5.2-1.8
			c-1.5,0-2.8,0.3-4,0.9c-1.2,0.6-2.4,1.6-3.5,3l-2.3-2c1.3-1.6,2.8-2.8,4.5-3.5s3.5-1.1,5.6-1.1c3.1,0,5.5,0.8,7.2,2.5
			s2.5,4,2.5,7.2v15.4H436.6z"/>
		<path d="M446.7,162.9v-24.6h3.2v6.4h-0.6c0.3-1.2,0.7-2.2,1.2-3c0.5-0.8,1.1-1.5,1.8-2.1c0.7-0.5,1.5-1,2.3-1.2
			c0.8-0.3,1.7-0.4,2.6-0.4c1.5,0,2.8,0.3,3.9,0.8c1.1,0.5,2,1.4,2.7,2.5c0.7,1.1,1.2,2.6,1.5,4.4l-1.8,0.1c0.5-1.7,1.1-3.1,1.8-4.3
			s1.7-2,2.8-2.6c1.1-0.6,2.5-0.9,4-0.9c2,0,3.6,0.5,4.8,1.4c1.2,0.9,2.1,2.1,2.6,3.7c0.5,1.5,0.8,3.3,0.8,5.2v14.7h-3.2v-14
			c0-1.7-0.2-3.2-0.5-4.4c-0.4-1.2-1-2.2-1.8-2.9c-0.8-0.7-2-1-3.4-1c-1.2,0-2.3,0.3-3.3,1c-0.9,0.6-1.7,1.6-2.2,3
			c-0.5,1.3-0.8,3-0.8,5v13.3h-3.2v-14.5c0-2.6-0.5-4.6-1.4-5.9c-1-1.3-2.4-1.9-4.2-1.9c-1.2,0-2.3,0.3-3.3,1c-1,0.7-1.7,1.7-2.2,3
			c-0.5,1.4-0.8,3.1-0.8,5.2v13H446.7z"/>
		<path d="M495.5,163.3c-1.7,0-3.2-0.4-4.5-1.1c-1.3-0.7-2.2-1.8-2.9-3.2c-0.7-1.4-1-3.2-1-5.4v-15.4h3.2v14.2
			c0,1.8,0.2,3.3,0.7,4.5c0.5,1.2,1.1,2.1,2,2.6c0.9,0.6,2,0.9,3.4,0.9c1.5,0,2.7-0.4,3.8-1.1c1-0.7,1.8-1.8,2.4-3.2
			c0.6-1.4,0.8-3.3,0.8-5.5v-12.5h3.2v24.6h-3.2v-5.8h0.8c-0.6,2-1.7,3.6-3.2,4.6C499.3,162.7,497.6,163.3,495.5,163.3z"/>
		<path d="M521.8,163.3c-1.6,0-3.1-0.2-4.4-0.8c-1.3-0.5-2.5-1.2-3.4-2c-1-0.9-1.7-1.8-2.2-2.8l2.2-1.8c0.6,1.4,1.6,2.5,3,3.4
			c1.4,0.9,3,1.3,4.8,1.3c1.8,0,3.2-0.4,4.2-1.2c1.1-0.8,1.6-1.9,1.6-3.2c0-1.1-0.3-2-1-2.6c-0.7-0.6-1.5-1.1-2.5-1.5
			c-1-0.4-2.1-0.7-3.3-1c-0.9-0.2-1.9-0.5-2.8-0.8c-0.9-0.3-1.8-0.7-2.5-1.2c-0.8-0.5-1.3-1.1-1.8-1.9c-0.4-0.8-0.7-1.7-0.7-2.9
			c0-1.9,0.8-3.5,2.3-4.7c1.5-1.2,3.5-1.8,5.9-1.8c1.8,0,3.5,0.4,5,1.2c1.5,0.8,2.7,2,3.5,3.6l-2,1.5c-0.7-1.3-1.6-2.2-2.8-2.8
			c-1.1-0.6-2.4-0.9-3.8-0.9c-1.5,0-2.7,0.3-3.7,1c-1,0.7-1.5,1.6-1.5,2.7c0,0.8,0.2,1.5,0.7,2c0.5,0.5,1.1,0.9,2,1.3
			c0.9,0.3,1.9,0.6,3,0.9c1.1,0.2,2.1,0.5,3.2,0.8c1,0.3,2,0.8,2.9,1.3c0.9,0.5,1.6,1.2,2.1,2.1c0.5,0.9,0.8,2,0.8,3.3
			c0,1.5-0.4,2.8-1.1,3.9c-0.7,1.1-1.8,2-3.1,2.6C525.2,163,523.6,163.3,521.8,163.3z"/>
		<path d="M533.6,140.8v-2.5h14.5v2.5H533.6z M544.6,163.3c-1.1,0-2.1-0.2-2.9-0.6c-0.8-0.4-1.5-1.1-1.9-2c-0.5-0.9-0.7-2.1-0.7-3.5
			v-25.9l3.2-1.8v27c0,1.3,0.2,2.4,0.7,3.1s1.2,1.1,2.4,1.1c0.4,0,0.8,0,1.3-0.1c0.5-0.1,1-0.2,1.5-0.3v2.5
			c-0.6,0.2-1.2,0.4-1.8,0.5C545.7,163.2,545.1,163.3,544.6,163.3z"/>
		<path d="M561.2,163.3c-1.8,0-3.4-0.3-4.8-1s-2.4-1.5-3.1-2.6c-0.7-1.1-1.1-2.4-1.1-3.9c0-1.3,0.3-2.5,0.8-3.4
			c0.5-0.9,1.2-1.6,2-2.2c0.9-0.6,1.9-1,3.1-1.2c1.1-0.2,2.4-0.3,3.7-0.3h8.2v2.4h-7.8c-1,0-1.9,0.1-2.8,0.2c-0.9,0.2-1.7,0.5-2.3,1
			c-0.5,0.4-0.9,0.8-1.2,1.4c-0.3,0.6-0.4,1.3-0.4,2.1c0,1.5,0.5,2.7,1.6,3.6c1.1,0.9,2.6,1.3,4.4,1.3c1.5,0,2.9-0.4,4.1-1.1
			c1.2-0.7,2.2-1.7,3-3c0.8-1.3,1.1-2.7,1.1-4.2l1.3,1.5c-0.2,1.9-0.7,3.5-1.6,4.9c-0.9,1.4-2.1,2.5-3.5,3.3
			C564.5,162.9,562.9,163.3,561.2,163.3z M569.9,162.9l-0.2-5.6v-9.8c0-2.3-0.6-4-1.8-5.1c-1.2-1.2-2.9-1.8-5.2-1.8
			c-1.5,0-2.8,0.3-4,0.9c-1.2,0.6-2.4,1.6-3.5,3l-2.3-2c1.3-1.6,2.8-2.8,4.5-3.5s3.5-1.1,5.6-1.1c3.1,0,5.5,0.8,7.2,2.5
			s2.5,4,2.5,7.2v15.4H569.9z"/>
		<path d="M577.4,170.7l5.4-14.9h3.5l-6.7,14.9H577.4z"/>
		<path d="M18.8,204.4c-3.1,0-5.9-0.7-8.2-2.2s-4.2-3.6-5.5-6.3s-2-5.8-2-9.4c0-3.6,0.7-6.7,2-9.4c1.3-2.7,3.2-4.8,5.6-6.2
			c2.4-1.5,5.1-2.2,8.3-2.2c3.4,0,6.4,0.8,8.9,2.5c2.5,1.7,4.3,4,5.4,7l-3.1,1.1c-0.9-2.3-2.3-4.2-4.2-5.5c-1.9-1.3-4.2-2-7-2
			c-2.5,0-4.7,0.6-6.6,1.8c-1.9,1.2-3.3,2.9-4.4,5.1c-1,2.2-1.6,4.8-1.6,7.8c0,3,0.5,5.7,1.6,7.9c1,2.2,2.5,3.9,4.4,5.1
			c1.9,1.2,4.1,1.8,6.6,1.8c1.3,0,2.6-0.2,3.9-0.5c1.3-0.3,2.5-1,3.7-1.8c1.1-0.9,2-2.1,2.7-3.6c0.7-1.5,1-3.4,1-5.8v-2.9l0.8,2.2
			h-9.7v-3h11.9v17.9h-2.9l-0.5-7.4l0.5,0.3c-0.6,1.8-1.4,3.2-2.6,4.3c-1.2,1.1-2.6,1.9-4.1,2.4C22.1,204.1,20.5,204.4,18.8,204.4z"
			/>
		<path d="M40.3,203.9v-24.6h3.2v6.5l-0.8,0.1c0.3-1.5,0.9-2.8,1.8-3.8s2-1.8,3.1-2.4c1.2-0.6,2.4-0.8,3.5-0.8c0.7,0,1.3,0.1,2,0.2
			c0.7,0.1,1.3,0.4,2,0.7l-1.6,2.8c-0.4-0.2-0.9-0.4-1.4-0.5c-0.5-0.1-1.1-0.2-1.6-0.2c-0.9,0-1.7,0.2-2.6,0.5
			c-0.9,0.3-1.7,0.9-2.4,1.6c-0.7,0.7-1.2,1.7-1.6,2.9c-0.1,0.5-0.2,1.1-0.3,1.9c-0.1,0.7-0.1,1.8-0.1,3.1v12H40.3z"/>
		<path d="M68,204.3c-1.7,0-3.2-0.4-4.5-1.1c-1.3-0.7-2.2-1.8-2.9-3.2c-0.7-1.4-1-3.2-1-5.4v-15.3h3.2v14.2c0,1.8,0.2,3.3,0.7,4.5
			c0.5,1.2,1.1,2.1,2.1,2.7c0.9,0.6,2,0.9,3.4,0.9c1.5,0,2.7-0.4,3.8-1.1c1-0.7,1.8-1.8,2.4-3.2c0.5-1.4,0.8-3.3,0.8-5.5v-12.5H79
			v24.6h-3.2v-5.8h0.8c-0.6,2-1.7,3.6-3.2,4.6C71.8,203.7,70.1,204.3,68,204.3z M62.9,174.5v-5.4h3.8v5.4H62.9z M71.9,174.5v-5.4
			h3.8v5.4H71.9z"/>
		<path d="M96.6,204.3c-1.8,0-3.5-0.3-4.9-1c-1.4-0.6-2.6-1.5-3.5-2.7c-0.9-1.1-1.6-2.5-2.1-4c-0.5-1.5-0.7-3.2-0.7-4.9
			c0-1.8,0.2-3.4,0.7-5c0.5-1.5,1.2-2.9,2.1-4.1c0.9-1.2,2.1-2.1,3.4-2.8c1.4-0.7,2.9-1,4.7-1c1.9,0,3.5,0.3,4.8,1
			c1.4,0.6,2.5,1.5,3.3,2.6c0.9,1.1,1.5,2.3,1.9,3.7c0.4,1.3,0.6,2.7,0.6,4.1c0,0.3,0,0.6,0,1c0,0.4-0.1,0.8-0.1,1.1H88.4
			c0.1,2.8,0.8,5,2.3,6.6s3.4,2.3,5.9,2.3c1.6,0,2.9-0.2,4-0.7c1.1-0.5,2.2-1.3,3.2-2.4l2.2,2c-0.9,1-1.9,1.7-2.9,2.3
			c-1,0.6-2,1-3.1,1.3C99.1,204.1,97.9,204.3,96.6,204.3z M103.7,190.8c0.1-0.3,0.1-0.5,0.1-0.8s0-0.6,0-0.8c0-0.9-0.1-1.8-0.4-2.6
			c-0.3-0.9-0.7-1.7-1.3-2.5c-0.6-0.7-1.4-1.3-2.4-1.8c-1-0.5-2.1-0.7-3.5-0.7c-1.5,0-2.9,0.4-4,1.1c-1.1,0.8-2,1.8-2.7,3.1
			c-0.6,1.3-1,2.7-1.1,4.3h16.3L103.7,190.8z"/>
		<path d="M111.2,203.9v-2.3l16.5-20.4l0.1,0.6H112v-2.5h18.8v2.5l-16.4,20.4l-0.1-0.9h16.4v2.6H111.2z"/>
		<path d="M136.1,174.5v-5.4h3.8v5.4H136.1z M136.4,203.9v-24.6h3.1v24.6H136.4z"/>
		<path d="M144.5,211.7l5.4-14.9h3.5l-6.7,14.9H144.5z"/>
		<path d="M171.8,203.9v-34.8h4.9l11.9,28.8h-0.6l12-28.8h4.8v34.8h-3.2v-31.1l0.2,0.1L189.9,201h-3.2l-11.8-28.1l0.2-0.1v31.1
			H171.8z"/>
		<path d="M222.6,204.3c-1.8,0-3.5-0.3-4.9-1c-1.4-0.6-2.6-1.5-3.5-2.7c-0.9-1.1-1.6-2.5-2.1-4c-0.5-1.5-0.7-3.2-0.7-4.9
			c0-1.8,0.2-3.4,0.7-5c0.5-1.5,1.2-2.9,2.1-4.1c0.9-1.2,2.1-2.1,3.4-2.8c1.4-0.7,2.9-1,4.7-1c1.9,0,3.5,0.3,4.8,1
			c1.4,0.6,2.5,1.5,3.3,2.6c0.9,1.1,1.5,2.3,1.9,3.7c0.4,1.3,0.6,2.7,0.6,4.1c0,0.3,0,0.6,0,1c0,0.4-0.1,0.8-0.1,1.1h-18.2
			c0.1,2.8,0.8,5,2.3,6.6s3.4,2.3,5.9,2.3c1.6,0,2.9-0.2,4-0.7c1.1-0.5,2.2-1.3,3.2-2.4l2.2,2c-0.9,1-1.9,1.7-2.9,2.3
			c-1,0.6-2,1-3.1,1.3C225.1,204.1,223.9,204.3,222.6,204.3z M229.7,190.8c0.1-0.3,0.1-0.5,0.1-0.8s0-0.6,0-0.8
			c0-0.9-0.1-1.8-0.4-2.6c-0.3-0.9-0.7-1.7-1.3-2.5c-0.6-0.7-1.4-1.3-2.4-1.8c-1-0.5-2.1-0.7-3.5-0.7c-1.5,0-2.9,0.4-4,1.1
			c-1.1,0.8-2,1.8-2.7,3.1c-0.6,1.3-1,2.7-1.1,4.3h16.3L229.7,190.8z"/>
		<path d="M239.1,203.9v-24.6h3.2v6.5l-0.8,0.1c0.3-1.5,0.9-2.8,1.8-3.8s2-1.8,3.1-2.4c1.2-0.6,2.4-0.8,3.5-0.8c0.7,0,1.3,0.1,2,0.2
			c0.7,0.1,1.3,0.4,2,0.7l-1.6,2.8c-0.4-0.2-0.9-0.4-1.4-0.5c-0.5-0.1-1.1-0.2-1.6-0.2c-0.9,0-1.7,0.2-2.6,0.5
			c-0.9,0.3-1.7,0.9-2.4,1.6c-0.7,0.7-1.2,1.7-1.6,2.9c-0.1,0.5-0.2,1.1-0.3,1.9c-0.1,0.7-0.1,1.8-0.1,3.1v12H239.1z"/>
		<path d="M258.7,203.9v-34.8h3.2v16l-0.8,0.2c0.4-1.4,1.1-2.5,1.9-3.5c0.8-0.9,1.8-1.6,2.9-2.1c1.1-0.5,2.4-0.8,3.7-0.8
			c2.7,0,4.8,0.8,6.3,2.4c1.5,1.6,2.2,4,2.2,7.2v15.4h-3.1v-14.2c0-2.7-0.5-4.8-1.5-6c-1-1.3-2.5-2-4.6-2c-2.1,0-3.8,0.8-5.1,2.4
			s-1.9,4.1-1.9,7.6v12.2H258.7z"/>
		<path d="M293,204.3c-1.8,0-3.4-0.3-4.8-1s-2.4-1.5-3.1-2.6c-0.7-1.1-1.1-2.4-1.1-3.9c0-1.3,0.3-2.5,0.8-3.4c0.5-0.9,1.2-1.6,2-2.2
			c0.9-0.6,1.9-1,3.1-1.2c1.1-0.2,2.4-0.3,3.7-0.3h8.2v2.4h-7.8c-1,0-1.9,0.1-2.8,0.2c-0.9,0.2-1.7,0.5-2.3,1
			c-0.5,0.4-0.9,0.8-1.2,1.4c-0.3,0.6-0.4,1.3-0.4,2.1c0,1.5,0.5,2.7,1.6,3.6c1.1,0.9,2.6,1.3,4.4,1.3c1.5,0,2.9-0.4,4.1-1.1
			c1.2-0.7,2.2-1.7,3-3c0.8-1.3,1.1-2.7,1.1-4.2l1.4,1.5c-0.2,1.9-0.7,3.5-1.6,5c-0.9,1.4-2.1,2.5-3.5,3.3
			C296.3,203.9,294.8,204.3,293,204.3z M301.7,203.9l-0.2-5.6v-9.8c0-2.3-0.6-4-1.8-5.1c-1.2-1.2-2.9-1.8-5.1-1.8
			c-1.5,0-2.8,0.3-4,0.9c-1.2,0.6-2.4,1.6-3.5,3l-2.3-2c1.3-1.6,2.8-2.8,4.5-3.5s3.5-1.1,5.6-1.1c3.1,0,5.5,0.8,7.2,2.5
			c1.7,1.6,2.5,4,2.5,7.2v15.3H301.7z"/>
		<path d="M323.6,204.3c-1.6,0-3.1-0.3-4.4-1c-1.3-0.6-2.4-1.6-3.3-2.7s-1.6-2.5-2-4l1-0.4v7.8h-3.1v-34.8h3.1V187l-0.9-0.5
			c0.4-1.4,1-2.7,1.9-3.8c0.9-1.1,2-2,3.3-2.7c1.3-0.7,2.8-1,4.4-1c2.1,0,4,0.5,5.7,1.6c1.7,1,3,2.5,4,4.4s1.5,4.1,1.5,6.6
			c0,2.4-0.5,4.6-1.4,6.5c-1,1.9-2.3,3.4-4,4.5C327.8,203.7,325.8,204.3,323.6,204.3z M323.1,201.4c1.7,0,3.1-0.4,4.4-1.3
			c1.3-0.8,2.3-2,3-3.5c0.7-1.5,1.1-3.2,1.1-5c0-1.9-0.4-3.6-1.1-5c-0.7-1.5-1.7-2.6-3-3.5c-1.3-0.8-2.8-1.2-4.4-1.2
			c-1.7,0-3.1,0.4-4.4,1.2c-1.3,0.8-2.3,2-3,3.5c-0.7,1.5-1.1,3.1-1.1,5c0,1.9,0.4,3.6,1.1,5c0.7,1.5,1.7,2.6,3,3.5
			C320,200.9,321.5,201.4,323.1,201.4z"/>
		<path d="M348.9,204.3c-1.8,0-3.4-0.3-4.8-1c-1.4-0.6-2.4-1.5-3.1-2.6c-0.7-1.1-1.1-2.4-1.1-3.9c0-1.3,0.3-2.5,0.8-3.4
			s1.2-1.6,2-2.2c0.9-0.6,1.9-1,3.1-1.2c1.1-0.2,2.4-0.3,3.7-0.3h8.2v2.4H350c-1,0-1.9,0.1-2.8,0.2c-0.9,0.2-1.7,0.5-2.3,1
			c-0.5,0.4-0.9,0.8-1.2,1.4c-0.3,0.6-0.4,1.3-0.4,2.1c0,1.5,0.5,2.7,1.6,3.6c1.1,0.9,2.6,1.3,4.4,1.3c1.5,0,2.9-0.4,4.1-1.1
			c1.2-0.7,2.2-1.7,3-3c0.8-1.3,1.1-2.7,1.1-4.2l1.4,1.5c-0.2,1.9-0.7,3.5-1.6,5c-0.9,1.4-2.1,2.5-3.5,3.3
			C352.2,203.9,350.7,204.3,348.9,204.3z M357.6,203.9l-0.2-5.6v-9.8c0-2.3-0.6-4-1.8-5.1c-1.2-1.2-2.9-1.8-5.1-1.8
			c-1.5,0-2.8,0.3-4,0.9c-1.2,0.6-2.4,1.6-3.5,3l-2.3-2c1.3-1.6,2.8-2.8,4.5-3.5c1.6-0.8,3.5-1.1,5.6-1.1c3.1,0,5.5,0.8,7.2,2.5
			c1.7,1.6,2.5,4,2.5,7.2v15.3H357.6z"/>
		<path d="M365.2,211.7l5.4-14.9h3.5l-6.7,14.9H365.2z"/>
		<path d="M409.8,179.6v2.8h-5.9v22.2h-0.4l-2.7-2.7V191h-6.3c-0.9,0-1.5,0.2-1.7,0.5c-0.2,0.3-0.3,1.1-0.3,2.1c0,0.5,0,1.2,0.1,1.8
			c0,0.4,0.1,0.8,0.1,1.2c0,0.6-0.2,0.9-0.7,0.9c-0.6,0-1.5-0.9-2.6-2.7c-1.2-1.8-1.7-3.2-1.7-4.2c0-0.7,0.2-1.3,0.7-1.8
			c0.5-0.4,1-0.7,1.7-0.7h10.8v-5.9h-15v-2.8H409.8z"/>
		<path d="M434.9,179.6v2.8h-5.9v22.2h-0.9l-2.2-2.6v-7.9h-8v3.3c0,0.8-0.3,1.2-0.8,1.2c-0.5,0-1.6-0.9-3.4-2.8s-2.6-3.2-2.6-3.8
			c0-0.4,0.3-0.6,0.9-0.6h2.8v-9H409v-2.8H434.9z M417.8,191.4h8v-9h-8V191.4z"/>
		<path d="M460.5,179.6v2.8h-5.9v22.2h-0.9l-2.2-2.5v-10.2c-1.8,0.9-3.3,1.4-4.3,1.4c-1.4,0-3-0.4-4.9-1.1c-0.8,1.7-1.6,2.9-2.5,3.7
			c1.3,1.6,2.5,3,3.6,4.2c1.1,1.3,2.1,2.4,3,3.3l-0.6,0.7c-1.9-2-3.5-3.8-4.8-5.2c-1.3-1.5-2.3-2.7-3-3.7c-1.4-2-2.1-3.5-2.1-4.6
			c0-0.7,0.2-1.2,0.5-1.5s0.8-0.5,1.4-0.5c0.7,0,1.5,0.2,2.5,0.7c0.6-0.9,0.9-2.1,0.9-3.7c0-1-0.3-2-0.8-3.1h-6.3v-2.8H460.5z
			 M451.5,182.3h-8.7c0.5,1.2,0.7,2.6,0.7,4c0,1-0.2,2.3-0.5,3.8c1.9,0.7,3.4,1,4.6,1s2.1-0.3,2.8-0.9s1.1-1.3,1.1-2.1V182.3z"/>
		<path d="M461,214.7h-0.9c-0.6-2.1-1.6-3.7-3.2-4.9s-3.4-1.8-5.4-1.8c-0.3,0-0.5,0-0.8,0l-1-3.1c3-0.2,5.4,0.6,7.4,2.3
			S460.4,211.6,461,214.7z"/>
		<path d="M483.4,179.6v2.8h-5.9v22.2h-0.9l-2.1-2.5v-12.3h-4.8c-2.1,0-3.5,0.3-4.4,1c-0.8,0.7-1.2,1.6-1.2,2.9
			c0,1.3,0.5,2.7,1.6,4.2c1,1.5,2.8,3.5,5.1,5.9l-0.7,0.6c-3.3-3.2-5.5-5.7-6.5-7.4c-1-1.7-1.5-3.4-1.5-5.1c0-1.5,0.4-2.6,1.2-3.5
			c0.8-0.9,2.2-1.3,4.2-1.3h7v-4.6h-15v-2.8H483.4z"/>
		<path d="M462.6,171.7l-1.2-3.3h2c1.1,0,2.2,0.2,3.3,0.6c1,0.4,2,0.9,2.8,1.7s2,2,3.3,3.9l4,5.5h-1.2l-3.3-4.3
			c-1.1-1.4-2.1-2.4-3.2-3.1c-1-0.6-2.3-1-3.9-1H462.6z"/>
		<path d="M484,211.7l5.4-14.9h3.5l-6.7,14.9H484z"/>
		<path d="M509.3,203.9l12.2-17.5l-11.9-17.3h3.9l10.2,15l10.3-15h3.9l-12,17.3l12.2,17.5h-3.9l-10.5-15.1l-10.5,15.1H509.3z"/>
		<path d="M542.6,174.5v-5.4h3.8v5.4H542.6z M542.9,203.9v-24.6h3.2v24.6H542.9z"/>
		<path d="M553.5,203.9v-24.6h3.2v5.8l-0.8,0.2c0.4-1.4,1-2.5,1.9-3.5c0.8-0.9,1.8-1.6,2.9-2.1c1.1-0.5,2.4-0.8,3.7-0.8
			c2.7,0,4.8,0.8,6.2,2.4c1.5,1.6,2.2,4,2.2,7.2v15.4h-3.2v-14.2c0-2.7-0.5-4.8-1.5-6c-1-1.3-2.5-2-4.6-2c-1.4,0-2.6,0.3-3.7,1
			c-1,0.7-1.9,1.8-2.4,3.2c-0.6,1.5-0.9,3.4-0.9,5.8v12.2H553.5z"/>
		<path d="M14.2,245.3c-1.7,0-3.3-0.3-4.6-1c-1.4-0.6-2.5-1.6-3.5-2.7c-0.9-1.2-1.7-2.5-2.2-4s-0.8-3.2-0.8-5c0-1.7,0.2-3.4,0.8-4.9
			c0.5-1.5,1.2-2.9,2.2-4c1-1.2,2.1-2.1,3.5-2.7c1.4-0.7,2.9-1,4.6-1c2.2,0,4.2,0.5,5.9,1.7c1.7,1.1,3,2.8,3.8,5l-2.9,1.1
			c-0.5-1.6-1.4-2.8-2.5-3.7c-1.2-0.9-2.6-1.4-4.3-1.4c-1.8,0-3.3,0.5-4.4,1.4c-1.2,0.9-2,2.1-2.6,3.6c-0.6,1.5-0.9,3.1-0.9,4.9
			s0.3,3.4,0.9,4.9c0.6,1.5,1.5,2.7,2.6,3.7c1.2,0.9,2.6,1.4,4.4,1.4c1.7,0,3.1-0.5,4.3-1.4c1.2-0.9,2-2.1,2.5-3.8l2.9,1.1
			c-0.8,2.2-2,3.9-3.8,5C18.4,244.7,16.4,245.3,14.2,245.3z"/>
		<path d="M29.7,244.9v-34.8h3.2v16l-0.8,0.2c0.4-1.4,1.1-2.5,1.9-3.5c0.8-0.9,1.8-1.7,2.9-2.2c1.1-0.5,2.4-0.8,3.7-0.8
			c2.7,0,4.8,0.8,6.3,2.4c1.5,1.6,2.2,4,2.2,7.2v15.4H46v-14.2c0-2.7-0.5-4.8-1.5-6c-1-1.3-2.5-2-4.6-2c-2.1,0-3.8,0.8-5.1,2.4
			c-1.2,1.6-1.9,4.1-1.9,7.6v12.2H29.7z"/>
		<path d="M64.1,245.3c-1.8,0-3.4-0.3-4.8-1s-2.4-1.5-3.1-2.6c-0.7-1.1-1.1-2.4-1.1-3.9c0-1.3,0.3-2.5,0.8-3.4
			c0.5-0.9,1.2-1.6,2-2.2c0.9-0.6,1.9-1,3.1-1.2c1.1-0.2,2.4-0.3,3.7-0.3h8.2v2.4h-7.8c-1,0-1.9,0.1-2.8,0.2c-0.9,0.2-1.7,0.5-2.3,1
			c-0.5,0.4-0.9,0.8-1.2,1.4c-0.3,0.6-0.4,1.3-0.4,2.1c0,1.5,0.5,2.7,1.6,3.6c1.1,0.9,2.6,1.3,4.4,1.3c1.5,0,2.9-0.4,4.1-1.1
			c1.2-0.7,2.2-1.7,3-3c0.8-1.3,1.1-2.7,1.1-4.2l1.4,1.5c-0.2,1.9-0.7,3.5-1.6,5c-0.9,1.4-2.1,2.5-3.5,3.3
			C67.4,244.9,65.8,245.3,64.1,245.3z M72.8,244.9l-0.2-5.6v-9.8c0-2.3-0.6-4-1.8-5.2c-1.2-1.2-2.9-1.8-5.1-1.8
			c-1.5,0-2.8,0.3-4,0.9c-1.2,0.6-2.4,1.6-3.5,3l-2.3-2c1.3-1.6,2.8-2.8,4.5-3.5s3.5-1.1,5.6-1.1c3.1,0,5.5,0.8,7.2,2.5
			c1.7,1.6,2.5,4,2.5,7.2v15.3H72.8z M64.9,217.1l-6.1-7h3.4l5.2,7H64.9z"/>
		<path d="M93.5,245.3c-2.3,0-4.3-0.5-6.1-1.6s-3.2-2.6-4.2-4.5s-1.5-4.1-1.5-6.6s0.5-4.7,1.5-6.5c1-1.9,2.4-3.4,4.1-4.5
			c1.8-1.1,3.8-1.6,6.1-1.6s4.3,0.5,6.1,1.6c1.8,1.1,3.1,2.6,4.1,4.5c1,1.9,1.5,4.1,1.5,6.5s-0.5,4.7-1.5,6.6
			c-1,1.9-2.4,3.4-4.2,4.5C97.8,244.7,95.7,245.3,93.5,245.3z M93.5,242.5c1.7,0,3.2-0.4,4.5-1.2c1.3-0.8,2.3-2,3-3.5
			c0.7-1.5,1-3.2,1-5.2c0-2-0.3-3.7-1-5.2c-0.7-1.5-1.7-2.6-3-3.4c-1.3-0.8-2.8-1.2-4.5-1.2c-1.7,0-3.2,0.4-4.5,1.2
			c-1.3,0.8-2.3,2-3,3.5s-1.1,3.2-1.1,5.2c0,2,0.4,3.7,1.1,5.2c0.7,1.5,1.7,2.6,3,3.5C90.2,242,91.7,242.5,93.5,242.5z"/>
		<path d="M109,252.7l5.4-14.9h3.5l-6.7,14.9H109z"/>
		<path d="M139.9,240.7c-2.7,0-4,1.1-4,1.8c0,2.5,1.8,7.2,3.1,12.4c0.1,0.6,0.3,1.5,0.3,2.2c0,1.2-0.3,2.4-0.6,3.6l-0.6-0.1
			c0-2.9-2-7.8-3.6-12.9c-0.2-0.8-0.5-2-0.5-2.8c0-1.1,0.2-2.2,0.6-3.2c0.5-1.4,1.2-2.5,2.2-3.2c-0.2-1.1-0.4-2.3-0.4-3.2
			c0-1,0.7-2.3,1.4-2.9s1.4-1,2.3-1c1.1,0,2.1,0.3,3.1,1.1c1.5,1.3,2.8,2.9,3.7,4.8c0.2,0.4,0.3,1.1,0.3,1.6c0,0.8-0.4,1.9-0.8,2.6
			C144.4,241,142.2,240.7,139.9,240.7z M144.8,237.9c-1.4-1.9-2.9-3.7-5.2-3.7c-0.5,0-1,0.1-1.5,0.3l0.1,1.3
			c-0.1,0.9-0.4,1.8-0.6,2.3c0.9-0.3,2.1-0.4,3.3-0.4c0.8,0,2.4,0.2,3.8,0.5L144.8,237.9z"/>
		<path d="M159.6,232.3l1.7,3.3c0.6,1.2,1.2,2.5,1.2,4.6v2.7c0,2.2-1.2,4.5-3.1,6.8c-1.5,1.6-2.8,2.2-4,2.2c-1.8,0-3.9-0.7-6.3-1.9
			l0.3-0.8c0.8,0.2,1.6,0.4,2.7,0.4c3.4,0,7-3,8.6-6.6c0.2-0.4,0.3-0.8,0.3-1.1c0-0.4-0.2-0.9-0.3-1.3c-0.9-2-1.9-3.7-2.9-5.4
			c0.6-1,1.1-2.1,1.7-3.1L159.6,232.3z"/>
		<path d="M177.9,236.9c-2.8-1-4.5-1.4-6.8-1.4c-1.4,0-2.4,0.4-3.1,1.2l0.5,2.1l-0.7,1.9l-0.3,0.1l-1.4-3.9c0.2-2.7,2.4-4.4,5.3-4.4
			c1.6,0,4.2,0.6,8,2.1c1.2,0.5,2.4,0.8,4.2,0.8l2.1,0l0,0l-1.5,2.5c-1.7,0.2-5.4,1.2-6.5,1.6c-5.3,2-9,4.9-9,8.1
			c0,5.1,5.4,8,12.2,8c2.2,0,4.3-0.2,6.3-0.5l0.1,0.2c-1.2,1-2.6,2.1-4,2.9c-1.3,0.2-2.9,0.4-4.6,0.4c-6.4,0-11.8-3.1-11.8-9.9
			C166.9,243,171.8,238.4,177.9,236.9L177.9,236.9z"/>
		<path d="M201.6,245.9c-6.8,0-12-2.5-12-8.5c0-2,0.4-3.9,1.4-5.9l1,0.4c-0.5,1.4-0.7,2.6-0.7,3.7c0,4.9,4.9,7,11,7
			c2.9,0,5.6-0.4,8.3-1c1.1-0.3,2.2-0.6,3.2-1c0.2-0.1,0.2-0.2,0.2-0.3c0-1.1-1.2-3.5-2.4-6c0.6-1,1.2-2,1.8-2.8h0.1
			c1.1,2,2.4,5,2.4,7.4c0,1.8-0.6,2.9-1.3,4.1C212.7,244.3,206.4,245.9,201.6,245.9z M202.4,250.3c1,0.7,2,1.6,2.9,2.6
			c-0.5,0.9-1.2,1.7-2,2.4c-1-0.9-1.9-1.7-2.9-2.5C201.1,251.9,201.8,251,202.4,250.3z"/>
		<path d="M220.5,245.3c0.2-1.5,0.3-3.3,0.3-4.9V238c0-4.5-0.5-11-0.9-15.2c0.7-0.9,1.6-1.9,2.4-2.6l0.2,0.1
			c0.5,5.3,0.6,11.5,0.6,17.2c0,1.5,0,3-0.2,4c-0.1,1.3-0.7,2.4-2.1,3.9L220.5,245.3z"/>
		<path d="M226.6,252.7l5.4-14.9h3.5l-6.7,14.9H226.6z"/>
		<path d="M262.4,245.4c-3.2,0-5.8-1-7.8-2.8c-2-1.9-3.1-4.5-3.4-7.9l3.2-0.3c0.2,2.6,1,4.6,2.4,6c1.4,1.3,3.2,2,5.5,2
			c2.6,0,4.5-0.9,5.8-2.6s1.9-4.2,1.9-7.5V213h-14.2v-3h17.4v22.3c0,2.7-0.4,5.1-1.3,7s-2.1,3.4-3.7,4.5
			C266.7,244.9,264.7,245.4,262.4,245.4z"/>
		<path d="M288.6,245.3c-1.8,0-3.4-0.3-4.8-1s-2.4-1.5-3.1-2.6c-0.7-1.1-1.1-2.4-1.1-3.9c0-1.3,0.3-2.5,0.8-3.4
			c0.5-0.9,1.2-1.6,2-2.2c0.9-0.6,1.9-1,3.1-1.2c1.1-0.2,2.4-0.3,3.7-0.3h8.2v2.4h-7.8c-1,0-1.9,0.1-2.8,0.2c-0.9,0.2-1.7,0.5-2.3,1
			c-0.5,0.4-0.9,0.8-1.2,1.4c-0.3,0.6-0.4,1.3-0.4,2.1c0,1.5,0.5,2.7,1.6,3.6c1.1,0.9,2.6,1.3,4.4,1.3c1.5,0,2.9-0.4,4.1-1.1
			c1.2-0.7,2.2-1.7,3-3c0.8-1.3,1.1-2.7,1.1-4.2l1.4,1.5c-0.2,1.9-0.7,3.5-1.6,5c-0.9,1.4-2.1,2.5-3.5,3.3
			C291.9,244.9,290.3,245.3,288.6,245.3z M297.3,244.9l-0.2-5.6v-9.8c0-2.3-0.6-4-1.8-5.2c-1.2-1.2-2.9-1.8-5.1-1.8
			c-1.5,0-2.8,0.3-4,0.9c-1.2,0.6-2.4,1.6-3.5,3l-2.3-2c1.3-1.6,2.8-2.8,4.5-3.5s3.5-1.1,5.6-1.1c3.1,0,5.5,0.8,7.2,2.5
			c1.7,1.6,2.5,4,2.5,7.2v15.3H297.3z"/>
		<path d="M307.3,244.9v-24.6h3.2v6.3h-0.6c0.3-1.2,0.7-2.2,1.2-3c0.5-0.8,1.1-1.5,1.8-2.1c0.7-0.5,1.5-1,2.3-1.2
			c0.8-0.3,1.7-0.4,2.6-0.4c1.5,0,2.8,0.3,3.9,0.8c1.1,0.5,2,1.4,2.7,2.5s1.2,2.6,1.5,4.3l-1.8,0.1c0.5-1.7,1.1-3.1,1.8-4.3
			c0.8-1.2,1.7-2,2.8-2.6c1.1-0.6,2.5-0.9,4-0.9c2,0,3.6,0.5,4.8,1.4c1.2,0.9,2.1,2.1,2.6,3.7c0.5,1.5,0.8,3.3,0.8,5.2v14.7h-3.1
			v-14c0-1.7-0.2-3.2-0.5-4.4c-0.4-1.2-1-2.2-1.8-2.9c-0.8-0.7-2-1-3.4-1c-1.2,0-2.3,0.3-3.3,1c-1,0.6-1.7,1.6-2.2,3
			c-0.5,1.3-0.8,3-0.8,5v13.3h-3.2v-14.5c0-2.6-0.5-4.6-1.4-5.9c-1-1.3-2.4-1.9-4.2-1.9c-1.2,0-2.3,0.3-3.3,1c-1,0.7-1.7,1.7-2.2,3
			c-0.5,1.4-0.8,3.1-0.8,5.2v13H307.3z"/>
		<path d="M359.9,245.3c-1.6,0-3.1-0.3-4.4-1c-1.3-0.6-2.4-1.6-3.3-2.7c-0.9-1.2-1.6-2.5-2-4l1-0.4v7.8H348v-34.8h3.1V228l-0.8-0.5
			c0.4-1.4,1-2.7,1.9-3.8c0.9-1.1,2-2,3.3-2.7c1.3-0.7,2.8-1,4.3-1c2.1,0,4,0.5,5.7,1.6c1.7,1,3,2.5,4,4.4c1,1.9,1.5,4.1,1.5,6.7
			c0,2.4-0.5,4.6-1.4,6.5c-1,1.9-2.3,3.4-4,4.5C364,244.7,362.1,245.3,359.9,245.3z M359.4,242.4c1.7,0,3.1-0.4,4.4-1.3
			c1.3-0.8,2.3-2,3-3.5c0.7-1.5,1.1-3.2,1.1-5c0-1.9-0.4-3.6-1.1-5c-0.7-1.5-1.7-2.6-3-3.5s-2.8-1.2-4.4-1.2c-1.7,0-3.1,0.4-4.4,1.2
			s-2.3,2-3,3.5s-1.1,3.1-1.1,5c0,1.9,0.4,3.6,1.1,5s1.7,2.6,3,3.5C356.2,241.9,357.7,242.4,359.4,242.4z"/>
		<path d="M388,245.3c-2.3,0-4.3-0.5-6.1-1.6s-3.2-2.6-4.2-4.5s-1.5-4.1-1.5-6.6s0.5-4.7,1.5-6.5c1-1.9,2.4-3.4,4.1-4.5
			c1.8-1.1,3.8-1.6,6.1-1.6s4.3,0.5,6.1,1.6c1.8,1.1,3.1,2.6,4.2,4.5c1,1.9,1.5,4.1,1.5,6.5s-0.5,4.7-1.5,6.6
			c-1,1.9-2.4,3.4-4.2,4.5C392.3,244.7,390.3,245.3,388,245.3z M388,242.5c1.7,0,3.2-0.4,4.5-1.2c1.3-0.8,2.3-2,3-3.5
			c0.7-1.5,1-3.2,1-5.2c0-2-0.3-3.7-1-5.2c-0.7-1.5-1.7-2.6-3-3.4c-1.3-0.8-2.8-1.2-4.5-1.2s-3.2,0.4-4.5,1.2c-1.3,0.8-2.3,2-3,3.5
			s-1.1,3.2-1.1,5.2c0,2,0.4,3.7,1.1,5.2c0.7,1.5,1.7,2.6,3,3.5C384.8,242,386.3,242.5,388,242.5z"/>
	</g>
</g>
</svg>
