<?xml version="1.0" encoding="UTF-8"?>
<svg id="Layer_1" data-name="Layer 1" xmlns="http://www.w3.org/2000/svg" viewBox="0 0 764.54 525.75">
  <defs>
    <style>
      .cls-1 {
        fill: #1d1d1b;
        stroke-width: 0px;
      }
    </style>
  </defs>
  <path class="cls-1" d="m5.59,45.18V0h4.21v20.16h23.85V0h4.28v45.18h-4.28v-21.07H9.8v21.07h-4.21Z"/>
  <path class="cls-1" d="m61.59,45.64c-2.38,0-4.48-.41-6.32-1.23-1.84-.82-3.36-1.97-4.57-3.44-1.21-1.47-2.13-3.2-2.75-5.19-.63-1.99-.94-4.11-.94-6.35s.3-4.44.91-6.45c.6-2.01,1.5-3.78,2.69-5.32,1.19-1.53,2.66-2.73,4.41-3.6,1.75-.86,3.77-1.3,6.06-1.3,2.42,0,4.51.42,6.25,1.26,1.75.84,3.18,1.99,4.28,3.44,1.1,1.45,1.92,3.04,2.46,4.76.54,1.73.81,3.48.81,5.25,0,.35-.01.8-.03,1.36-.02.56-.08,1.04-.16,1.43h-23.66c.09,3.67,1.07,6.53,2.95,8.56,1.88,2.03,4.42,3.05,7.62,3.05,2.03,0,3.77-.31,5.22-.94,1.45-.63,2.84-1.67,4.18-3.14l2.92,2.59c-1.21,1.25-2.44,2.26-3.7,3.01-1.25.76-2.58,1.32-3.99,1.69-1.41.37-2.95.55-4.64.55Zm9.2-17.44c.09-.35.13-.7.13-1.07v-1.07c0-1.12-.18-2.27-.55-3.44-.37-1.17-.94-2.23-1.72-3.18-.78-.95-1.79-1.73-3.05-2.33-1.25-.6-2.74-.91-4.47-.91-1.99,0-3.73.5-5.22,1.49-1.49,1-2.65,2.31-3.47,3.95-.82,1.64-1.3,3.5-1.43,5.57h21.13l-1.36.97Z"/>
  <path class="cls-1" d="m81.43,58.86c-.69,0-1.43-.08-2.2-.23-.78-.15-1.58-.34-2.4-.55v-3.63c.69.26,1.31.43,1.85.52.54.09.98.13,1.33.13,1.12,0,1.97-.33,2.53-1,.56-.67.84-1.8.84-3.4V13.22h4.08v38.44c0,2.51-.54,4.33-1.62,5.48-1.08,1.14-2.55,1.72-4.41,1.72Zm1.62-51.86V0h4.86v7h-4.86Z"/>
  <path class="cls-1" d="m94.2,55.29l6.94-19.32h4.54l-8.62,19.32h-2.85Z"/>
  <path class="cls-1" d="m130.37,45.18V0h4.21v20.16h23.85V0h4.28v45.18h-4.28v-21.07h-23.85v21.07h-4.21Z"/>
  <path class="cls-1" d="m186.37,45.64c-2.38,0-4.48-.41-6.32-1.23-1.84-.82-3.36-1.97-4.57-3.44-1.21-1.47-2.13-3.2-2.75-5.19-.63-1.99-.94-4.11-.94-6.35s.3-4.44.91-6.45c.6-2.01,1.5-3.78,2.69-5.32,1.19-1.53,2.66-2.73,4.41-3.6,1.75-.86,3.77-1.3,6.06-1.3,2.42,0,4.51.42,6.25,1.26,1.75.84,3.18,1.99,4.28,3.44,1.1,1.45,1.92,3.04,2.46,4.76.54,1.73.81,3.48.81,5.25,0,.35-.01.8-.03,1.36-.02.56-.08,1.04-.16,1.43h-23.66c.09,3.67,1.07,6.53,2.95,8.56,1.88,2.03,4.42,3.05,7.62,3.05,2.03,0,3.77-.31,5.22-.94,1.45-.63,2.84-1.67,4.18-3.14l2.92,2.59c-1.21,1.25-2.44,2.26-3.7,3.01-1.25.76-2.58,1.32-3.99,1.69-1.41.37-2.95.55-4.64.55Zm9.2-17.44c.09-.35.13-.7.13-1.07v-1.07c0-1.12-.18-2.27-.55-3.44-.37-1.17-.94-2.23-1.72-3.18-.78-.95-1.79-1.73-3.05-2.33-1.25-.6-2.74-.91-4.47-.91-1.99,0-3.73.5-5.22,1.49-1.49,1-2.65,2.31-3.47,3.95-.82,1.64-1.3,3.5-1.43,5.57h21.13l-1.36.97Z"/>
  <path class="cls-1" d="m214.05,45.64c-1.81,0-3.26-.57-4.34-1.72-1.08-1.14-1.62-2.97-1.62-5.48V0h4.08v37.73c0,1.47.28,2.53.84,3.18.56.65,1.32.97,2.27.97.43,0,.91-.05,1.43-.16.52-.11,1.06-.25,1.62-.42v3.5c-.74.26-1.48.46-2.24.62-.76.15-1.44.23-2.04.23Z"/>
  <path class="cls-1" d="m230.77,45.64c-1.81,0-3.26-.57-4.34-1.72-1.08-1.14-1.62-2.97-1.62-5.48V0h4.08v37.73c0,1.47.28,2.53.84,3.18.56.65,1.32.97,2.27.97.43,0,.91-.05,1.43-.16.52-.11,1.06-.25,1.62-.42v3.5c-.74.26-1.48.46-2.24.62-.76.15-1.44.23-2.04.23Z"/>
  <path class="cls-1" d="m255.41,45.64c-2.94,0-5.56-.7-7.88-2.11-2.31-1.4-4.12-3.35-5.41-5.83-1.3-2.48-1.94-5.33-1.94-8.52s.64-6.03,1.91-8.49c1.27-2.46,3.07-4.4,5.38-5.8,2.31-1.4,4.96-2.11,7.94-2.11s5.61.7,7.88,2.11c2.27,1.4,4.06,3.34,5.38,5.8,1.32,2.46,1.98,5.29,1.98,8.49s-.66,6.04-1.98,8.52c-1.32,2.49-3.12,4.43-5.41,5.83-2.29,1.4-4.9,2.11-7.84,2.11Zm0-3.63c2.25,0,4.2-.54,5.87-1.62,1.66-1.08,2.95-2.58,3.86-4.5.91-1.92,1.36-4.16,1.36-6.71s-.45-4.85-1.36-6.77c-.91-1.92-2.19-3.41-3.86-4.47-1.66-1.06-3.62-1.59-5.87-1.59s-4.21.54-5.9,1.62c-1.69,1.08-2.99,2.57-3.92,4.47s-1.39,4.15-1.39,6.74.46,4.79,1.39,6.71c.93,1.92,2.24,3.43,3.92,4.5,1.69,1.08,3.65,1.62,5.9,1.62Z"/>
  <path class="cls-1" d="m275.76,55.29l6.94-19.32h4.54l-8.62,19.32h-2.85Z"/>
  <path class="cls-1" d="m311.93,45.18V0h13.68c4.19,0,7.48.99,9.85,2.98,2.38,1.99,3.57,4.73,3.57,8.23,0,2.33-.54,4.37-1.62,6.09-1.08,1.73-2.59,3-4.54,3.82,2.72.65,4.81,1.96,6.26,3.92,1.45,1.97,2.17,4.51,2.17,7.62,0,4.02-1.24,7.11-3.73,9.27-2.49,2.16-6.04,3.24-10.66,3.24h-14.97Zm4.21-25.28h10.63c2.42,0,4.36-.73,5.83-2.2s2.2-3.44,2.2-5.9-.81-4.4-2.43-5.8c-1.62-1.4-3.88-2.11-6.77-2.11h-9.46v16.01Zm0,21.39h10.5c6.96,0,10.44-2.94,10.44-8.82,0-2.77-.77-4.92-2.3-6.45-1.53-1.53-3.71-2.3-6.51-2.3h-12.12v17.57Z"/>
  <path class="cls-1" d="m363.53,45.64c-2.94,0-5.56-.7-7.88-2.11-2.31-1.4-4.12-3.35-5.41-5.83-1.3-2.48-1.94-5.33-1.94-8.52s.64-6.03,1.91-8.49c1.27-2.46,3.07-4.4,5.38-5.8,2.31-1.4,4.96-2.11,7.94-2.11s5.61.7,7.88,2.11c2.27,1.4,4.06,3.34,5.38,5.8,1.32,2.46,1.98,5.29,1.98,8.49s-.66,6.04-1.98,8.52c-1.32,2.49-3.12,4.43-5.41,5.83-2.29,1.4-4.9,2.11-7.84,2.11Zm0-3.63c2.25,0,4.2-.54,5.87-1.62,1.66-1.08,2.95-2.58,3.86-4.5.91-1.92,1.36-4.16,1.36-6.71s-.45-4.85-1.36-6.77c-.91-1.92-2.19-3.41-3.86-4.47-1.66-1.06-3.62-1.59-5.87-1.59s-4.21.54-5.9,1.62c-1.69,1.08-2.99,2.57-3.92,4.47s-1.39,4.15-1.39,6.74.46,4.79,1.39,6.71c.93,1.92,2.24,3.43,3.92,4.5,1.69,1.08,3.65,1.62,5.9,1.62Z"/>
  <path class="cls-1" d="m387.25,45.18V13.22h4.15v7.45l-.97.32c.56-1.77,1.36-3.26,2.4-4.47,1.04-1.21,2.28-2.14,3.73-2.79,1.45-.65,3.06-.97,4.83-.97,3.46,0,6.16,1.03,8.1,3.08,1.94,2.05,2.92,5.18,2.92,9.37v19.97h-4.08v-18.47c0-3.54-.66-6.16-1.98-7.84-1.32-1.69-3.3-2.53-5.93-2.53-1.81,0-3.4.44-4.76,1.33-1.36.89-2.41,2.29-3.14,4.21-.73,1.92-1.1,4.42-1.1,7.49v15.82h-4.15Z"/>
  <path class="cls-1" d="m420.12,58.86c-.69,0-1.43-.08-2.2-.23-.78-.15-1.58-.34-2.4-.55v-3.63c.69.26,1.31.43,1.85.52.54.09.98.13,1.33.13,1.12,0,1.97-.33,2.53-1,.56-.67.84-1.8.84-3.4V13.22h4.08v38.44c0,2.51-.54,4.33-1.62,5.48-1.08,1.14-2.55,1.72-4.41,1.72Zm1.62-51.86V0h4.86v7h-4.86Z"/>
  <path class="cls-1" d="m449.94,45.64c-2.94,0-5.56-.7-7.88-2.11-2.31-1.4-4.12-3.35-5.41-5.83-1.3-2.48-1.94-5.33-1.94-8.52s.64-6.03,1.91-8.49,3.07-4.4,5.38-5.8c2.31-1.4,4.96-2.11,7.94-2.11s5.61.7,7.88,2.11c2.27,1.4,4.06,3.34,5.38,5.8s1.98,5.29,1.98,8.49-.66,6.04-1.98,8.52c-1.32,2.49-3.12,4.43-5.41,5.83-2.29,1.4-4.9,2.11-7.84,2.11Zm0-3.63c2.25,0,4.2-.54,5.87-1.62,1.66-1.08,2.95-2.58,3.86-4.5.91-1.92,1.36-4.16,1.36-6.71s-.45-4.85-1.36-6.77c-.91-1.92-2.19-3.41-3.86-4.47-1.66-1.06-3.62-1.59-5.87-1.59s-4.21.54-5.9,1.62c-1.69,1.08-2.99,2.57-3.92,4.47s-1.39,4.15-1.39,6.74.46,4.79,1.39,6.71c.93,1.92,2.24,3.43,3.92,4.5,1.69,1.08,3.65,1.62,5.9,1.62Z"/>
  <path class="cls-1" d="m483.9,45.64c-2.25,0-4.19-.46-5.83-1.39-1.64-.93-2.91-2.31-3.79-4.15-.89-1.84-1.33-4.16-1.33-6.97V13.22h4.08v18.47c0,2.33.3,4.27.91,5.8.61,1.53,1.49,2.68,2.66,3.44,1.17.76,2.63,1.13,4.41,1.13,1.9,0,3.52-.45,4.86-1.36,1.34-.91,2.37-2.29,3.08-4.15.71-1.86,1.07-4.23,1.07-7.13V13.22h4.08v31.96h-4.08v-7.45h.97c-.82,2.64-2.22,4.61-4.18,5.93-1.97,1.32-4.27,1.98-6.9,1.98Z"/>
  <path class="cls-1" d="m508.14,45.18V13.22h4.15v8.49l-1.04.19c.35-1.99,1.1-3.65,2.27-4.99s2.53-2.37,4.08-3.08c1.55-.71,3.05-1.07,4.47-1.07.86,0,1.74.1,2.63.29.88.19,1.74.51,2.56.94l-2.01,3.69c-.56-.26-1.19-.47-1.88-.65-.69-.17-1.36-.26-2.01-.26-1.12,0-2.25.22-3.37.65-1.12.43-2.15,1.11-3.08,2.04-.93.93-1.61,2.17-2.04,3.73-.17.65-.31,1.45-.42,2.4-.11.95-.16,2.27-.16,3.95v15.62h-4.15Z"/>
  <path class="cls-1" d="m527.4,55.29l6.94-19.32h4.54l-8.62,19.32h-2.85Z"/>
  <path class="cls-1" d="m590.28,44.32c-4.22.77-9.79,1.1-14.58,1.1-4.03,0-7.53-.24-9.4-.62-5.8-1.3-8.3-4.94-8.3-9.16,0-3.69,2.06-7.39,4.89-10.27l2.78,1.44c-2.69,2.78-4.22,5.85-4.22,8.54s1.87,5.33,6,6.24c1.68.38,4.51.58,7.82.58,4.65,0,10.22-.38,14.77-1.3l.24,3.45Zm-21.54-24.23c2.49-1.92,5.9-4.27,8.49-5.56v-.05c-3.65.43-11.99.62-17.32.58,0-.91,0-2.49-.05-3.36,1.06.05,19.48.34,27.34-1.54l.38,3.55c-5.71.67-13.05,5.66-16.12,8.11l-2.73-1.73Z"/>
  <path class="cls-1" d="m595.36,45.9c3.55-10.17,9.45-27.15,11.32-32.24.91-2.59,2.16-6.24,2.49-7.44l5.18,1.34c-.24.67-.91.91-1.87.91-2.64,6.57-6.72,17.8-8.49,22.59h.05c2.83-3.45,7.15-5.9,10.51-5.9,4.17,0,6.19,2.83,6.04,7.29l-.14,5.71c-.05,3.6,1.87,5.56,4.99,5.56,4.32,0,8.3-4.94,10.51-13.19.96.67,2.11,1.3,3.12,1.78-2.64,9.16-7.39,14.92-13.77,14.92-5.08,0-8.39-3.07-8.39-7.96,0-.91.14-5.33.14-6.33,0-3.02-1.25-4.61-3.36-4.61-5.52,0-11.08,8.01-12.28,11.13-.67,1.68-1.73,4.75-2.64,7.53l-3.41-1.1Z"/>
  <path class="cls-1" d="m653.12,8.24c-.14.53-.62.82-1.58.77-1.68,7.82-2.54,16.41-2.54,21.59,0,3.6.14,7.24.62,9.5.91-2.35,2.97-7.39,3.65-9.07l2.01,2.11c-1.97,4.85-3.41,7.58-4.08,9.74-.24.82-.38,1.58-.38,2.25,0,.53.1,1.01.24,1.49l-3.41.62c-1.54-4.56-2.11-10.12-2.11-16.5s1.01-15.06,2.54-23.36l5.04.86Zm30.56,35.07c-1.73.1-3.5.14-5.28.14-3.41,0-6.62-.19-8.92-.53-5.9-.86-8.63-4.13-8.63-7.96,0-3.31,1.82-6.09,4.51-9.26l3.12,1.34c-2.4,2.49-4.08,4.8-4.08,7.53,0,5.56,8.15,5.56,13.14,5.56,2.01,0,4.17-.1,6.19-.24l-.05,3.41Zm-22.21-29.31c6.19-.14,14.54-.72,20.92-1.82l.29,3.36c-5.95,1.01-15.59,1.63-21.11,1.78l-.1-3.31Z"/>
  <path class="cls-1" d="m694.64,46.61c-1.53-3.55-2.12-10.89-2.12-17.34s1.03-14.78,2.66-23l4.78.94c-.1.49-.59.84-1.28.89-1.77,6.75-2.86,15.52-2.86,21.23,0,3.74.05,7.49.44,9.31,1.08-2.96,3.05-7.68,4.09-10l2.22,2.07c-1.63,3.35-5.07,10.84-5.07,13.15,0,.69.15,1.43.49,2.36l-3.35.39Zm12.51-29.01c4.14.05,8.27.1,12.41-.2-.2-4.24-.34-7.88-.44-11.53l4.97.15c-.05.49-.49.89-1.28,1.03.05,3.15.15,6.35.25,10.1,3.89-.39,7.04-1.08,9.65-1.97l.44,3.45c-2.36.74-5.76,1.43-9.95,1.77.2,5.47.44,11.23.59,14.38,3.74,1.53,7.49,3.94,10.05,6.26l-1.92,3.15c-2.02-2.02-4.92-4.19-7.98-5.62-.05,4.19-.84,8.87-8.23,8.87-5.76,0-9.6-2.76-9.6-7.09,0-5.02,5.07-7.24,9.6-7.24,1.53,0,3.15.2,4.68.64-.15-3.1-.44-8.27-.69-13.1-1.53.1-3.6.15-5.03.15h-7.49l-.05-3.2Zm13.5,19.36c-1.58-.49-3.25-.89-4.88-.89-3,0-6.6,1.08-6.6,4.19,0,2.76,2.95,4.14,6.55,4.14s4.98-1.77,4.98-5.71l-.05-1.72Z"/>
  <path class="cls-1" d="m739,55.29l6.94-19.32h4.54l-8.62,19.32h-2.85Z"/>
  <path class="cls-1" d="m24.19,123.62c-4.06,0-7.64-.96-10.73-2.88-3.09-1.92-5.49-4.63-7.2-8.14-1.71-3.5-2.56-7.58-2.56-12.25s.85-8.74,2.56-12.22c1.71-3.48,4.11-6.18,7.2-8.1,3.09-1.92,6.67-2.88,10.73-2.88,4.41,0,8.23,1.09,11.47,3.27,3.24,2.18,5.57,5.2,7,9.04l-3.95,1.49c-1.17-3.02-2.98-5.4-5.44-7.13-2.46-1.73-5.49-2.59-9.08-2.59-3.28,0-6.15.78-8.59,2.33-2.44,1.56-4.33,3.76-5.67,6.61-1.34,2.85-2.01,6.24-2.01,10.18s.67,7.34,2.01,10.21c1.34,2.87,3.23,5.09,5.67,6.64,2.44,1.56,5.3,2.33,8.59,2.33,3.59,0,6.61-.88,9.08-2.63,2.46-1.75,4.28-4.12,5.44-7.1l3.95,1.43c-1.43,3.85-3.76,6.87-7,9.08-3.24,2.2-7.07,3.31-11.47,3.31Z"/>
  <path class="cls-1" d="m49.28,84.79v-7h4.86v7h-4.86Zm.39,38.18v-31.96h4.08v31.96h-4.08Z"/>
  <path class="cls-1" d="m73.84,123.42c-2.38,0-4.44-.41-6.19-1.23s-3.09-1.95-4.02-3.4c-.93-1.45-1.39-3.14-1.39-5.09,0-1.73.33-3.19,1-4.38.67-1.19,1.54-2.13,2.63-2.82,1.17-.78,2.5-1.32,3.99-1.62,1.49-.3,3.1-.45,4.83-.45h10.57v3.11h-10.05c-1.25,0-2.47.11-3.66.32-1.19.22-2.19.65-3.01,1.3-.69.48-1.22,1.09-1.59,1.85-.37.76-.55,1.65-.55,2.69,0,1.94.7,3.49,2.11,4.63,1.4,1.15,3.32,1.72,5.74,1.72,1.94,0,3.72-.46,5.31-1.39,1.6-.93,2.88-2.21,3.86-3.86.97-1.64,1.46-3.48,1.46-5.51l1.75,1.94c-.22,2.42-.91,4.56-2.07,6.42-1.17,1.86-2.68,3.28-4.54,4.28-1.86.99-3.91,1.49-6.16,1.49Zm11.28-.45l-.26-7.26v-12.64c0-2.94-.76-5.16-2.27-6.68-1.51-1.51-3.74-2.27-6.68-2.27-1.9,0-3.65.38-5.25,1.13-1.6.76-3.11,2.04-4.54,3.86l-2.98-2.53c1.73-2.07,3.66-3.6,5.8-4.57s4.55-1.46,7.23-1.46c4.06,0,7.2,1.07,9.4,3.21,2.2,2.14,3.31,5.24,3.31,9.3v19.9h-3.76Z"/>
  <path class="cls-1" d="m112.02,123.42c-2.94,0-5.56-.7-7.88-2.11-2.31-1.4-4.12-3.35-5.41-5.83-1.3-2.48-1.94-5.33-1.94-8.52s.64-6.03,1.91-8.49c1.27-2.46,3.07-4.4,5.38-5.8,2.31-1.4,4.96-2.11,7.94-2.11s5.61.7,7.88,2.11c2.27,1.4,4.06,3.34,5.38,5.8,1.32,2.46,1.98,5.29,1.98,8.49s-.66,6.04-1.98,8.52c-1.32,2.49-3.12,4.43-5.41,5.83-2.29,1.4-4.9,2.11-7.84,2.11Zm0-3.63c2.25,0,4.2-.54,5.87-1.62,1.66-1.08,2.95-2.58,3.86-4.5.91-1.92,1.36-4.16,1.36-6.71s-.45-4.85-1.36-6.77c-.91-1.92-2.19-3.41-3.86-4.47-1.66-1.06-3.62-1.59-5.87-1.59s-4.21.54-5.9,1.62c-1.69,1.08-2.99,2.57-3.92,4.47s-1.39,4.15-1.39,6.74.46,4.79,1.39,6.71c.93,1.92,2.24,3.43,3.92,4.5,1.69,1.08,3.65,1.62,5.9,1.62Z"/>
  <path class="cls-1" d="m132.38,133.08l6.94-19.32h4.54l-8.62,19.32h-2.85Z"/>
  <path class="cls-1" d="m186.96,123.62c-4.06,0-7.62-.96-10.66-2.88-3.05-1.92-5.41-4.63-7.1-8.14s-2.53-7.58-2.53-12.25.85-8.74,2.56-12.22c1.71-3.48,4.11-6.18,7.2-8.1,3.09-1.92,6.67-2.88,10.73-2.88,4.41,0,8.23,1.09,11.47,3.27,3.24,2.18,5.57,5.2,7,9.04l-3.95,1.49c-1.17-3.02-2.98-5.4-5.44-7.13-2.46-1.73-5.49-2.59-9.08-2.59-3.28,0-6.15.78-8.59,2.33-2.44,1.56-4.33,3.76-5.67,6.61-1.34,2.85-2.01,6.24-2.01,10.18s.67,7.34,2.01,10.21c1.34,2.87,3.23,5.09,5.67,6.64,2.44,1.56,5.3,2.33,8.59,2.33,1.69,0,3.38-.23,5.09-.68,1.71-.45,3.29-1.24,4.76-2.37,1.47-1.12,2.65-2.67,3.53-4.64.89-1.97,1.33-4.46,1.33-7.49v-3.7l.97,2.85h-12.58v-3.82h15.36v23.27h-3.76l-.58-9.59.71.45c-.73,2.33-1.88,4.21-3.44,5.64-1.56,1.43-3.35,2.47-5.38,3.14-2.03.67-4.11,1-6.22,1Z"/>
  <path class="cls-1" d="m225.27,123.42c-2.25,0-4.19-.46-5.83-1.39-1.64-.93-2.91-2.31-3.79-4.15-.89-1.84-1.33-4.16-1.33-6.97v-19.9h4.08v18.47c0,2.33.3,4.27.91,5.8.6,1.53,1.49,2.68,2.66,3.44,1.17.76,2.64,1.13,4.41,1.13,1.9,0,3.52-.45,4.86-1.36,1.34-.91,2.37-2.29,3.08-4.15.71-1.86,1.07-4.23,1.07-7.13v-16.21h4.08v31.96h-4.08v-7.45h.97c-.82,2.64-2.21,4.61-4.18,5.93-1.97,1.32-4.27,1.98-6.9,1.98Z"/>
  <path class="cls-1" d="m244.58,94.25v-3.24h18.8v3.24h-18.8Zm14.2,29.17c-1.43,0-2.68-.28-3.76-.84-1.08-.56-1.91-1.44-2.5-2.63-.58-1.19-.87-2.69-.87-4.5v-33.58l4.15-2.4v35c0,1.73.29,3.08.88,4.05.58.97,1.61,1.46,3.08,1.46.52,0,1.08-.05,1.69-.16.6-.11,1.25-.25,1.94-.42v3.24c-.78.26-1.56.45-2.33.58-.78.13-1.53.19-2.27.19Z"/>
  <path class="cls-1" d="m282.9,123.42c-2.38,0-4.48-.41-6.32-1.23-1.84-.82-3.36-1.97-4.57-3.44-1.21-1.47-2.13-3.2-2.75-5.19-.63-1.99-.94-4.11-.94-6.35s.3-4.44.91-6.45c.6-2.01,1.5-3.78,2.69-5.32,1.19-1.53,2.66-2.73,4.41-3.6,1.75-.86,3.77-1.3,6.06-1.3,2.42,0,4.51.42,6.25,1.26,1.75.84,3.18,1.99,4.28,3.44,1.1,1.45,1.92,3.04,2.46,4.76.54,1.73.81,3.48.81,5.25,0,.35-.01.8-.03,1.36-.02.56-.08,1.04-.16,1.43h-23.66c.09,3.67,1.07,6.53,2.95,8.56,1.88,2.03,4.42,3.05,7.62,3.05,2.03,0,3.77-.31,5.22-.94,1.45-.63,2.84-1.67,4.18-3.14l2.92,2.59c-1.21,1.25-2.44,2.26-3.7,3.01-1.25.76-2.58,1.32-3.99,1.69-1.41.37-2.95.55-4.64.55Zm9.2-17.44c.09-.35.13-.7.13-1.07v-1.07c0-1.12-.18-2.27-.55-3.44-.37-1.17-.94-2.23-1.72-3.18-.78-.95-1.79-1.73-3.05-2.33-1.25-.6-2.74-.91-4.47-.91-1.99,0-3.73.5-5.22,1.49-1.49,1-2.65,2.31-3.47,3.95-.82,1.64-1.3,3.5-1.43,5.57h21.13l-1.36.97Z"/>
  <path class="cls-1" d="m304.67,122.97v-31.96h4.15v7.45l-.97.32c.56-1.77,1.36-3.26,2.4-4.47,1.04-1.21,2.28-2.14,3.73-2.79,1.45-.65,3.06-.97,4.83-.97,3.46,0,6.16,1.03,8.1,3.08,1.94,2.05,2.92,5.18,2.92,9.37v19.97h-4.08v-18.47c0-3.54-.66-6.16-1.98-7.84-1.32-1.69-3.3-2.53-5.93-2.53-1.81,0-3.4.44-4.76,1.33-1.36.89-2.41,2.29-3.14,4.21-.73,1.92-1.1,4.42-1.1,7.49v15.82h-4.15Z"/>
  <path class="cls-1" d="m368.33,122.97v-41.36h-15.82v-3.82h35.85v3.82h-15.75v41.36h-4.28Z"/>
  <path class="cls-1" d="m398.41,123.42c-2.38,0-4.44-.41-6.19-1.23s-3.09-1.95-4.02-3.4c-.93-1.45-1.39-3.14-1.39-5.09,0-1.73.33-3.19,1-4.38.67-1.19,1.54-2.13,2.63-2.82,1.17-.78,2.5-1.32,3.99-1.62,1.49-.3,3.1-.45,4.83-.45h10.57v3.11h-10.05c-1.25,0-2.47.11-3.66.32-1.19.22-2.19.65-3.01,1.3-.69.48-1.22,1.09-1.59,1.85-.37.76-.55,1.65-.55,2.69,0,1.94.7,3.49,2.11,4.63,1.4,1.15,3.32,1.72,5.74,1.72,1.94,0,3.72-.46,5.32-1.39,1.6-.93,2.88-2.21,3.86-3.86.97-1.64,1.46-3.48,1.46-5.51l1.75,1.94c-.22,2.42-.91,4.56-2.08,6.42-1.17,1.86-2.68,3.28-4.54,4.28-1.86.99-3.91,1.49-6.16,1.49Zm11.28-.45l-.26-7.26v-12.64c0-2.94-.76-5.16-2.27-6.68-1.51-1.51-3.74-2.27-6.68-2.27-1.9,0-3.65.38-5.25,1.13-1.6.76-3.11,2.04-4.54,3.86l-2.98-2.53c1.73-2.07,3.66-3.6,5.8-4.57s4.55-1.46,7.23-1.46c4.06,0,7.2,1.07,9.4,3.21,2.2,2.14,3.31,5.24,3.31,9.3v19.9h-3.76Z"/>
  <path class="cls-1" d="m435.23,136.71c-4.54,0-8.11-.84-10.73-2.53-2.61-1.69-3.92-4.02-3.92-7v-.81c0-.32.04-.62.13-.87l7.39-5.9,1.56,1.04-4.99,5.77c-.04.17-.06.33-.06.49v.42c0,2.07.99,3.63,2.98,4.67,1.99,1.04,4.54,1.56,7.65,1.56,2.64,0,4.81-.42,6.52-1.26,1.71-.84,2.56-2.15,2.56-3.92,0-1.04-.29-1.87-.87-2.5-.58-.63-1.39-1.12-2.43-1.49-1.04-.37-2.25-.67-3.63-.91-1.38-.24-2.88-.49-4.47-.75-1.9-.3-3.73-.72-5.48-1.26-1.75-.54-3.18-1.32-4.28-2.33-1.1-1.01-1.65-2.39-1.65-4.12,0-1.47.47-2.78,1.43-3.92.95-1.14,2.27-2.13,3.95-2.95l2.59,1.82c-1.47.43-2.52,1.03-3.14,1.78-.63.76-.94,1.65-.94,2.69s.33,1.79,1,2.4c.67.61,1.6,1.07,2.79,1.39,1.19.32,2.58.59,4.18.81,1.99.3,3.88.63,5.67.97,1.79.35,3.39.82,4.8,1.43,1.4.61,2.51,1.42,3.31,2.43.8,1.02,1.2,2.37,1.2,4.05,0,2.85-1.18,5.03-3.53,6.55-2.36,1.51-5.54,2.27-9.56,2.27Zm-.91-24.31c-2.33,0-4.42-.45-6.26-1.36-1.84-.91-3.26-2.18-4.28-3.82-1.02-1.64-1.52-3.52-1.52-5.64s.53-4.07,1.59-5.74,2.5-2.96,4.31-3.89c1.82-.93,3.82-1.39,6.03-1.39s4.2.46,6,1.39c1.79.93,3.22,2.24,4.28,3.92,1.06,1.69,1.59,3.65,1.59,5.9,0,2.12-.51,3.98-1.52,5.58-1.02,1.6-2.4,2.84-4.15,3.73-1.75.89-3.77,1.33-6.06,1.33Zm-.06-3.37c2.38,0,4.26-.71,5.64-2.14s2.08-3.22,2.08-5.38c0-2.29-.71-4.14-2.14-5.54-1.43-1.4-3.28-2.11-5.57-2.11s-4.24.71-5.7,2.14c-1.47,1.43-2.2,3.24-2.2,5.44s.71,3.97,2.14,5.41c1.43,1.45,3.35,2.17,5.77,2.17Zm9.79-12.51l-2.98-2.01,6.42-5.44,2.07,2.59-5.51,4.86Z"/>
  <path class="cls-1" d="m452.14,133.08l6.94-19.32h4.54l-8.62,19.32h-2.85Z"/>
  <path class="cls-1" d="m488.31,122.97v-45.18h4.21v20.16h23.86v-20.16h4.28v45.18h-4.28v-21.07h-23.86v21.07h-4.21Z"/>
  <path class="cls-1" d="m544.97,123.42c-2.94,0-5.56-.7-7.88-2.11-2.31-1.4-4.12-3.35-5.41-5.83-1.3-2.48-1.94-5.33-1.94-8.52s.64-6.03,1.91-8.49,3.07-4.4,5.38-5.8c2.31-1.4,4.96-2.11,7.94-2.11s5.61.7,7.88,2.11c2.27,1.4,4.06,3.34,5.38,5.8s1.98,5.29,1.98,8.49-.66,6.04-1.98,8.52c-1.32,2.49-3.12,4.43-5.41,5.83-2.29,1.4-4.9,2.11-7.84,2.11Zm0-3.63c2.25,0,4.2-.54,5.87-1.62,1.66-1.08,2.95-2.58,3.86-4.5.91-1.92,1.36-4.16,1.36-6.71s-.45-4.85-1.36-6.77c-.91-1.92-2.19-3.41-3.86-4.47-1.66-1.06-3.62-1.59-5.87-1.59s-4.21.54-5.9,1.62c-1.69,1.08-2.99,2.57-3.92,4.47s-1.39,4.15-1.39,6.74.46,4.79,1.39,6.71c.93,1.92,2.24,3.43,3.92,4.5,1.69,1.08,3.65,1.62,5.9,1.62Z"/>
  <path class="cls-1" d="m574.59,123.42c-1.82,0-3.26-.57-4.34-1.72-1.08-1.14-1.62-2.97-1.62-5.48v-38.44h4.08v37.73c0,1.47.28,2.53.84,3.18s1.32.97,2.27.97c.43,0,.91-.05,1.43-.16.52-.11,1.06-.25,1.62-.42v3.5c-.74.26-1.48.46-2.24.62-.76.15-1.44.23-2.04.23Z"/>
  <path class="cls-1" d="m595.53,123.42c-2.38,0-4.44-.41-6.19-1.23s-3.09-1.95-4.02-3.4c-.93-1.45-1.39-3.14-1.39-5.09,0-1.73.33-3.19,1-4.38.67-1.19,1.54-2.13,2.63-2.82,1.17-.78,2.5-1.32,3.99-1.62,1.49-.3,3.1-.45,4.83-.45h10.57v3.11h-10.05c-1.25,0-2.48.11-3.66.32-1.19.22-2.19.65-3.01,1.3-.69.48-1.22,1.09-1.59,1.85-.37.76-.55,1.65-.55,2.69,0,1.94.7,3.49,2.11,4.63,1.4,1.15,3.32,1.72,5.74,1.72,1.94,0,3.72-.46,5.31-1.39,1.6-.93,2.89-2.21,3.86-3.86.97-1.64,1.46-3.48,1.46-5.51l1.75,1.94c-.22,2.42-.91,4.56-2.07,6.42-1.17,1.86-2.68,3.28-4.54,4.28-1.86.99-3.91,1.49-6.16,1.49Zm11.28-.45l-.26-7.26v-12.64c0-2.94-.76-5.16-2.27-6.68-1.51-1.51-3.74-2.27-6.68-2.27-1.9,0-3.65.38-5.25,1.13-1.6.76-3.11,2.04-4.54,3.86l-2.98-2.53c1.73-2.07,3.66-3.6,5.8-4.57s4.55-1.46,7.23-1.46c4.06,0,7.2,1.07,9.4,3.21s3.31,5.24,3.31,9.3v19.9h-3.76Z"/>
  <path class="cls-1" d="m616.98,133.08l6.94-19.32h4.54l-8.62,19.32h-2.85Z"/>
  <path class="cls-1" d="m5.59,200.76v-45.18h4.21v20.16h23.85v-20.16h4.28v45.18h-4.28v-21.07H9.8v21.07h-4.21Z"/>
  <path class="cls-1" d="m58.55,201.21c-2.38,0-4.44-.41-6.19-1.23s-3.09-1.95-4.02-3.4c-.93-1.45-1.39-3.14-1.39-5.09,0-1.73.33-3.19,1-4.38.67-1.19,1.54-2.13,2.63-2.82,1.17-.78,2.5-1.32,3.99-1.62,1.49-.3,3.1-.45,4.83-.45h10.57v3.11h-10.05c-1.25,0-2.47.11-3.66.32-1.19.22-2.19.65-3.01,1.3-.69.48-1.22,1.09-1.59,1.85-.37.76-.55,1.65-.55,2.69,0,1.94.7,3.49,2.11,4.63,1.4,1.15,3.32,1.72,5.74,1.72,1.94,0,3.72-.46,5.31-1.39,1.6-.93,2.88-2.21,3.86-3.86.97-1.64,1.46-3.48,1.46-5.51l1.75,1.94c-.22,2.42-.91,4.56-2.07,6.42-1.17,1.86-2.68,3.28-4.54,4.28-1.86.99-3.91,1.49-6.16,1.49Zm11.28-.45l-.26-7.26v-12.64c0-2.94-.76-5.16-2.27-6.68-1.51-1.51-3.74-2.27-6.68-2.27-1.9,0-3.65.38-5.25,1.13-1.6.76-3.11,2.04-4.54,3.86l-2.98-2.53c1.73-2.07,3.66-3.6,5.8-4.57s4.55-1.46,7.23-1.46c4.06,0,7.2,1.07,9.4,3.21,2.2,2.14,3.31,5.24,3.31,9.3v19.9h-3.76Z"/>
  <path class="cls-1" d="m89.14,201.21c-1.81,0-3.26-.57-4.34-1.72-1.08-1.14-1.62-2.97-1.62-5.48v-38.44h4.08v37.73c0,1.47.28,2.53.84,3.18.56.65,1.32.97,2.27.97.43,0,.91-.05,1.43-.16.52-.11,1.06-.25,1.62-.42v3.5c-.74.26-1.48.46-2.24.62-.76.15-1.44.23-2.04.23Z"/>
  <path class="cls-1" d="m105.86,201.21c-1.81,0-3.26-.57-4.34-1.72-1.08-1.14-1.62-2.97-1.62-5.48v-38.44h4.08v37.73c0,1.47.28,2.53.84,3.18.56.65,1.32.97,2.27.97.43,0,.91-.05,1.43-.16.52-.11,1.06-.25,1.62-.42v3.5c-.74.26-1.48.46-2.24.62-.76.15-1.44.23-2.04.23Z"/>
  <path class="cls-1" d="m130.5,201.21c-2.94,0-5.56-.7-7.88-2.11-2.31-1.4-4.12-3.35-5.41-5.83-1.3-2.48-1.94-5.33-1.94-8.52s.64-6.03,1.91-8.49c1.27-2.46,3.07-4.4,5.38-5.8,2.31-1.4,4.96-2.11,7.94-2.11s5.61.7,7.88,2.11c2.27,1.4,4.06,3.34,5.38,5.8,1.32,2.46,1.98,5.29,1.98,8.49s-.66,6.04-1.98,8.52c-1.32,2.49-3.12,4.43-5.41,5.83-2.29,1.4-4.9,2.11-7.84,2.11Zm0-3.63c2.25,0,4.2-.54,5.87-1.62,1.66-1.08,2.95-2.58,3.86-4.5.91-1.92,1.36-4.16,1.36-6.71s-.45-4.85-1.36-6.77c-.91-1.92-2.19-3.41-3.86-4.47-1.66-1.06-3.62-1.59-5.87-1.59s-4.21.54-5.9,1.62c-1.69,1.08-2.99,2.57-3.92,4.47s-1.39,4.15-1.39,6.74.46,4.79,1.39,6.71c.93,1.92,2.24,3.43,3.92,4.5,1.69,1.08,3.65,1.62,5.9,1.62Z"/>
  <path class="cls-1" d="m150.85,210.87l6.94-19.32h4.54l-8.62,19.32h-2.85Z"/>
  <path class="cls-1" d="m187.02,200.76v-45.18h4.21v20.16h23.85v-20.16h4.28v45.18h-4.28v-21.07h-23.85v21.07h-4.21Z"/>
  <path class="cls-1" d="m239.98,201.21c-2.38,0-4.44-.41-6.19-1.23s-3.09-1.95-4.02-3.4c-.93-1.45-1.39-3.14-1.39-5.09,0-1.73.33-3.19,1-4.38.67-1.19,1.54-2.13,2.63-2.82,1.17-.78,2.5-1.32,3.99-1.62,1.49-.3,3.1-.45,4.83-.45h10.57v3.11h-10.05c-1.25,0-2.47.11-3.66.32-1.19.22-2.19.65-3.01,1.3-.69.48-1.22,1.09-1.59,1.85-.37.76-.55,1.65-.55,2.69,0,1.94.7,3.49,2.11,4.63,1.4,1.15,3.32,1.72,5.74,1.72,1.94,0,3.72-.46,5.31-1.39,1.6-.93,2.88-2.21,3.86-3.86.97-1.64,1.46-3.48,1.46-5.51l1.75,1.94c-.22,2.42-.91,4.56-2.07,6.42-1.17,1.86-2.68,3.28-4.54,4.28-1.86.99-3.91,1.49-6.16,1.49Zm11.28-.45l-.26-7.26v-12.64c0-2.94-.76-5.16-2.27-6.68-1.51-1.51-3.74-2.27-6.68-2.27-1.9,0-3.65.38-5.25,1.13-1.6.76-3.11,2.04-4.54,3.86l-2.98-2.53c1.73-2.07,3.66-3.6,5.8-4.57s4.55-1.46,7.23-1.46c4.06,0,7.2,1.07,9.4,3.21,2.2,2.14,3.31,5.24,3.31,9.3v19.9h-3.76Z"/>
  <path class="cls-1" d="m270.58,201.21c-1.81,0-3.26-.57-4.34-1.72-1.08-1.14-1.62-2.97-1.62-5.48v-38.44h4.08v37.73c0,1.47.28,2.53.84,3.18.56.65,1.32.97,2.27.97.43,0,.91-.05,1.43-.16.52-.11,1.06-.25,1.62-.42v3.5c-.74.26-1.48.46-2.24.62-.76.15-1.44.23-2.04.23Z"/>
  <path class="cls-1" d="m295.21,201.21c-2.94,0-5.56-.7-7.88-2.11-2.31-1.4-4.12-3.35-5.41-5.83-1.3-2.48-1.94-5.33-1.94-8.52s.64-6.03,1.91-8.49c1.27-2.46,3.07-4.4,5.38-5.8,2.31-1.4,4.96-2.11,7.94-2.11s5.61.7,7.88,2.11c2.27,1.4,4.06,3.34,5.38,5.8,1.32,2.46,1.98,5.29,1.98,8.49s-.66,6.04-1.98,8.52c-1.32,2.49-3.12,4.43-5.41,5.83-2.29,1.4-4.9,2.11-7.84,2.11Zm0-3.63c2.25,0,4.2-.54,5.87-1.62,1.66-1.08,2.95-2.58,3.86-4.5.91-1.92,1.36-4.16,1.36-6.71s-.45-4.85-1.36-6.77c-.91-1.92-2.19-3.41-3.86-4.47-1.66-1.06-3.62-1.59-5.87-1.59s-4.21.54-5.9,1.62c-1.69,1.08-2.99,2.57-3.92,4.47s-1.39,4.15-1.39,6.74.46,4.79,1.39,6.71c.93,1.92,2.24,3.43,3.92,4.5,1.69,1.08,3.65,1.62,5.9,1.62Z"/>
  <path class="cls-1" d="m315.56,210.87l6.94-19.32h4.54l-8.62,19.32h-2.85Z"/>
  <path class="cls-1" d="m354.89,178.1c-1.63,2.86-3.35,5.47-5.12,7.68-.44-.69-1.48-1.97-2.12-2.66,4.63-5.52,9.06-14.88,11.87-23.99l4.09,1.23c-.2.49-.64.59-1.18.54-1.33,3.94-2.91,7.93-4.68,11.67l1.43.39c-.1.3-.35.54-.99.59v31.33h-3.3v-26.8Zm33.74,1.18c.39-1.82.89-4.58,1.33-7.24h-9.8v28.77c0,3.55-1.28,4.19-8.18,4.19-.2-.98-.69-2.41-1.23-3.4,1.23.05,2.41.05,3.35.05h1.97c.64,0,.84-.2.84-.84v-28.77h-7.93c-1.48,3.6-3.2,6.85-5.07,9.31-.59-.59-1.72-1.58-2.51-2.02,3.55-4.58,6.45-12.31,8.13-20.05l4.09,1.08c-.1.34-.44.54-1.08.49-.64,2.71-1.43,5.47-2.36,8.08h21.77l1.72.05c0,.84-1.18,7.29-2.22,10.84l-2.81-.54Zm-15.76,1.63c-.15.34-.49.54-1.08.54-1.58,6.06-4.29,12.51-7.39,16.45-.64-.54-1.82-1.28-2.61-1.68,3-3.74,5.57-10.1,7.09-16.4l3.99,1.08Zm17.88,16.6c-.94-4.63-3.79-11.72-6.75-16.99l2.91-1.03c3.1,5.27,6.01,12.22,6.99,16.85l-3.15,1.18Z"/>
  <path class="cls-1" d="m414.3,169.43l1.87.49-.3.69c-.69,8.72-2.26,15.71-4.73,21.18,2.41,1.87,4.48,3.69,5.81,5.37l-2.02,2.71c-1.23-1.58-3.1-3.35-5.27-5.12-2.51,4.58-5.81,7.93-9.75,10.29-.44-.84-1.38-2.02-2.07-2.71,3.69-1.97,6.8-5.17,9.26-9.6-1.82-1.38-3.74-2.66-5.62-3.79l-.59,2.17-2.81-1.48c1.23-4.33,2.76-10.59,4.19-16.94h-4.93v-3.1h5.61c.79-3.69,1.48-7.24,2.07-10.39l4.04.49c-.05.35-.34.54-.98.59-.54,2.81-1.23,6.01-1.97,9.31h7.59l.59-.15Zm-8.87,3.25c-1.03,4.58-2.17,9.21-3.2,13.25,2.07,1.13,4.19,2.51,6.26,3.89,1.97-4.58,3.4-10.29,4.09-17.14h-7.14Zm37.58,8.47v3.2h-11.87v16.3c0,3.79-1.48,4.38-10.2,4.29-.2-.89-.74-2.31-1.23-3.3,2.37.05,4.53.1,5.91.1,1.68,0,2.17,0,2.17-1.03v-16.35h-12.07v-3.2h12.07v-8.37l1.63.1c2.56-2.17,5.27-5.27,7.29-8.03h-18.96v-3.1h21.48l.64-.2,2.61,1.63c-.15.25-.49.39-.79.49-2.56,3.64-6.8,8.32-10.54,11.38v6.11h11.87Z"/>
  <path class="cls-1" d="m446.5,210.87l6.94-19.32h4.54l-8.62,19.32h-2.85Z"/>
  <path class="cls-1" d="m476.9,200.76l16.79-45.18h3.57l16.72,45.18h-4.6l-13.87-39.28-13.87,39.28h-4.73Zm8.3-11.6l1.36-3.82h17.83l1.43,3.82h-20.61Z"/>
  <path class="cls-1" d="m519.94,200.76v-45.18h4.15v20.68l-1.04.32c.56-1.77,1.37-3.26,2.43-4.47,1.06-1.21,2.31-2.14,3.76-2.79,1.45-.65,3.06-.97,4.83-.97,3.5,0,6.21,1.05,8.14,3.14,1.92,2.1,2.88,5.2,2.88,9.3v19.97h-4.08v-18.47c0-3.54-.66-6.16-1.98-7.84-1.32-1.69-3.3-2.53-5.93-2.53-2.77,0-4.96,1.04-6.58,3.11s-2.43,5.38-2.43,9.92v15.82h-4.15Z"/>
  <path class="cls-1" d="m568.24,201.21c-2.94,0-5.56-.7-7.88-2.11-2.31-1.4-4.12-3.35-5.41-5.83-1.3-2.48-1.94-5.33-1.94-8.52s.64-6.03,1.91-8.49,3.07-4.4,5.38-5.8c2.31-1.4,4.96-2.11,7.94-2.11s5.61.7,7.88,2.11c2.27,1.4,4.06,3.34,5.38,5.8s1.98,5.29,1.98,8.49-.66,6.04-1.98,8.52c-1.32,2.49-3.12,4.43-5.41,5.83-2.29,1.4-4.9,2.11-7.84,2.11Zm0-3.63c2.25,0,4.2-.54,5.87-1.62,1.66-1.08,2.95-2.58,3.86-4.5.91-1.92,1.36-4.16,1.36-6.71s-.45-4.85-1.36-6.77c-.91-1.92-2.19-3.41-3.86-4.47-1.66-1.06-3.62-1.59-5.87-1.59s-4.21.54-5.9,1.62c-1.69,1.08-2.99,2.57-3.92,4.47s-1.39,4.15-1.39,6.74.46,4.79,1.39,6.71c.93,1.92,2.24,3.43,3.92,4.5,1.69,1.08,3.65,1.62,5.9,1.62Z"/>
  <path class="cls-1" d="m590.02,214.43c-.69,0-1.43-.08-2.2-.23-.78-.15-1.58-.34-2.4-.55v-3.63c.69.26,1.31.43,1.85.52.54.09.98.13,1.33.13,1.12,0,1.97-.33,2.53-1,.56-.67.84-1.8.84-3.4v-37.47h4.08v38.44c0,2.51-.54,4.33-1.62,5.48-1.08,1.14-2.55,1.72-4.41,1.72Zm1.62-51.86v-7h4.86v7h-4.86Z"/>
  <path class="cls-1" d="m602.79,210.87l6.94-19.32h4.54l-8.62,19.32h-2.85Z"/>
  <path class="cls-1" d="m642.75,200.76c-.89-.39-1.81-1.21-2.76-2.45-.7-1.14-1.06-2.61-1.06-4.4v-16.32c0-.85-.13-1.43-.39-1.75-.26-.32-.84-.53-1.75-.64,1.7-2.85,3.58-5.24,5.65-7.17v3.01h10.14c4.2,0,7.37.23,9.52.7,2.15.47,3.62,1.39,4.4,2.76.79,1.37,1.18,4.63,1.18,9.76,0,6.35-.61,10.5-1.83,12.45-1.22,1.95-2.05,3.12-2.5,3.49s-1.25.56-2.4.56h-18.21Zm20.47-5.09c.41-1.39.62-4.52.62-9.4,0-4.47-.67-7.32-2.02-8.56-.64-.66-1.5-1.09-2.56-1.29-1.06-.2-3.13-.29-6.19-.29h-10.64v19.54h20.78Z"/>
  <path class="cls-1" d="m676.41,168.9l6.82,5.37c1.74,1.36,2.61,3.06,2.61,5.09v18.77l-4.41,4.09v-19.91c0-1.26-.24-2.18-.71-2.75-.48-.57-1.32-1.22-2.54-1.97l-5.68-3.6,3.91-5.09Z"/>
  <path class="cls-1" d="m694.87,164.31v6.73h9.49c2.96,0,4.87.13,5.75.39.88.26,1.57.86,2.06,1.81.5.95.74,1.98.74,3.07v3.6c0,5.13-2.07,9.7-6.2,13.71-4.14,4.01-9.2,6.88-15.2,8.59l3.04-6.54c3.76-.64,7.08-2.09,9.96-4.34,2.88-2.25,4.31-5.35,4.31-9.27v-2.14c0-1.41-.23-2.39-.7-2.95-.47-.56-1.42-.84-2.87-.84h-12.44c-.83,0-1.24-.45-1.24-1.36v-1.89c0-4.74-.5-7.53-1.49-8.38l3.88-5.12c.02.08.1.27.25.56.44.83.65,2.29.65,4.37Z"/>
  <path class="cls-1" d="m723.56,174.05c.41,1.28.88,3.24,1.4,5.86l1.4,7.44c1.94-1.03,3.36-2.09,4.25-3.16.89-1.07,1.33-2.5,1.33-4.28,0-2.19-.37-4.37-1.12-6.54l4.47-4.47c.81,2.94,1.21,5.35,1.21,7.23,0,5.87-3.15,10.78-9.46,14.73l.84,3.66c.21.87.47,1.43.79,1.69.32.26.96.39,1.91.39,1.7,0,3.68-.68,5.96-2.03,2.28-1.35,4.17-2.87,5.68-4.54s2.26-3.76,2.26-6.27c0-1.78-.58-4.92-1.74-9.43l4.78-5.43c.95,3.87,1.43,6.87,1.43,9,0,4.36-.75,7.98-2.26,10.84-1.51,2.86-3.96,5.73-7.34,8.59-3.38,2.86-6.91,4.3-10.59,4.3-1.92,0-3.31-1.55-4.16-4.65l-2.33-8.75c-.76-2.89-1.37-4.96-1.83-6.2s-.85-2.42-1.18-3.54c-.76-2.11-1.37-3.61-1.83-4.5l3.88-5.09c1.03,1.84,1.79,3.56,2.26,5.15Z"/>
  <path class="cls-1" d="m753.07,210.87l6.94-19.32h4.54l-8.62,19.32h-2.85Z"/>
  <path class="cls-1" d="m24.25,281.78c-4.11,0-7.7-.96-10.79-2.88-3.09-1.92-5.49-4.62-7.2-8.1-1.71-3.48-2.56-7.55-2.56-12.22s.85-8.75,2.56-12.25c1.71-3.5,4.11-6.21,7.2-8.14,3.09-1.92,6.67-2.88,10.73-2.88s7.83.96,10.92,2.88c3.09,1.92,5.49,4.64,7.2,8.14,1.71,3.5,2.56,7.58,2.56,12.25s-.86,8.74-2.59,12.22c-1.73,3.48-4.14,6.18-7.23,8.1-3.09,1.92-6.69,2.88-10.79,2.88Zm-.06-4.08c3.37,0,6.28-.79,8.72-2.37,2.44-1.58,4.33-3.79,5.67-6.64,1.34-2.85,2.01-6.22,2.01-10.11s-.67-7.33-2.01-10.18c-1.34-2.85-3.23-5.07-5.67-6.64-2.44-1.58-5.35-2.37-8.72-2.37s-6.15.78-8.59,2.33c-2.44,1.55-4.33,3.76-5.67,6.61-1.34,2.85-2.01,6.27-2.01,10.24s.67,7.32,2.01,10.18c1.34,2.85,3.23,5.06,5.67,6.61,2.44,1.56,5.3,2.33,8.59,2.33Z"/>
  <path class="cls-1" d="m58.93,281.59c-1.81,0-3.26-.57-4.34-1.72-1.08-1.14-1.62-2.97-1.62-5.48v-38.44h4.08v37.73c0,1.47.28,2.53.84,3.18.56.65,1.32.97,2.27.97.43,0,.91-.05,1.43-.16.52-.11,1.06-.25,1.62-.42v3.5c-.74.26-1.48.46-2.24.62-.76.15-1.44.23-2.04.23Z"/>
  <path class="cls-1" d="m79.87,281.59c-2.38,0-4.44-.41-6.19-1.23s-3.09-1.95-4.02-3.4c-.93-1.45-1.39-3.14-1.39-5.09,0-1.73.33-3.19,1-4.38.67-1.19,1.54-2.13,2.63-2.82,1.17-.78,2.5-1.32,3.99-1.62,1.49-.3,3.1-.45,4.83-.45h10.57v3.11h-10.05c-1.25,0-2.47.11-3.66.32-1.19.22-2.19.65-3.01,1.3-.69.48-1.22,1.09-1.59,1.85-.37.76-.55,1.65-.55,2.69,0,1.94.7,3.49,2.11,4.63,1.4,1.15,3.32,1.72,5.74,1.72,1.94,0,3.72-.46,5.31-1.39,1.6-.93,2.88-2.21,3.86-3.86.97-1.64,1.46-3.48,1.46-5.51l1.75,1.94c-.22,2.42-.91,4.56-2.07,6.42-1.17,1.86-2.68,3.28-4.54,4.28-1.86,1-3.91,1.49-6.16,1.49Zm11.28-.45l-.26-7.26v-12.64c0-2.94-.76-5.16-2.27-6.68-1.51-1.51-3.74-2.27-6.68-2.27-1.9,0-3.65.38-5.25,1.13-1.6.76-3.11,2.04-4.54,3.86l-2.98-2.53c1.73-2.08,3.66-3.6,5.8-4.57s4.55-1.46,7.23-1.46c4.06,0,7.2,1.07,9.4,3.21,2.2,2.14,3.31,5.24,3.31,9.3v19.9h-3.76Zm-10.18-36.11l6.94-9.08h4.41l-8.23,9.08h-3.11Z"/>
  <path class="cls-1" d="m101.33,291.25l6.94-19.32h4.54l-8.62,19.32h-2.85Z"/>
  <path class="cls-1" d="m163.72,242.99c0,1.65-.44,3.2-1.31,4.66-.87,1.45-2.18,2.8-3.93,4.03,1.75,1.84,2.62,4.61,2.62,8.29v21.16h-4.73v-6.01c-.95-2.92-2.35-5.37-4.19-7.35s-3.81-2.96-5.9-2.96c-1.84,0-3.22.5-4.13,1.51s-1.37,2.51-1.37,4.5v.85c.59-.19,1.18-.28,1.77-.28,1.37,0,2.54.49,3.53,1.48s1.48,2.16,1.48,3.53-.49,2.54-1.48,3.53-2.16,1.48-3.53,1.48c-2.07,0-3.67-.69-4.8-2.08s-1.69-3.35-1.69-5.9v-2.71c0-3,.91-5.41,2.72-7.24s4.33-2.73,7.56-2.73c2.15,0,4.12.64,5.93,1.91s3.17,2.97,4.1,5.1v-7.46c0-2.28-.6-4.07-1.81-5.38s-3.38-1.96-6.54-1.96c-2.45,0-4.42.46-5.9,1.4s-2.47,2.33-2.96,4.19l-4.61-.63c.66-3.11,2.18-5.45,4.56-7.01s5.6-2.34,9.69-2.34c2.66,0,4.83.35,6.52,1.05,1.22-.97,2.13-2.01,2.75-3.13.62-1.12.93-2.33.93-3.62v-.2h4.73v.31Zm-21.17,35.18c.46,0,.86-.17,1.21-.53s.53-.76.53-1.24-.18-.86-.53-1.21c-.35-.35-.76-.53-1.21-.53s-.89.18-1.24.53-.53.75-.53,1.21.18.89.53,1.24c.35.35.76.53,1.24.53Z"/>
  <path class="cls-1" d="m191.38,273.44c0,2.54-.56,4.51-1.68,5.9s-2.72,2.08-4.79,2.08c-1.37,0-2.54-.49-3.53-1.48s-1.48-2.16-1.48-3.53.49-2.54,1.48-3.53,2.16-1.48,3.53-1.48c.57,0,1.15.09,1.74.28v-11.37c0-2.28-.54-4.07-1.61-5.38s-3.02-1.96-5.85-1.96c-4.33,0-6.99,1.86-7.98,5.58l-4.61-.63c1.29-6.23,5.74-9.34,13.36-9.34s11.42,3.8,11.42,11.39v13.47Zm-6.47,4.73c.46,0,.86-.17,1.21-.53.35-.35.53-.76.53-1.24s-.17-.86-.51-1.21c-.34-.35-.75-.53-1.22-.53s-.86.18-1.21.53-.53.75-.53,1.21.18.89.53,1.24c.35.35.75.53,1.21.53Z"/>
  <path class="cls-1" d="m196.34,234.33c-.7,3.19-2.16,5.65-4.37,7.38-2.21,1.73-4.97,2.59-8.27,2.59-2.68,0-4.88-.63-6.59-1.9-1.72-1.26-2.58-2.82-2.58-4.69,0-1.29.45-2.39,1.35-3.3s1.99-1.37,3.26-1.37,2.34.46,3.25,1.37,1.37,1.99,1.37,3.25c0,1.39-.49,2.51-1.48,3.36.27.13.74.2,1.42.2,5.22,0,8.38-2.3,9.49-6.89h3.16Zm-17.21,4.84c.4,0,.75-.15,1.05-.46s.46-.66.46-1.05-.15-.78-.46-1.08-.66-.46-1.05-.46-.75.15-1.05.46-.46.66-.46,1.08.15.75.44,1.05c.29.3.65.46,1.07.46Z"/>
  <path class="cls-1" d="m227.5,242.99c0,1.65-.44,3.2-1.31,4.66-.87,1.45-2.18,2.8-3.93,4.03,1.75,1.84,2.62,4.61,2.62,8.29v21.16h-4.73v-6.01c-.95-2.92-2.35-5.37-4.19-7.35s-3.81-2.96-5.9-2.96c-1.84,0-3.22.5-4.13,1.51s-1.37,2.51-1.37,4.5v.85c.59-.19,1.18-.28,1.77-.28,1.37,0,2.54.49,3.53,1.48s1.48,2.16,1.48,3.53-.49,2.54-1.48,3.53-2.16,1.48-3.53,1.48c-2.07,0-3.67-.69-4.8-2.08s-1.69-3.35-1.69-5.9v-2.71c0-3,.91-5.41,2.72-7.24s4.33-2.73,7.56-2.73c2.15,0,4.12.64,5.93,1.91s3.17,2.97,4.1,5.1v-7.46c0-2.28-.6-4.07-1.81-5.38s-3.38-1.96-6.54-1.96c-2.45,0-4.42.46-5.9,1.4s-2.47,2.33-2.96,4.19l-4.61-.63c.66-3.11,2.18-5.45,4.56-7.01s5.6-2.34,9.69-2.34c2.66,0,4.83.35,6.52,1.05,1.22-.97,2.13-2.01,2.75-3.13.62-1.12.93-2.33.93-3.62v-.2h4.73v.31Zm-21.17,35.18c.46,0,.86-.17,1.21-.53s.53-.76.53-1.24-.18-.86-.53-1.21c-.35-.35-.76-.53-1.21-.53s-.89.18-1.24.53-.53.75-.53,1.21.18.89.53,1.24c.35.35.76.53,1.24.53Z"/>
  <path class="cls-1" d="m260.18,281.13h-4.7v-21.71c0-1.82-.88-3.36-2.63-4.6-1.76-1.24-3.88-1.86-6.37-1.86-2.64,0-4.89.69-6.74,2.08-1.85,1.39-2.78,3.18-2.78,5.38,0,1.79.57,4.66,1.71,8.63.82,2.87,1.22,4.78,1.22,5.73.23-.36.81-1.08,1.74-2.16,1.46-1.73,2.39-2.95,2.79-3.68-1.08-.36-1.95-.99-2.61-1.88-.65-.89-.98-1.88-.98-2.96,0-1.37.49-2.54,1.48-3.53s2.16-1.48,3.53-1.48,2.52.49,3.52,1.48c1,.99,1.5,2.16,1.5,3.53v.23c0,1.33-.39,2.75-1.18,4.26-.79,1.51-2.58,3.61-5.37,6.31-1.98,1.92-3.2,3.28-3.69,4.09-.48.81-.73,1.52-.73,2.15h-4.73v-4.73c0-1.65-.47-4.32-1.42-8-.97-3.76-1.45-6.49-1.45-8.2,0-3.08,1.25-5.78,3.76-8.12s5.94-3.5,10.31-3.5,7.55,1.02,10.06,3.06c2.51,2.04,3.76,4.6,3.76,7.68v21.82Zm-14.33-15.3c.46,0,.86-.18,1.21-.53.35-.35.53-.75.53-1.21s-.18-.88-.53-1.22-.75-.51-1.21-.51-.89.18-1.24.53c-.35.35-.53.75-.53,1.21s.18.86.53,1.21c.35.35.76.53,1.24.53Z"/>
  <path class="cls-1" d="m257.81,245.44h-22.42v-.6c0-2.49.76-4.6,2.28-6.32s3.93-2.59,7.24-2.59c3.72,0,6.89,1.36,9.51,4.07v-5.53h3.39v10.97Zm-5.27-3.11c-1.58-2.22-4.12-3.33-7.63-3.33-1.61,0-2.93.31-3.95.93-1.02.62-1.63,1.42-1.84,2.41h13.42Z"/>
  <path class="cls-1" d="m276.48,281.13c0,2.68-.51,4.73-1.54,6.14-1.02,1.41-2.28,2.42-3.78,3.01l-1.55-2.41c2.36-1.01,3.56-3.26,3.58-6.74h-3.2v-6.49h6.49v6.49Z"/>
  <path class="cls-1" d="m323.14,281.78c-4.06,0-7.64-.96-10.73-2.88-3.09-1.92-5.49-4.64-7.2-8.14-1.71-3.5-2.56-7.58-2.56-12.25s.85-8.74,2.56-12.22c1.71-3.48,4.11-6.18,7.2-8.1,3.09-1.92,6.67-2.88,10.73-2.88,4.41,0,8.23,1.09,11.47,3.27,3.24,2.18,5.57,5.2,7,9.04l-3.95,1.49c-1.17-3.02-2.98-5.4-5.44-7.13-2.46-1.73-5.49-2.59-9.08-2.59-3.28,0-6.15.78-8.59,2.33-2.44,1.55-4.33,3.76-5.67,6.61-1.34,2.85-2.01,6.25-2.01,10.18s.67,7.34,2.01,10.21c1.34,2.88,3.23,5.09,5.67,6.64,2.44,1.56,5.3,2.33,8.59,2.33,3.59,0,6.61-.88,9.08-2.63s4.28-4.12,5.44-7.1l3.95,1.43c-1.43,3.85-3.76,6.87-7,9.08s-7.07,3.31-11.47,3.31Z"/>
  <path class="cls-1" d="m346.28,281.13v-3.05l21.46-26.38.19.78h-20.61v-3.31h24.37v3.31l-21.33,26.45-.13-1.17h21.26v3.37h-25.22Z"/>
  <path class="cls-1" d="m391.53,281.59c-2.38,0-4.48-.41-6.32-1.23-1.84-.82-3.36-1.97-4.57-3.44-1.21-1.47-2.13-3.2-2.75-5.19-.63-1.99-.94-4.1-.94-6.35s.3-4.44.91-6.45c.6-2.01,1.5-3.78,2.69-5.31,1.19-1.53,2.66-2.73,4.41-3.6,1.75-.86,3.77-1.3,6.06-1.3,2.42,0,4.51.42,6.25,1.26,1.75.84,3.18,1.99,4.28,3.43,1.1,1.45,1.92,3.04,2.46,4.76.54,1.73.81,3.48.81,5.25,0,.35-.01.8-.03,1.36-.02.56-.08,1.04-.16,1.43h-23.66c.09,3.67,1.07,6.53,2.95,8.56s4.42,3.05,7.62,3.05c2.03,0,3.77-.31,5.22-.94,1.45-.63,2.84-1.68,4.18-3.14l2.92,2.59c-1.21,1.25-2.44,2.26-3.7,3.01-1.25.76-2.58,1.32-3.99,1.69-1.41.37-2.95.55-4.64.55Zm9.2-17.44c.09-.35.13-.7.13-1.07v-1.07c0-1.12-.18-2.27-.55-3.43-.37-1.17-.94-2.23-1.72-3.18-.78-.95-1.79-1.73-3.05-2.33-1.25-.61-2.74-.91-4.47-.91-1.99,0-3.73.5-5.22,1.49-1.49,1-2.65,2.31-3.47,3.96-.82,1.64-1.3,3.5-1.43,5.57h21.13l-1.36.97Z"/>
  <path class="cls-1" d="m423.16,281.59c-2.12,0-4.03-.32-5.74-.97-1.71-.65-3.18-1.52-4.41-2.63s-2.19-2.32-2.88-3.66l2.92-2.33c.82,1.82,2.11,3.3,3.86,4.44,1.75,1.15,3.83,1.72,6.26,1.72,2.29,0,4.13-.51,5.51-1.52,1.38-1.02,2.07-2.41,2.07-4.18,0-1.47-.42-2.6-1.26-3.4-.84-.8-1.92-1.44-3.24-1.91-1.32-.47-2.75-.88-4.31-1.23-1.21-.3-2.42-.66-3.63-1.07-1.21-.41-2.3-.93-3.27-1.55s-1.74-1.44-2.3-2.43c-.56-.99-.84-2.23-.84-3.7,0-2.51.98-4.54,2.95-6.09,1.96-1.55,4.53-2.33,7.68-2.33,2.38,0,4.55.51,6.51,1.52,1.97,1.02,3.49,2.56,4.57,4.64l-2.66,1.94c-.91-1.69-2.11-2.91-3.6-3.66-1.49-.75-3.14-1.13-4.96-1.13-1.94,0-3.56.43-4.83,1.3-1.27.87-1.91,2.03-1.91,3.5,0,1.08.3,1.96.91,2.63s1.47,1.22,2.59,1.65c1.12.43,2.44.82,3.96,1.17,1.38.3,2.75.67,4.12,1.1,1.36.43,2.61.98,3.76,1.65,1.14.67,2.05,1.57,2.72,2.69.67,1.12,1,2.55,1,4.28,0,1.94-.48,3.64-1.43,5.09-.95,1.45-2.29,2.56-4.02,3.34-1.73.78-3.76,1.17-6.09,1.17Zm-2.01-36.56l6.94-9.08h4.41l-8.23,9.08h-3.11Z"/>
  <path class="cls-1" d="m455.7,281.59c-2.25,0-4.26-.42-6.03-1.26-1.77-.84-3.27-2.02-4.5-3.53s-2.17-3.26-2.82-5.25-.97-4.13-.97-6.42.32-4.36.97-6.35c.65-1.99,1.59-3.74,2.82-5.25,1.23-1.51,2.73-2.69,4.5-3.53,1.77-.84,3.78-1.26,6.03-1.26,2.89,0,5.45.71,7.65,2.14,2.2,1.43,3.85,3.61,4.93,6.55l-3.7,1.43c-.69-2.03-1.79-3.63-3.31-4.8-1.51-1.17-3.37-1.75-5.57-1.75-2.33,0-4.26.61-5.77,1.82-1.51,1.21-2.65,2.79-3.4,4.73s-1.13,4.04-1.13,6.29.38,4.35,1.13,6.32,1.89,3.56,3.4,4.76c1.51,1.21,3.44,1.82,5.77,1.82,2.2,0,4.06-.58,5.57-1.75,1.51-1.17,2.61-2.79,3.31-4.86l3.7,1.43c-1.04,2.9-2.66,5.08-4.86,6.55-2.2,1.47-4.78,2.2-7.71,2.2Zm-1.94-36.56l6.94-9.08h4.41l-8.23,9.08h-3.11Z"/>
  <path class="cls-1" d="m473.01,291.25l6.94-19.32h4.54l-8.62,19.32h-2.85Z"/>
  <path class="cls-1" d="m509.18,281.13v-45.18h4.21v45.18h-4.21Zm3.31-14.78v-5.45l23.86-24.96h5.7l-29.56,30.4Zm24.76,14.78l-15.88-25.15,3.18-2.92,17.7,28.07h-4.99Z"/>
  <path class="cls-1" d="m558.31,281.59c-2.38,0-4.44-.41-6.19-1.23s-3.09-1.95-4.02-3.4c-.93-1.45-1.39-3.14-1.39-5.09,0-1.73.33-3.19,1-4.38s1.54-2.13,2.63-2.82c1.17-.78,2.5-1.32,3.99-1.62,1.49-.3,3.1-.45,4.83-.45h10.57v3.11h-10.05c-1.25,0-2.48.11-3.66.32-1.19.22-2.19.65-3.01,1.3-.69.48-1.22,1.09-1.59,1.85-.37.76-.55,1.65-.55,2.69,0,1.94.7,3.49,2.11,4.63,1.4,1.15,3.32,1.72,5.74,1.72,1.94,0,3.72-.46,5.31-1.39,1.6-.93,2.89-2.21,3.86-3.86.97-1.64,1.46-3.48,1.46-5.51l1.75,1.94c-.22,2.42-.91,4.56-2.07,6.42-1.17,1.86-2.68,3.28-4.54,4.28-1.86,1-3.91,1.49-6.16,1.49Zm11.28-.45l-.26-7.26v-12.64c0-2.94-.76-5.16-2.27-6.68-1.51-1.51-3.74-2.27-6.68-2.27-1.9,0-3.65.38-5.25,1.13-1.6.76-3.11,2.04-4.54,3.86l-2.98-2.53c1.73-2.08,3.66-3.6,5.8-4.57s4.55-1.46,7.23-1.46c4.06,0,7.2,1.07,9.4,3.21,2.2,2.14,3.31,5.24,3.31,9.3v19.9h-3.76Z"/>
  <path class="cls-1" d="m583.01,281.13v-31.96h4.15v8.23h-.84c.39-1.51.91-2.81,1.55-3.89.65-1.08,1.43-1.98,2.33-2.69.91-.71,1.89-1.24,2.95-1.59,1.06-.35,2.17-.52,3.34-.52,1.9,0,3.58.36,5.02,1.07,1.45.71,2.63,1.81,3.53,3.27.91,1.47,1.53,3.35,1.88,5.64l-2.27.13c.61-2.2,1.39-4.05,2.37-5.54.97-1.49,2.19-2.63,3.66-3.4,1.47-.78,3.2-1.17,5.19-1.17,2.59,0,4.67.6,6.22,1.78,1.56,1.19,2.68,2.78,3.37,4.76.69,1.99,1.04,4.26,1.04,6.81v19.06h-4.08v-18.15c0-2.2-.24-4.1-.71-5.7-.48-1.6-1.25-2.83-2.33-3.7-1.08-.86-2.55-1.3-4.41-1.3-1.6,0-3.01.42-4.25,1.26-1.23.84-2.18,2.13-2.85,3.86-.67,1.73-1.01,3.89-1.01,6.48v17.24h-4.15v-18.73c0-3.41-.62-5.95-1.85-7.62-1.23-1.66-3.06-2.5-5.48-2.5-1.6,0-3.03.43-4.28,1.3-1.25.86-2.23,2.18-2.92,3.95-.69,1.77-1.04,4.02-1.04,6.74v16.85h-4.15Z"/>
  <path class="cls-1" d="m646.28,281.59c-2.25,0-4.19-.46-5.83-1.39-1.64-.93-2.91-2.31-3.79-4.15-.89-1.84-1.33-4.16-1.33-6.97v-19.9h4.08v18.47c0,2.33.3,4.27.91,5.8.6,1.53,1.49,2.68,2.66,3.44,1.17.76,2.63,1.13,4.41,1.13,1.9,0,3.52-.45,4.86-1.36,1.34-.91,2.37-2.29,3.08-4.15.71-1.86,1.07-4.23,1.07-7.13v-16.21h4.08v31.96h-4.08v-7.45h.97c-.82,2.64-2.21,4.61-4.18,5.93-1.97,1.32-4.27,1.98-6.9,1.98Z"/>
  <path class="cls-1" d="m680.24,281.59c-2.12,0-4.03-.32-5.74-.97-1.71-.65-3.18-1.52-4.41-2.63s-2.19-2.32-2.88-3.66l2.92-2.33c.82,1.82,2.11,3.3,3.86,4.44,1.75,1.15,3.83,1.72,6.26,1.72,2.29,0,4.13-.51,5.51-1.52,1.38-1.02,2.07-2.41,2.07-4.18,0-1.47-.42-2.6-1.26-3.4-.84-.8-1.92-1.44-3.24-1.91-1.32-.47-2.75-.88-4.31-1.23-1.21-.3-2.42-.66-3.63-1.07-1.21-.41-2.3-.93-3.27-1.55s-1.74-1.44-2.3-2.43c-.56-.99-.84-2.23-.84-3.7,0-2.51.98-4.54,2.95-6.09,1.97-1.55,4.53-2.33,7.68-2.33,2.38,0,4.55.51,6.52,1.52,1.96,1.02,3.49,2.56,4.57,4.64l-2.66,1.94c-.91-1.69-2.11-2.91-3.6-3.66-1.49-.75-3.14-1.13-4.96-1.13-1.94,0-3.56.43-4.83,1.3-1.27.87-1.91,2.03-1.91,3.5,0,1.08.3,1.96.91,2.63.6.67,1.47,1.22,2.59,1.65,1.12.43,2.44.82,3.95,1.17,1.38.3,2.75.67,4.12,1.1,1.36.43,2.61.98,3.76,1.65,1.14.67,2.05,1.57,2.72,2.69.67,1.12,1.01,2.55,1.01,4.28,0,1.94-.48,3.64-1.43,5.09-.95,1.45-2.29,2.56-4.02,3.34-1.73.78-3.76,1.17-6.09,1.17Z"/>
  <path class="cls-1" d="m695.48,252.42v-3.24h18.8v3.24h-18.8Zm14.2,29.17c-1.43,0-2.68-.28-3.76-.84s-1.91-1.44-2.5-2.63c-.58-1.19-.87-2.69-.87-4.5v-33.58l4.15-2.4v35c0,1.73.29,3.08.87,4.05s1.61,1.46,3.08,1.46c.52,0,1.08-.05,1.69-.16.61-.11,1.25-.25,1.94-.42v3.24c-.78.26-1.56.45-2.33.58-.78.13-1.53.19-2.27.19Z"/>
  <path class="cls-1" d="m731.45,281.59c-2.38,0-4.44-.41-6.19-1.23s-3.09-1.95-4.02-3.4c-.93-1.45-1.39-3.14-1.39-5.09,0-1.73.33-3.19,1-4.38s1.54-2.13,2.63-2.82c1.17-.78,2.5-1.32,3.99-1.62,1.49-.3,3.1-.45,4.83-.45h10.57v3.11h-10.05c-1.25,0-2.48.11-3.66.32-1.19.22-2.19.65-3.01,1.3-.69.48-1.22,1.09-1.59,1.85-.37.76-.55,1.65-.55,2.69,0,1.94.7,3.49,2.11,4.63,1.4,1.15,3.32,1.72,5.74,1.72,1.94,0,3.72-.46,5.31-1.39,1.6-.93,2.89-2.21,3.86-3.86.97-1.64,1.46-3.48,1.46-5.51l1.75,1.94c-.22,2.42-.91,4.56-2.07,6.42-1.17,1.86-2.68,3.28-4.54,4.28-1.86,1-3.91,1.49-6.16,1.49Zm11.28-.45l-.26-7.26v-12.64c0-2.94-.76-5.16-2.27-6.68-1.51-1.51-3.74-2.27-6.68-2.27-1.9,0-3.65.38-5.25,1.13-1.6.76-3.11,2.04-4.54,3.86l-2.98-2.53c1.73-2.08,3.66-3.6,5.8-4.57s4.55-1.46,7.23-1.46c4.06,0,7.2,1.07,9.4,3.21,2.2,2.14,3.31,5.24,3.31,9.3v19.9h-3.76Z"/>
  <path class="cls-1" d="m752.91,291.25l6.94-19.32h4.54l-8.62,19.32h-2.85Z"/>
  <path class="cls-1" d="m24,362.16c-4.06,0-7.62-.96-10.66-2.88s-5.41-4.64-7.1-8.14-2.53-7.58-2.53-12.25.85-8.74,2.56-12.22c1.71-3.48,4.11-6.18,7.2-8.1,3.09-1.92,6.67-2.88,10.73-2.88,4.41,0,8.23,1.09,11.47,3.27,3.24,2.18,5.57,5.2,7,9.04l-3.95,1.49c-1.17-3.02-2.98-5.4-5.44-7.13-2.46-1.73-5.49-2.59-9.08-2.59-3.28,0-6.15.78-8.59,2.33-2.44,1.55-4.33,3.76-5.67,6.61-1.34,2.85-2.01,6.25-2.01,10.18s.67,7.34,2.01,10.21c1.34,2.88,3.23,5.09,5.67,6.64,2.44,1.56,5.3,2.33,8.59,2.33,1.69,0,3.38-.23,5.09-.68,1.71-.45,3.29-1.24,4.76-2.37,1.47-1.12,2.65-2.67,3.53-4.64.89-1.96,1.33-4.46,1.33-7.49v-3.7l.97,2.85h-12.58v-3.82h15.36v23.27h-3.76l-.58-9.59.71.45c-.73,2.33-1.88,4.21-3.44,5.64-1.56,1.43-3.35,2.48-5.38,3.14-2.03.67-4.11,1-6.22,1Z"/>
  <path class="cls-1" d="m51.68,361.51v-31.96h4.15v8.49l-1.04.19c.35-1.99,1.1-3.65,2.27-4.99s2.53-2.37,4.08-3.08c1.56-.71,3.05-1.07,4.47-1.07.86,0,1.74.1,2.63.29.88.19,1.74.51,2.56.94l-2.01,3.69c-.56-.26-1.19-.47-1.88-.65-.69-.17-1.36-.26-2.01-.26-1.12,0-2.25.22-3.37.65-1.12.43-2.15,1.11-3.08,2.04-.93.93-1.61,2.17-2.04,3.73-.17.65-.31,1.45-.42,2.4-.11.95-.16,2.27-.16,3.95v15.62h-4.15Z"/>
  <path class="cls-1" d="m87.59,361.97c-2.25,0-4.19-.46-5.83-1.39-1.64-.93-2.91-2.31-3.79-4.15-.89-1.84-1.33-4.16-1.33-6.97v-19.9h4.08v18.47c0,2.33.3,4.27.91,5.8.6,1.53,1.49,2.68,2.66,3.44,1.17.76,2.64,1.13,4.41,1.13,1.9,0,3.52-.45,4.86-1.36,1.34-.91,2.37-2.29,3.08-4.15.71-1.86,1.07-4.23,1.07-7.13v-16.21h4.08v31.96h-4.08v-7.45h.97c-.82,2.64-2.21,4.61-4.18,5.93-1.97,1.32-4.27,1.98-6.9,1.98Zm-6.61-38.64v-7h4.86v7h-4.86Zm11.6,0v-7h4.86v7h-4.86Z"/>
  <path class="cls-1" d="m124.6,361.97c-2.38,0-4.48-.41-6.32-1.23-1.84-.82-3.36-1.97-4.57-3.44-1.21-1.47-2.13-3.2-2.75-5.19-.63-1.99-.94-4.1-.94-6.35s.3-4.44.91-6.45c.6-2.01,1.5-3.78,2.69-5.31,1.19-1.53,2.66-2.73,4.41-3.6,1.75-.86,3.77-1.3,6.06-1.3,2.42,0,4.51.42,6.25,1.26,1.75.84,3.18,1.99,4.28,3.43,1.1,1.45,1.92,3.04,2.46,4.76.54,1.73.81,3.48.81,5.25,0,.35-.01.8-.03,1.36-.02.56-.08,1.04-.16,1.43h-23.66c.09,3.67,1.07,6.53,2.95,8.56s4.42,3.05,7.62,3.05c2.03,0,3.77-.31,5.22-.94,1.45-.63,2.84-1.68,4.18-3.14l2.92,2.59c-1.21,1.25-2.44,2.26-3.7,3.01-1.25.76-2.58,1.32-3.99,1.69-1.41.37-2.95.55-4.64.55Zm9.2-17.44c.09-.35.13-.7.13-1.07v-1.07c0-1.12-.18-2.27-.55-3.43-.37-1.17-.94-2.23-1.72-3.18-.78-.95-1.79-1.73-3.05-2.33-1.25-.61-2.74-.91-4.47-.91-1.99,0-3.73.5-5.22,1.49-1.49,1-2.65,2.31-3.47,3.96-.82,1.64-1.3,3.5-1.43,5.57h21.13l-1.36.97Z"/>
  <path class="cls-1" d="m143.72,361.51v-3.05l21.46-26.38.19.78h-20.61v-3.31h24.37v3.31l-21.33,26.45-.13-1.17h21.26v3.37h-25.22Z"/>
  <path class="cls-1" d="m176.46,323.33v-7h4.86v7h-4.86Zm.39,38.18v-31.96h4.08v31.96h-4.08Z"/>
  <path class="cls-1" d="m187.67,371.63l6.94-19.32h4.54l-8.62,19.32h-2.85Z"/>
  <path class="cls-1" d="m242.39,356.07c-3.48,0-5.19,1.46-5.19,2.34,0,3.29,2.31,9.37,4.05,16.02.19.73.38,1.9.38,2.82,0,1.61-.35,3.13-.73,4.65l-.76-.09c-.06-3.73-2.6-10.1-4.62-16.71-.32-1.08-.6-2.63-.6-3.64,0-1.42.28-2.82.82-4.18.66-1.77,1.58-3.26,2.85-4.11-.25-1.39-.47-2.98-.47-4.11,0-1.3.92-3.04,1.77-3.8s1.84-1.3,2.94-1.3c1.46,0,2.79.41,3.99,1.39,1.96,1.65,3.58,3.7,4.84,6.17.25.54.41,1.39.41,2.03,0,1.04-.57,2.41-1.08,3.36-2.88-.44-5.73-.82-8.61-.82Zm6.33-3.61c-1.8-2.41-3.73-4.75-6.74-4.75-.63,0-1.3.13-1.93.35l.09,1.65c-.19,1.17-.51,2.31-.79,3.04,1.11-.38,2.69-.57,4.3-.57,1.08,0,3.13.22,4.94.63l.13-.35Z"/>
  <path class="cls-1" d="m268.22,345.18l2.25,4.27c.82,1.58,1.58,3.29,1.58,6.01v3.48c0,2.82-1.52,5.82-3.99,8.8-1.93,2.03-3.64,2.88-5.22,2.88-2.34,0-5.03-.85-8.13-2.44l.35-1.08c.98.32,2.12.57,3.51.57,4.46-.03,9.02-3.86,11.11-8.55.25-.54.35-1.04.35-1.39,0-.54-.25-1.14-.44-1.68-1.14-2.53-2.41-4.84-3.8-6.96.73-1.36,1.46-2.66,2.25-3.96l.19.03Z"/>
  <path class="cls-1" d="m292.37,351.16c-3.67-1.36-5.89-1.77-8.8-1.77-1.8,0-3.13.57-4.02,1.58l.63,2.66-.89,2.5-.35.09-1.84-5c.25-3.51,3.07-5.7,6.87-5.7,2.12,0,5.48.76,10.38,2.75,1.52.6,3.07.98,5.41,1.01l2.79-.03.03.06-1.9,3.2c-2.15.22-6.99,1.55-8.45,2.09-6.93,2.6-11.71,6.33-11.71,10.54,0,6.58,6.96,10.38,15.79,10.38,2.85,0,5.54-.28,8.13-.7l.09.32c-1.61,1.33-3.42,2.79-5.16,3.77-1.65.32-3.73.57-5.98.57-8.32,0-15.26-4.05-15.26-12.85,0-7.53,6.36-13.52,14.24-15.38l-.03-.09Z"/>
  <path class="cls-1" d="m323.48,362.78c-8.77,0-15.51-3.23-15.51-11.01,0-2.56.51-5.1,1.87-7.66l1.27.54c-.6,1.8-.92,3.42-.92,4.81,0,6.39,6.3,9.02,14.24,9.02,3.7,0,7.31-.54,10.82-1.36,1.46-.35,2.88-.73,4.18-1.3.25-.09.32-.25.32-.35,0-1.49-1.52-4.59-3.17-7.82.76-1.36,1.55-2.56,2.37-3.58h.16c1.46,2.56,3.17,6.52,3.17,9.65,0,2.37-.79,3.8-1.68,5.29-2.75,1.68-10.86,3.77-17.12,3.77Zm1.11,5.7c1.3.95,2.56,2.09,3.8,3.39-.7,1.14-1.55,2.18-2.63,3.1-1.23-1.17-2.47-2.18-3.73-3.26.85-1.14,1.71-2.25,2.56-3.23Z"/>
  <path class="cls-1" d="m348.36,362.05c.32-1.99.35-4.24.35-6.33v-3.1c0-5.79-.63-14.21-1.14-19.69.89-1.14,2.12-2.47,3.1-3.36l.28.09c.66,6.9.82,14.91.82,22.28,0,1.93-.06,3.83-.22,5.22-.09,1.74-.95,3.07-2.79,5.1l-.41-.22Z"/>
  <path class="cls-1" d="m356.69,371.63l6.94-19.32h4.54l-8.62,19.32h-2.85Z"/>
  <path class="cls-1" d="m392.86,361.51v-45.18h6.35l15.43,37.34h-.84l15.49-37.34h6.22v45.18h-4.21v-40.32l.26.06-15.23,36.5h-4.21l-15.3-36.5.26-.06v40.32h-4.21Z"/>
  <path class="cls-1" d="m459.18,361.97c-2.38,0-4.48-.41-6.32-1.23-1.84-.82-3.36-1.97-4.57-3.44-1.21-1.47-2.13-3.2-2.75-5.19-.63-1.99-.94-4.1-.94-6.35s.3-4.44.91-6.45c.6-2.01,1.5-3.78,2.69-5.31,1.19-1.53,2.66-2.73,4.41-3.6,1.75-.86,3.77-1.3,6.06-1.3,2.42,0,4.51.42,6.26,1.26,1.75.84,3.18,1.99,4.28,3.43,1.1,1.45,1.92,3.04,2.46,4.76.54,1.73.81,3.48.81,5.25,0,.35-.01.8-.03,1.36-.02.56-.08,1.04-.16,1.43h-23.66c.09,3.67,1.07,6.53,2.95,8.56s4.42,3.05,7.62,3.05c2.03,0,3.77-.31,5.22-.94s2.84-1.68,4.18-3.14l2.92,2.59c-1.21,1.25-2.44,2.26-3.7,3.01-1.25.76-2.58,1.32-3.99,1.69-1.41.37-2.95.55-4.64.55Zm9.2-17.44c.09-.35.13-.7.13-1.07v-1.07c0-1.12-.18-2.27-.55-3.43-.37-1.17-.94-2.23-1.72-3.18-.78-.95-1.79-1.73-3.05-2.33s-2.74-.91-4.47-.91c-1.99,0-3.73.5-5.22,1.49-1.49,1-2.65,2.31-3.47,3.96-.82,1.64-1.3,3.5-1.43,5.57h21.13l-1.36.97Z"/>
  <path class="cls-1" d="m480.96,361.51v-31.96h4.15v8.49l-1.04.19c.35-1.99,1.1-3.65,2.27-4.99,1.17-1.34,2.53-2.37,4.08-3.08,1.56-.71,3.05-1.07,4.47-1.07.86,0,1.74.1,2.63.29.88.19,1.74.51,2.56.94l-2.01,3.69c-.56-.26-1.19-.47-1.88-.65-.69-.17-1.36-.26-2.01-.26-1.12,0-2.25.22-3.37.65-1.12.43-2.15,1.11-3.08,2.04s-1.61,2.17-2.04,3.73c-.17.65-.31,1.45-.42,2.4-.11.95-.16,2.27-.16,3.95v15.62h-4.15Z"/>
  <path class="cls-1" d="m506.69,361.51v-45.18h4.15v20.68l-1.04.32c.56-1.77,1.37-3.26,2.43-4.47,1.06-1.21,2.31-2.14,3.76-2.79,1.45-.65,3.06-.97,4.83-.97,3.5,0,6.21,1.05,8.14,3.14,1.92,2.1,2.88,5.2,2.88,9.3v19.96h-4.08v-18.47c0-3.54-.66-6.16-1.98-7.84-1.32-1.69-3.3-2.53-5.93-2.53-2.77,0-4.96,1.04-6.58,3.11-1.62,2.07-2.43,5.38-2.43,9.92v15.82h-4.15Z"/>
  <path class="cls-1" d="m551.29,361.97c-2.38,0-4.44-.41-6.19-1.23s-3.09-1.95-4.02-3.4c-.93-1.45-1.39-3.14-1.39-5.09,0-1.73.33-3.19,1-4.38s1.54-2.13,2.63-2.82c1.17-.78,2.5-1.32,3.99-1.62,1.49-.3,3.1-.45,4.83-.45h10.57v3.11h-10.05c-1.25,0-2.48.11-3.66.32-1.19.22-2.19.65-3.01,1.3-.69.48-1.22,1.09-1.59,1.85-.37.76-.55,1.65-.55,2.69,0,1.94.7,3.49,2.11,4.63,1.4,1.15,3.32,1.72,5.74,1.72,1.94,0,3.72-.46,5.31-1.39,1.6-.93,2.89-2.21,3.86-3.86.97-1.64,1.46-3.48,1.46-5.51l1.75,1.94c-.22,2.42-.91,4.56-2.07,6.42-1.17,1.86-2.68,3.28-4.54,4.28-1.86,1-3.91,1.49-6.16,1.49Zm11.28-.45l-.26-7.26v-12.64c0-2.94-.76-5.16-2.27-6.68-1.51-1.51-3.74-2.27-6.68-2.27-1.9,0-3.65.38-5.25,1.13-1.6.76-3.11,2.04-4.54,3.86l-2.98-2.53c1.73-2.08,3.66-3.6,5.8-4.57s4.55-1.46,7.23-1.46c4.06,0,7.2,1.07,9.4,3.21,2.2,2.14,3.31,5.24,3.31,9.3v19.9h-3.76Z"/>
  <path class="cls-1" d="m591.35,361.97c-2.08,0-3.97-.42-5.67-1.26-1.71-.84-3.14-2.02-4.31-3.53s-2.03-3.26-2.59-5.25l1.3-.45v10.05h-4.08v-45.18h4.08v23.21l-1.1-.65c.47-1.86,1.3-3.52,2.46-4.99,1.17-1.47,2.59-2.64,4.28-3.5,1.69-.86,3.57-1.3,5.64-1.3,2.72,0,5.17.68,7.36,2.04,2.18,1.36,3.92,3.27,5.22,5.74,1.3,2.46,1.94,5.34,1.94,8.62,0,3.11-.62,5.91-1.85,8.39-1.23,2.49-2.94,4.45-5.12,5.9-2.18,1.45-4.7,2.17-7.55,2.17Zm-.65-3.76c2.16,0,4.07-.55,5.74-1.65,1.66-1.1,2.97-2.6,3.92-4.5.95-1.9,1.43-4.08,1.43-6.55s-.48-4.65-1.43-6.55c-.95-1.9-2.26-3.39-3.92-4.47s-3.58-1.62-5.74-1.62-4.06.54-5.7,1.62-2.93,2.57-3.86,4.47c-.93,1.9-1.39,4.08-1.39,6.55s.46,4.65,1.39,6.55c.93,1.9,2.21,3.4,3.86,4.5,1.64,1.1,3.54,1.65,5.7,1.65Z"/>
  <path class="cls-1" d="m624.15,361.97c-2.38,0-4.44-.41-6.19-1.23s-3.09-1.95-4.02-3.4c-.93-1.45-1.39-3.14-1.39-5.09,0-1.73.33-3.19,1-4.38s1.54-2.13,2.63-2.82c1.17-.78,2.5-1.32,3.99-1.62,1.49-.3,3.1-.45,4.83-.45h10.57v3.11h-10.05c-1.25,0-2.48.11-3.66.32-1.19.22-2.19.65-3.01,1.3-.69.48-1.22,1.09-1.59,1.85-.37.76-.55,1.65-.55,2.69,0,1.94.7,3.49,2.11,4.63,1.4,1.15,3.32,1.72,5.74,1.72,1.94,0,3.72-.46,5.31-1.39,1.6-.93,2.89-2.21,3.86-3.86.97-1.64,1.46-3.48,1.46-5.51l1.75,1.94c-.22,2.42-.91,4.56-2.07,6.42-1.17,1.86-2.68,3.28-4.54,4.28-1.86,1-3.91,1.49-6.16,1.49Zm11.28-.45l-.26-7.26v-12.64c0-2.94-.76-5.16-2.27-6.68-1.51-1.51-3.74-2.27-6.68-2.27-1.9,0-3.65.38-5.25,1.13-1.6.76-3.11,2.04-4.54,3.86l-2.98-2.53c1.73-2.08,3.66-3.6,5.8-4.57s4.55-1.46,7.23-1.46c4.06,0,7.2,1.07,9.4,3.21,2.2,2.14,3.31,5.24,3.31,9.3v19.9h-3.76Z"/>
  <path class="cls-1" d="m645.6,371.63l6.94-19.32h4.54l-8.62,19.32h-2.85Z"/>
  <path class="cls-1" d="m31.09,410.34v3.6h-7.7v28.74h-.53l-3.44-3.44v-14.1h-8.2c-1.2,0-1.93.22-2.19.67-.26.45-.39,1.37-.39,2.77,0,.71.06,1.49.18,2.35.05.49.08,1.01.08,1.57,0,.76-.32,1.14-.96,1.14-.76,0-1.9-1.15-3.41-3.44-1.51-2.3-2.27-4.12-2.27-5.47,0-.94.31-1.71.94-2.29.62-.58,1.35-.87,2.18-.87h14.05v-7.62H0v-3.6h31.09Z"/>
  <path class="cls-1" d="m64.38,410.34v3.6h-7.7v28.82h-1.14l-2.84-3.32v-10.2h-10.41v4.3c0,1.01-.33,1.52-.99,1.52s-2.11-1.23-4.39-3.68c-2.29-2.46-3.43-4.1-3.43-4.92,0-.52.4-.78,1.19-.78h3.65v-11.72h-7.5v-3.6h33.55Zm-22.08,15.32h10.41v-11.72h-10.41v11.72Z"/>
  <path class="cls-1" d="m98.37,410.34v3.6h-7.67v28.82h-1.14l-2.84-3.24v-13.27c-2.4,1.2-4.25,1.8-5.57,1.8-1.82,0-3.94-.46-6.36-1.39-1.05,2.16-2.11,3.76-3.19,4.79,1.65,2.03,3.19,3.86,4.62,5.49,1.43,1.64,2.74,3.07,3.94,4.3l-.73.86c-2.47-2.6-4.54-4.87-6.23-6.8-1.69-1.93-2.99-3.53-3.9-4.8-1.82-2.55-2.73-4.56-2.73-6.03,0-.86.2-1.51.6-1.94.4-.43.99-.65,1.79-.65.93,0,1.99.29,3.19.86.79-1.16,1.19-2.77,1.19-4.81,0-1.25-.35-2.58-1.06-4h-8.15v-3.6h34.26Zm-11.65,3.6h-11.22c.59,1.6.89,3.33.89,5.17,0,1.33-.23,2.96-.68,4.89,2.45.84,4.44,1.27,5.98,1.27s2.76-.39,3.67-1.18,1.37-1.68,1.37-2.67v-7.47Z"/>
  <path class="cls-1" d="m99.85,455.95h-1.19c-.73-2.67-2.12-4.77-4.18-6.32-2.06-1.54-4.39-2.32-6.99-2.32-.34,0-.68.02-1.04.05l-1.32-3.98c3.83-.25,7.04.75,9.61,3.01,2.57,2.26,4.27,5.44,5.1,9.55Z"/>
  <path class="cls-1" d="m129.66,410.34v3.6h-7.7v28.82h-1.19l-2.79-3.24v-15.98h-6.28c-2.7,0-4.58.45-5.65,1.34-1.06.9-1.6,2.13-1.6,3.7,0,1.67.68,3.49,2.04,5.44,1.36,1.96,3.57,4.52,6.65,7.67l-.86.81c-4.27-4.19-7.07-7.38-8.41-9.6-1.33-2.21-2-4.43-2-6.66,0-1.89.53-3.41,1.6-4.56,1.06-1.15,2.89-1.72,5.49-1.72h9.01v-6.03h-19.42v-3.6h31.09Z"/>
  <path class="cls-1" d="m103.42,400.09l-1.62-4.3h2.61c1.49,0,2.9.25,4.24.75,1.34.5,2.57,1.23,3.67,2.19,1.11.96,2.54,2.65,4.32,5.06l5.22,7.09h-1.57l-4.28-5.57c-1.4-1.82-2.78-3.15-4.14-3.98-1.36-.83-3.03-1.24-5-1.24h-3.44Z"/>
  <path class="cls-1" d="m131.69,452.01l6.94-19.32h4.54l-8.62,19.32h-2.85Z"/>
  <path class="cls-1" d="m165.19,441.89l15.75-22.75-15.43-22.43h5.06l13.29,19.38,13.35-19.38h5.06l-15.49,22.43,15.82,22.75h-5.06l-13.68-19.64-13.61,19.64h-5.06Z"/>
  <path class="cls-1" d="m208.1,403.71v-7h4.86v7h-4.86Zm.39,38.18v-31.96h4.08v31.96h-4.08Z"/>
  <path class="cls-1" d="m222.56,441.89v-31.96h4.15v7.45l-.97.32c.56-1.77,1.36-3.26,2.4-4.47,1.04-1.21,2.28-2.14,3.73-2.79,1.45-.65,3.06-.97,4.83-.97,3.46,0,6.16,1.03,8.1,3.08,1.94,2.05,2.92,5.18,2.92,9.37v19.96h-4.08v-18.47c0-3.54-.66-6.16-1.98-7.84-1.32-1.69-3.3-2.53-5.93-2.53-1.81,0-3.4.44-4.76,1.33-1.36.89-2.41,2.29-3.14,4.21-.73,1.92-1.1,4.42-1.1,7.49v15.82h-4.15Z"/>
  <path class="cls-1" d="m287.12,442.35c-2.25,0-4.26-.42-6.03-1.26-1.77-.84-3.27-2.02-4.51-3.53-1.23-1.51-2.17-3.26-2.82-5.25s-.97-4.13-.97-6.42.32-4.36.97-6.35c.65-1.99,1.59-3.74,2.82-5.25,1.23-1.51,2.73-2.69,4.51-3.53,1.77-.84,3.78-1.26,6.03-1.26,2.89,0,5.45.71,7.65,2.14,2.2,1.43,3.85,3.61,4.93,6.55l-3.7,1.43c-.69-2.03-1.79-3.63-3.31-4.8-1.51-1.17-3.37-1.75-5.58-1.75-2.33,0-4.26.61-5.77,1.82-1.51,1.21-2.65,2.79-3.4,4.73-.76,1.94-1.13,4.04-1.13,6.29s.38,4.35,1.13,6.32c.76,1.97,1.89,3.56,3.4,4.76,1.51,1.21,3.44,1.82,5.77,1.82,2.2,0,4.06-.58,5.58-1.75,1.51-1.17,2.61-2.79,3.31-4.86l3.7,1.43c-1.04,2.9-2.66,5.08-4.86,6.55-2.2,1.47-4.78,2.2-7.71,2.2Z"/>
  <path class="cls-1" d="m307.67,441.89v-45.18h4.15v20.68l-1.04.32c.56-1.77,1.37-3.26,2.43-4.47,1.06-1.21,2.31-2.14,3.76-2.79,1.45-.65,3.06-.97,4.83-.97,3.5,0,6.21,1.05,8.14,3.14,1.92,2.1,2.88,5.2,2.88,9.3v19.96h-4.08v-18.47c0-3.54-.66-6.16-1.98-7.84-1.32-1.69-3.3-2.53-5.93-2.53-2.77,0-4.96,1.04-6.58,3.11-1.62,2.07-2.43,5.38-2.43,9.92v15.82h-4.15Z"/>
  <path class="cls-1" d="m352.26,442.35c-2.38,0-4.44-.41-6.19-1.23s-3.09-1.95-4.02-3.4c-.93-1.45-1.39-3.14-1.39-5.09,0-1.73.33-3.19,1-4.38.67-1.19,1.54-2.13,2.63-2.82,1.17-.78,2.5-1.32,3.99-1.62,1.49-.3,3.1-.45,4.83-.45h10.57v3.11h-10.05c-1.25,0-2.47.11-3.66.32-1.19.22-2.19.65-3.01,1.3-.69.48-1.22,1.09-1.59,1.85-.37.76-.55,1.65-.55,2.69,0,1.94.7,3.49,2.11,4.63,1.4,1.15,3.32,1.72,5.74,1.72,1.94,0,3.72-.46,5.31-1.39,1.6-.93,2.88-2.21,3.86-3.86.97-1.64,1.46-3.48,1.46-5.51l1.75,1.94c-.22,2.42-.91,4.56-2.07,6.42-1.17,1.86-2.68,3.28-4.54,4.28-1.86,1-3.91,1.49-6.16,1.49Zm11.28-.45l-.26-7.26v-12.64c0-2.94-.76-5.16-2.27-6.68-1.51-1.51-3.74-2.27-6.68-2.27-1.9,0-3.65.38-5.25,1.13-1.6.76-3.11,2.04-4.54,3.86l-2.98-2.53c1.73-2.08,3.66-3.6,5.8-4.57s4.55-1.46,7.23-1.46c4.06,0,7.2,1.07,9.4,3.21,2.2,2.14,3.31,5.24,3.31,9.3v19.9h-3.76Zm-10.24-36.11l-7.91-9.08h4.34l6.74,9.08h-3.18Z"/>
  <path class="cls-1" d="m390.45,442.35c-2.94,0-5.56-.7-7.88-2.11s-4.12-3.35-5.41-5.83-1.94-5.33-1.94-8.52.64-6.03,1.91-8.49c1.27-2.46,3.07-4.4,5.38-5.8,2.31-1.4,4.96-2.11,7.94-2.11s5.61.7,7.88,2.11c2.27,1.41,4.06,3.34,5.38,5.8,1.32,2.46,1.98,5.29,1.98,8.49s-.66,6.04-1.98,8.52c-1.32,2.49-3.12,4.43-5.41,5.83-2.29,1.4-4.9,2.11-7.84,2.11Zm0-3.63c2.25,0,4.2-.54,5.87-1.62,1.66-1.08,2.95-2.58,3.86-4.5.91-1.92,1.36-4.16,1.36-6.71s-.45-4.85-1.36-6.77c-.91-1.92-2.19-3.41-3.86-4.47-1.66-1.06-3.62-1.59-5.87-1.59s-4.21.54-5.9,1.62c-1.69,1.08-2.99,2.57-3.92,4.47s-1.39,4.15-1.39,6.74.46,4.79,1.39,6.71c.93,1.92,2.24,3.43,3.92,4.5,1.69,1.08,3.65,1.62,5.9,1.62Z"/>
  <path class="cls-1" d="m410.8,452.01l6.94-19.32h4.54l-8.62,19.32h-2.85Z"/>
  <path class="cls-1" d="m457.99,442.54c-4.11,0-7.45-1.23-10.05-3.69-2.59-2.46-4.04-5.86-4.34-10.18l4.15-.39c.26,3.41,1.29,5.99,3.08,7.71,1.79,1.73,4.18,2.59,7.16,2.59,3.37,0,5.87-1.12,7.49-3.37s2.43-5.49,2.43-9.72v-24.96h-18.41v-3.82h22.62v28.98c0,3.54-.55,6.58-1.65,9.11-1.1,2.53-2.7,4.45-4.8,5.77s-4.66,1.98-7.68,1.98Z"/>
  <path class="cls-1" d="m491.57,442.35c-2.38,0-4.44-.41-6.19-1.23-1.75-.82-3.09-1.95-4.02-3.4-.93-1.45-1.39-3.14-1.39-5.09,0-1.73.33-3.19,1-4.38s1.54-2.13,2.63-2.82c1.17-.78,2.5-1.32,3.99-1.62,1.49-.3,3.1-.45,4.83-.45h10.57v3.11h-10.05c-1.25,0-2.48.11-3.66.32-1.19.22-2.19.65-3.01,1.3-.69.48-1.22,1.09-1.59,1.85-.37.76-.55,1.65-.55,2.69,0,1.94.7,3.49,2.11,4.63,1.4,1.15,3.32,1.72,5.74,1.72,1.94,0,3.72-.46,5.31-1.39,1.6-.93,2.88-2.21,3.86-3.86.97-1.64,1.46-3.48,1.46-5.51l1.75,1.94c-.22,2.42-.91,4.56-2.08,6.42-1.17,1.86-2.68,3.28-4.54,4.28-1.86,1-3.91,1.49-6.16,1.49Zm11.28-.45l-.26-7.26v-12.64c0-2.94-.76-5.16-2.27-6.68-1.51-1.51-3.74-2.27-6.68-2.27-1.9,0-3.65.38-5.25,1.13-1.6.76-3.11,2.04-4.54,3.86l-2.98-2.53c1.73-2.08,3.66-3.6,5.8-4.57,2.14-.97,4.55-1.46,7.23-1.46,4.06,0,7.2,1.07,9.4,3.21,2.2,2.14,3.31,5.24,3.31,9.3v19.9h-3.76Z"/>
  <path class="cls-1" d="m516.26,441.89v-31.96h4.15v8.23h-.84c.39-1.51.91-2.81,1.55-3.89.65-1.08,1.43-1.98,2.33-2.69.91-.71,1.89-1.24,2.95-1.59,1.06-.35,2.17-.52,3.34-.52,1.9,0,3.58.36,5.02,1.07,1.45.71,2.63,1.81,3.53,3.27.91,1.47,1.53,3.35,1.88,5.64l-2.27.13c.61-2.2,1.39-4.05,2.37-5.54.97-1.49,2.19-2.63,3.66-3.4,1.47-.78,3.2-1.17,5.19-1.17,2.59,0,4.67.6,6.22,1.78,1.56,1.19,2.68,2.78,3.37,4.76.69,1.99,1.04,4.26,1.04,6.81v19.06h-4.08v-18.15c0-2.2-.24-4.1-.71-5.7-.48-1.6-1.25-2.83-2.33-3.7-1.08-.86-2.55-1.3-4.41-1.3-1.6,0-3.01.42-4.25,1.26-1.23.84-2.18,2.13-2.85,3.86-.67,1.73-1.01,3.89-1.01,6.48v17.24h-4.15v-18.73c0-3.41-.62-5.95-1.85-7.62-1.23-1.66-3.06-2.5-5.48-2.5-1.6,0-3.03.43-4.28,1.3-1.25.86-2.23,2.18-2.92,3.95-.69,1.77-1.04,4.02-1.04,6.74v16.85h-4.15Z"/>
  <path class="cls-1" d="m584.78,442.35c-2.08,0-3.97-.42-5.67-1.26-1.71-.84-3.14-2.02-4.31-3.53s-2.03-3.26-2.59-5.25l1.3-.45v10.05h-4.08v-45.18h4.08v23.21l-1.1-.65c.47-1.86,1.3-3.52,2.46-4.99,1.17-1.47,2.59-2.64,4.28-3.5,1.69-.86,3.57-1.3,5.64-1.3,2.72,0,5.17.68,7.36,2.04,2.18,1.36,3.92,3.27,5.22,5.74,1.3,2.46,1.94,5.34,1.94,8.62,0,3.11-.62,5.91-1.85,8.39-1.23,2.49-2.94,4.45-5.12,5.9-2.18,1.45-4.7,2.17-7.55,2.17Zm-.65-3.76c2.16,0,4.07-.55,5.74-1.65,1.66-1.1,2.97-2.6,3.92-4.5.95-1.9,1.43-4.08,1.43-6.55s-.48-4.65-1.43-6.55c-.95-1.9-2.26-3.39-3.92-4.47s-3.58-1.62-5.74-1.62-4.06.54-5.7,1.62-2.93,2.57-3.86,4.47c-.93,1.9-1.39,4.08-1.39,6.55s.46,4.65,1.39,6.55c.93,1.9,2.21,3.4,3.86,4.5,1.64,1.1,3.54,1.65,5.7,1.65Z"/>
  <path class="cls-1" d="m621.54,442.35c-2.94,0-5.56-.7-7.88-2.11s-4.12-3.35-5.41-5.83-1.94-5.33-1.94-8.52.64-6.03,1.91-8.49c1.27-2.46,3.07-4.4,5.38-5.8,2.31-1.4,4.96-2.11,7.94-2.11s5.61.7,7.88,2.11c2.27,1.41,4.06,3.34,5.38,5.8,1.32,2.46,1.98,5.29,1.98,8.49s-.66,6.04-1.98,8.52-3.12,4.43-5.41,5.83-4.9,2.11-7.84,2.11Zm0-3.63c2.25,0,4.2-.54,5.87-1.62,1.66-1.08,2.95-2.58,3.86-4.5.91-1.92,1.36-4.16,1.36-6.71s-.45-4.85-1.36-6.77c-.91-1.92-2.19-3.41-3.86-4.47-1.66-1.06-3.62-1.59-5.87-1.59s-4.21.54-5.9,1.62c-1.69,1.08-2.99,2.57-3.92,4.47s-1.39,4.15-1.39,6.74.46,4.79,1.39,6.71c.93,1.92,2.24,3.43,3.92,4.5,1.69,1.08,3.65,1.62,5.9,1.62Z"/>
</svg>