<?xml version="1.0" encoding="UTF-8"?>
<svg id="Layer_1" data-name="Layer 1" xmlns="http://www.w3.org/2000/svg" viewBox="0 0 502.86 225.45">
  <defs>
    <style>
      .cls-1 {
        opacity: .92;
      }

      .cls-2 {
        fill: #1d1d1b;
        stroke-width: 0px;
      }
    </style>
  </defs>
  <g class="cls-1">
    <path class="cls-2" d="m1.7,28.3L12.67,2.56h2.33l10.93,25.75h-3.01L13.85,5.92,4.79,28.3H1.7Zm5.42-6.61l.89-2.18h11.65l.93,2.18H7.12Z"/>
    <path class="cls-2" d="m33.51,28.56c-1.19,0-2.13-.33-2.84-.98-.71-.65-1.06-1.69-1.06-3.12V2.56h2.67v21.5c0,.84.18,1.44.55,1.81.37.37.86.55,1.48.55.28,0,.59-.03.93-.09.34-.06.69-.14,1.06-.24v1.99c-.48.15-.97.26-1.46.35-.49.09-.94.13-1.33.13Z"/>
    <path class="cls-2" d="m49.14,28.56c-1.86,0-3.51-.41-4.94-1.24-1.43-.82-2.54-1.95-3.35-3.36-.81-1.42-1.21-3.01-1.21-4.78,0-1.87.42-3.51,1.27-4.91s1.99-2.49,3.43-3.27c1.44-.78,3.04-1.16,4.79-1.16,1.38,0,2.63.24,3.73.72,1.1.48,2.03,1.14,2.8,1.98.76.84,1.28,1.79,1.57,2.84l-.72.41V2.56h2.67v25.75h-2.67v-5.73l.85.26c-.37,1.13-.93,2.13-1.69,2.99-.76.86-1.69,1.53-2.8,2.01-1.1.48-2.34.72-3.73.72Zm.42-2.14c1.41,0,2.65-.31,3.73-.94,1.07-.63,1.91-1.48,2.52-2.57.61-1.08.91-2.33.91-3.73s-.3-2.65-.91-3.73c-.61-1.08-1.45-1.93-2.52-2.55-1.07-.62-2.32-.92-3.73-.92s-2.63.31-3.73.92c-1.1.62-1.96,1.47-2.58,2.55-.62,1.08-.93,2.33-.93,3.73s.31,2.65.93,3.73c.62,1.08,1.48,1.94,2.58,2.57,1.1.63,2.34.94,3.73.94Z"/>
    <path class="cls-2" d="m65.75,28.3V10.09h2.71v4.84l-.68.11c.23-1.13.72-2.08,1.48-2.84.76-.76,1.65-1.35,2.67-1.75,1.02-.41,1.99-.61,2.92-.61.57,0,1.14.06,1.72.17s1.14.29,1.67.54l-1.31,2.11c-.37-.15-.78-.27-1.23-.37-.45-.1-.89-.15-1.31-.15-.73,0-1.47.12-2.2.37-.73.25-1.41.63-2.01,1.16-.61.53-1.05,1.24-1.34,2.12-.11.37-.21.83-.27,1.37-.07.54-.11,1.29-.11,2.25v8.9h-2.71Z"/>
    <path class="cls-2" d="m82.31,6.54v-3.99h3.18v3.99h-3.18Zm.25,21.76V10.09h2.67v18.21h-2.67Z"/>
    <path class="cls-2" d="m99.97,36.13c-2.97,0-5.3-.48-7.01-1.44-1.71-.96-2.56-2.29-2.56-3.99v-.46c0-.18.03-.35.09-.5l4.83-3.36,1.02.59-3.26,3.29c-.03.1-.04.19-.04.28v.24c0,1.18.65,2.07,1.95,2.66,1.3.59,2.97.89,5,.89,1.72,0,3.14-.24,4.26-.72,1.12-.48,1.67-1.23,1.67-2.23,0-.59-.19-1.07-.57-1.42-.38-.36-.91-.64-1.59-.85-.68-.21-1.47-.38-2.37-.52-.91-.14-1.88-.28-2.92-.42-1.24-.17-2.44-.41-3.58-.72-1.14-.31-2.08-.75-2.8-1.33-.72-.58-1.08-1.36-1.08-2.35,0-.84.31-1.58.93-2.23.62-.65,1.48-1.21,2.58-1.68l1.69,1.03c-.96.25-1.65.59-2.05,1.02-.41.43-.61.94-.61,1.53s.22,1.02.66,1.37c.44.35,1.04.61,1.82.79.78.18,1.69.34,2.73.46,1.3.17,2.53.36,3.71.55,1.17.2,2.22.47,3.13.81.92.35,1.64.81,2.16,1.39.52.58.78,1.35.78,2.31,0,1.63-.77,2.87-2.31,3.73-1.54.86-3.62,1.29-6.25,1.29Zm-.59-13.85c-1.52,0-2.89-.26-4.09-.78-1.2-.52-2.13-1.24-2.8-2.18-.66-.94-1-2.01-1-3.21s.35-2.32,1.04-3.27,1.63-1.69,2.82-2.22,2.5-.79,3.94-.79,2.75.26,3.92.79,2.1,1.27,2.8,2.23c.69.96,1.04,2.08,1.04,3.36,0,1.21-.33,2.27-1,3.18-.66.91-1.57,1.62-2.71,2.12-1.14.51-2.46.76-3.96.76Zm-.04-1.92c1.55,0,2.78-.41,3.69-1.22s1.36-1.83,1.36-3.07c0-1.31-.46-2.36-1.4-3.16-.93-.8-2.15-1.2-3.64-1.2s-2.77.41-3.73,1.22c-.96.81-1.44,1.85-1.44,3.1s.46,2.26,1.4,3.08c.93.83,2.19,1.24,3.77,1.24Zm6.4-7.13l-1.95-1.15,4.19-3.1,1.36,1.48-3.6,2.77Z"/>
    <path class="cls-2" d="m111.03,34.07l4.53-11.01h2.97l-5.63,11.01h-1.86Z"/>
    <path class="cls-2" d="m134.67,28.3V2.56h3.01l15.84,22.64h-.55V2.56h2.75v25.75h-3.09l-15.76-22.68h.55v22.68h-2.75Z"/>
    <path class="cls-2" d="m171.18,28.56c-1.55,0-2.93-.23-4.13-.7-1.2-.47-2.2-1.12-2.99-1.96-.79-.84-1.39-1.82-1.8-2.96-.41-1.13-.61-2.34-.61-3.62s.2-2.53.59-3.68.98-2.15,1.76-3.03c.78-.87,1.74-1.56,2.88-2.05,1.14-.49,2.46-.74,3.96-.74,1.58,0,2.94.24,4.09.72,1.14.48,2.08,1.13,2.8,1.96.72.83,1.26,1.73,1.61,2.71.35.99.53,1.98.53,2.99,0,.2,0,.46-.02.78-.01.32-.05.59-.11.81h-15.46c.06,2.09.7,3.72,1.93,4.88,1.23,1.16,2.89,1.74,4.98,1.74,1.33,0,2.46-.18,3.41-.54.95-.36,1.86-.95,2.73-1.79l1.91,1.48c-.79.71-1.6,1.29-2.42,1.72-.82.43-1.69.75-2.61.96-.92.21-1.93.31-3.03.31Zm6.01-9.94c.06-.2.08-.4.08-.61v-.61c0-.64-.12-1.29-.36-1.96-.24-.66-.61-1.27-1.12-1.81-.51-.54-1.17-.98-1.99-1.33-.82-.34-1.79-.52-2.92-.52-1.3,0-2.44.28-3.41.85-.97.57-1.73,1.32-2.27,2.25-.54.94-.85,1.99-.93,3.18h13.81l-.89.55Z"/>
    <path class="cls-2" d="m191.56,28.3l-8.56-18.21h2.92l6.74,15.26,6.78-15.26h2.92l-8.51,18.21h-2.29Z"/>
    <path class="cls-2" d="m214.9,28.56c-1.55,0-2.93-.23-4.13-.7-1.2-.47-2.2-1.12-2.99-1.96-.79-.84-1.39-1.82-1.8-2.96-.41-1.13-.61-2.34-.61-3.62s.2-2.53.59-3.68.98-2.15,1.76-3.03c.78-.87,1.74-1.56,2.88-2.05,1.14-.49,2.46-.74,3.96-.74,1.58,0,2.94.24,4.09.72,1.14.48,2.08,1.13,2.8,1.96.72.83,1.26,1.73,1.61,2.71.35.99.53,1.98.53,2.99,0,.2,0,.46-.02.78-.01.32-.05.59-.11.81h-15.46c.06,2.09.7,3.72,1.93,4.88,1.23,1.16,2.89,1.74,4.98,1.74,1.33,0,2.46-.18,3.41-.54.95-.36,1.86-.95,2.73-1.79l1.91,1.48c-.79.71-1.6,1.29-2.42,1.72-.82.43-1.69.75-2.61.96-.92.21-1.93.31-3.03.31Zm6.01-9.94c.06-.2.08-.4.08-.61v-.61c0-.64-.12-1.29-.36-1.96-.24-.66-.61-1.27-1.12-1.81-.51-.54-1.17-.98-1.99-1.33-.82-.34-1.79-.52-2.92-.52-1.3,0-2.44.28-3.41.85-.97.57-1.73,1.32-2.27,2.25-.54.94-.85,1.99-.93,3.18h13.81l-.89.55Z"/>
    <path class="cls-2" d="m229.13,28.3V10.09h2.71v4.84l-.68.11c.23-1.13.72-2.08,1.48-2.84.76-.76,1.65-1.35,2.67-1.75,1.02-.41,1.99-.61,2.92-.61.56,0,1.14.06,1.72.17.58.11,1.14.29,1.67.54l-1.31,2.11c-.37-.15-.78-.27-1.23-.37-.45-.1-.89-.15-1.31-.15-.73,0-1.47.12-2.2.37-.73.25-1.4.63-2.01,1.16-.61.53-1.05,1.24-1.33,2.12-.11.37-.21.83-.28,1.37-.07.54-.11,1.29-.11,2.25v8.9h-2.71Z"/>
    <path class="cls-2" d="m235.38,33.81l4.53-11.01h2.97l-5.63,11.01h-1.86Z"/>
    <path class="cls-2" d="m272.55,28.67c-2.68,0-4.87-.7-6.57-2.11s-2.64-3.34-2.84-5.8l2.71-.22c.17,1.95.84,3.41,2.01,4.4,1.17.99,2.73,1.48,4.68,1.48,2.2,0,3.83-.64,4.89-1.92,1.06-1.28,1.59-3.13,1.59-5.54V4.73h-12.03v-2.18h14.78v16.51c0,2.02-.36,3.75-1.08,5.19-.72,1.44-1.77,2.54-3.14,3.29-1.37.75-3.04,1.13-5.02,1.13Z"/>
    <path class="cls-2" d="m294.5,28.56c-1.55,0-2.9-.23-4.05-.7s-2.02-1.11-2.63-1.94c-.61-.82-.91-1.79-.91-2.9,0-.98.22-1.82.66-2.49.44-.68,1.01-1.21,1.72-1.61.76-.44,1.63-.75,2.61-.92.97-.17,2.03-.26,3.16-.26h6.91v1.77h-6.57c-.82,0-1.62.06-2.39.18-.78.12-1.43.37-1.97.74-.45.27-.8.62-1.04,1.05-.24.43-.36.94-.36,1.53,0,1.11.46,1.99,1.38,2.64.92.65,2.17.98,3.75.98,1.27,0,2.43-.26,3.47-.79,1.04-.53,1.89-1.26,2.52-2.2.64-.94.95-1.98.95-3.14l1.14,1.11c-.14,1.38-.59,2.6-1.36,3.66-.76,1.06-1.75,1.87-2.97,2.44-1.21.57-2.56.85-4.02.85Zm7.37-.26l-.17-4.14v-7.2c0-1.67-.49-2.94-1.48-3.8-.99-.86-2.44-1.29-4.36-1.29-1.24,0-2.39.22-3.43.65-1.04.43-2.03,1.16-2.97,2.2l-1.95-1.44c1.13-1.18,2.39-2.05,3.79-2.6s2.97-.83,4.72-.83c2.65,0,4.7.61,6.14,1.83s2.16,2.99,2.16,5.3v11.34h-2.46Z"/>
    <path class="cls-2" d="m310.63,28.3V10.09h2.71v4.69h-.55c.25-.86.59-1.6,1.02-2.22.42-.62.93-1.13,1.53-1.53.59-.41,1.23-.71,1.93-.91.69-.2,1.42-.3,2.18-.3,1.24,0,2.34.2,3.28.61.95.41,1.72,1.03,2.31,1.87.59.84,1,1.91,1.23,3.21l-1.48.07c.4-1.26.91-2.31,1.55-3.16s1.43-1.5,2.39-1.94c.96-.44,2.09-.66,3.39-.66,1.69,0,3.05.34,4.07,1.02,1.02.68,1.75,1.58,2.2,2.71.45,1.13.68,2.43.68,3.88v10.86h-2.67v-10.34c0-1.26-.16-2.34-.47-3.25-.31-.91-.82-1.61-1.52-2.11-.71-.49-1.67-.74-2.88-.74-1.05,0-1.97.24-2.78.72s-1.43,1.21-1.86,2.2c-.44.99-.66,2.22-.66,3.69v9.83h-2.71v-10.68c0-1.95-.4-3.39-1.21-4.34-.81-.95-2-1.42-3.58-1.42-1.05,0-1.98.25-2.8.74-.82.49-1.45,1.24-1.91,2.25-.45,1.01-.68,2.29-.68,3.84v9.6h-2.71Z"/>
    <path class="cls-2" d="m351.98,28.56c-1.55,0-2.9-.23-4.05-.7s-2.02-1.11-2.63-1.94c-.61-.82-.91-1.79-.91-2.9,0-.98.22-1.82.66-2.49.44-.68,1.01-1.21,1.72-1.61.76-.44,1.63-.75,2.6-.92.97-.17,2.03-.26,3.16-.26h6.91v1.77h-6.57c-.82,0-1.62.06-2.39.18-.78.12-1.43.37-1.97.74-.45.27-.8.62-1.04,1.05-.24.43-.36.94-.36,1.53,0,1.11.46,1.99,1.38,2.64.92.65,2.17.98,3.75.98,1.27,0,2.43-.26,3.47-.79,1.05-.53,1.89-1.26,2.52-2.2.64-.94.95-1.98.95-3.14l1.14,1.11c-.14,1.38-.59,2.6-1.36,3.66-.76,1.06-1.75,1.87-2.97,2.44-1.21.57-2.56.85-4.02.85Zm7.37-.26l-.17-4.14v-7.2c0-1.67-.49-2.94-1.48-3.8-.99-.86-2.44-1.29-4.36-1.29-1.24,0-2.39.22-3.43.65-1.04.43-2.03,1.16-2.97,2.2l-1.95-1.44c1.13-1.18,2.39-2.05,3.79-2.6s2.97-.83,4.72-.83c2.65,0,4.7.61,6.14,1.83,1.44,1.22,2.16,2.99,2.16,5.3v11.34h-2.46Z"/>
    <path class="cls-2" d="m367.86,6.54v-3.99h3.18v3.99h-3.18Zm.25,21.76V10.09h2.67v18.21h-2.67Z"/>
    <path class="cls-2" d="m384,28.56c-1.39,0-2.63-.18-3.75-.55s-2.08-.87-2.88-1.5c-.8-.63-1.43-1.32-1.88-2.09l1.91-1.33c.54,1.03,1.38,1.88,2.52,2.53,1.15.65,2.51.98,4.09.98,1.5,0,2.7-.29,3.6-.87.9-.58,1.36-1.37,1.36-2.38,0-.84-.27-1.48-.83-1.94-.55-.46-1.26-.82-2.12-1.09-.86-.27-1.8-.5-2.82-.7-.79-.17-1.58-.38-2.37-.61-.79-.23-1.5-.53-2.14-.89-.64-.36-1.14-.82-1.5-1.39-.37-.57-.55-1.27-.55-2.11,0-1.43.64-2.59,1.93-3.47,1.29-.89,2.96-1.33,5.02-1.33,1.55,0,2.97.29,4.26.87,1.28.58,2.28,1.46,2.99,2.64l-1.74,1.11c-.59-.96-1.38-1.66-2.35-2.09-.97-.43-2.06-.65-3.24-.65-1.27,0-2.32.25-3.16.74-.83.49-1.25,1.16-1.25,1.99,0,.62.2,1.11.59,1.5.39.38.96.7,1.69.94.73.25,1.6.47,2.58.67.9.17,1.8.38,2.69.63.89.25,1.71.56,2.46.94.75.38,1.34.89,1.78,1.53.44.64.66,1.45.66,2.44,0,1.11-.31,2.07-.93,2.9-.62.83-1.5,1.46-2.63,1.9-1.13.44-2.46.66-3.98.66Z"/>
    <path class="cls-2" d="m394.97,34.07l4.53-11.01h2.97l-5.63,11.01h-1.86Z"/>
    <path class="cls-2" d="m417.2,12.94c2.04.68,4.58,1.89,5.86,2.82l-1.19,1.53c-1.25-.93-3.76-2.19-5.8-2.95l1.13-1.39Zm-.28,16.1c1.57-2.16,3.82-5.88,5.45-9.02l1.63,1.15c-1.51,2.93-3.51,6.37-4.99,8.5.13.14.16.27.16.38s-.03.22-.09.33l-2.16-1.34Zm1.97-23.56c2.01.77,4.48,2.02,5.71,3.01l-1.22,1.5c-1.19-1.01-3.64-2.35-5.67-3.17l1.19-1.34Zm26.34,14.52h-8.9c1.57,4.35,4.67,7.57,9.28,9.05-.5.41-1.16,1.09-1.47,1.61-4.89-1.83-8.09-5.44-9.81-10.36-.91,3.96-3.36,7.63-9.63,10.39-.34-.38-1.1-1.04-1.63-1.34,5.93-2.52,8.25-5.8,9.15-9.35h-7.71v-1.75h8.06c.16-1.18.19-2.38.19-3.58v-3.12h-6.27v-1.75h6.27v-4.54l2.73.16c-.03.19-.22.33-.63.38v3.99h7.4v8.45h2.98v1.75Zm-10.38-8.45v3.14c0,1.2-.03,2.38-.19,3.55h5.52v-6.7h-5.33Z"/>
    <path class="cls-2" d="m454.6,6.41c-.06.33-.34.52-.97.6-.25,3.17-.56,10.42-.56,14.46s2.32,6.04,6.27,6.04,7.71-1.67,11.29-5.19c.31.44,1.04,1.31,1.41,1.61-3.67,3.64-8.12,5.55-12.73,5.55-5.71,0-8.62-2.87-8.62-8.04,0-3.44.28-11.92.5-15.28l3.42.25Z"/>
    <path class="cls-2" d="m473.69,8.92c2.35-.08,21.66-1.28,25.74-1.31l.03,2.05c-.41-.03-.78-.03-1.16-.03-1.82,0-3.35.27-5.36,1.39-4.7,2.46-9.25,6.86-9.25,10.39,0,3.83,3.07,6.1,10.85,6.97l-1.03,1.91c-8.9-1.12-12.23-4.02-12.23-8.88,0-3.85,4.36-8.53,10.09-11.67-3.32.19-12.7.82-16.74,1.15-.09.22-.44.41-.69.44l-.25-2.41Z"/>
    <path class="cls-2" d="m495.36,34.94l4.53-11.01h2.97l-5.63,11.01h-1.86Z"/>
    <path class="cls-2" d="m4.32,65.98v-25.75h4.15l10.08,21.28h-.55l10.12-21.28h4.07v25.75h-2.75v-22.98l.17.04-9.95,20.8h-2.75l-10-20.8.17-.04v22.98h-2.75Z"/>
    <path class="cls-2" d="m45.67,66.24c-1.55,0-2.9-.23-4.05-.7-1.14-.47-2.02-1.11-2.63-1.94-.61-.82-.91-1.79-.91-2.9,0-.98.22-1.82.66-2.49.44-.68,1.01-1.21,1.72-1.61.76-.44,1.63-.75,2.61-.92.97-.17,2.03-.26,3.16-.26h6.91v1.77h-6.57c-.82,0-1.62.06-2.39.18-.78.12-1.43.37-1.97.74-.45.27-.8.62-1.04,1.05-.24.43-.36.94-.36,1.53,0,1.11.46,1.99,1.38,2.64.92.65,2.17.98,3.75.98,1.27,0,2.43-.26,3.47-.79,1.04-.53,1.88-1.26,2.52-2.2.64-.94.95-1.98.95-3.14l1.14,1.11c-.14,1.38-.59,2.6-1.36,3.66-.76,1.06-1.75,1.87-2.97,2.44-1.21.57-2.56.85-4.02.85Zm7.37-.26l-.17-4.14v-7.2c0-1.67-.49-2.94-1.48-3.8-.99-.86-2.44-1.29-4.36-1.29-1.24,0-2.39.22-3.43.65-1.05.43-2.03,1.16-2.97,2.2l-1.95-1.44c1.13-1.18,2.39-2.05,3.79-2.6,1.4-.55,2.97-.83,4.72-.83,2.65,0,4.7.61,6.14,1.83,1.44,1.22,2.16,2.99,2.16,5.3v11.34h-2.46Z"/>
    <path class="cls-2" d="m61.55,44.22v-3.99h3.18v3.99h-3.18Zm.25,21.76v-18.21h2.67v18.21h-2.67Z"/>
    <path class="cls-2" d="m68.88,71.74l4.53-11.01h2.97l-5.63,11.01h-1.86Z"/>
    <path class="cls-2" d="m92.52,65.98v-25.75h3.01l15.84,22.64h-.55v-22.64h2.75v25.75h-3.09l-15.76-22.68h.55v22.68h-2.75Z"/>
    <path class="cls-2" d="m120.18,44.22v-3.99h3.18v3.99h-3.18Zm.25,21.76v-18.21h2.67v18.21h-2.67Z"/>
    <path class="cls-2" d="m138.23,66.24c-1.55,0-2.93-.23-4.13-.7-1.2-.47-2.2-1.12-2.99-1.96-.79-.84-1.39-1.82-1.8-2.96-.41-1.13-.61-2.34-.61-3.62s.2-2.53.59-3.68.98-2.15,1.76-3.03c.78-.87,1.74-1.56,2.88-2.05,1.14-.49,2.46-.74,3.96-.74,1.58,0,2.94.24,4.09.72,1.14.48,2.08,1.13,2.8,1.96.72.83,1.26,1.73,1.61,2.71.35.99.53,1.98.53,2.99,0,.2,0,.46-.02.78-.01.32-.05.59-.11.81h-15.46c.06,2.09.7,3.72,1.93,4.88,1.23,1.16,2.89,1.74,4.98,1.74,1.33,0,2.46-.18,3.41-.54.95-.36,1.86-.95,2.73-1.79l1.91,1.48c-.79.71-1.6,1.29-2.42,1.72-.82.43-1.69.75-2.61.96-.92.21-1.93.31-3.03.31Zm6.01-9.94c.06-.2.08-.4.08-.61v-.61c0-.64-.12-1.29-.36-1.96-.24-.66-.61-1.27-1.12-1.81-.51-.54-1.17-.98-1.99-1.33-.82-.34-1.79-.52-2.92-.52-1.3,0-2.44.28-3.41.85-.97.57-1.73,1.32-2.27,2.25-.54.94-.85,1.99-.93,3.18h13.81l-.89.55Z"/>
    <path class="cls-2" d="m150.34,71.74l4.53-11.01h2.97l-5.63,11.01h-1.86Z"/>
    <path class="cls-2" d="m173.98,65.98v-25.75h3.01l15.84,22.64h-.55v-22.64h2.75v25.75h-3.09l-15.76-22.68h.55v22.68h-2.75Z"/>
    <path class="cls-2" d="m208.8,66.24c-1.47,0-2.74-.26-3.81-.79-1.07-.53-1.9-1.32-2.48-2.36-.58-1.05-.87-2.37-.87-3.97v-11.34h2.67v10.53c0,1.33.2,2.43.59,3.31.4.87.97,1.53,1.74,1.96.76.43,1.72.65,2.88.65,1.24,0,2.3-.26,3.18-.78.87-.52,1.55-1.3,2.01-2.36.47-1.06.7-2.41.7-4.06v-9.24h2.67v18.21h-2.67v-4.25h.64c-.54,1.5-1.45,2.63-2.73,3.38-1.29.75-2.79,1.13-4.51,1.13Z"/>
    <path class="cls-2" d="m224.64,65.98v-18.21h2.71v4.25l-.64.18c.37-1.01.89-1.86,1.57-2.55.68-.69,1.49-1.22,2.44-1.59s2-.55,3.16-.55c2.26,0,4.02.59,5.3,1.75,1.27,1.17,1.91,2.95,1.91,5.34v11.38h-2.67v-10.53c0-2.02-.43-3.51-1.29-4.47-.86-.96-2.15-1.44-3.88-1.44-1.19,0-2.22.25-3.11.76-.89.51-1.58,1.31-2.06,2.4-.48,1.1-.72,2.52-.72,4.27v9.01h-2.71Z"/>
    <path class="cls-2" d="m255.61,66.24c-1.47,0-2.78-.24-3.94-.72s-2.14-1.15-2.94-2.01c-.8-.86-1.42-1.86-1.84-2.99-.42-1.13-.64-2.35-.64-3.66s.21-2.49.64-3.62c.42-1.13,1.04-2.13,1.84-2.99.81-.86,1.79-1.53,2.94-2.01s2.47-.72,3.94-.72c1.89,0,3.56.41,5,1.22,1.44.81,2.51,2.06,3.22,3.73l-2.42.81c-.45-1.16-1.17-2.07-2.16-2.73-.99-.66-2.2-1-3.64-1-1.52,0-2.78.35-3.77,1.03-.99.69-1.73,1.59-2.22,2.7-.49,1.11-.74,2.3-.74,3.58s.25,2.48.74,3.6c.49,1.12,1.23,2.03,2.22,2.72.99.69,2.24,1.03,3.77,1.03,1.44,0,2.65-.33,3.64-1,.99-.66,1.71-1.59,2.16-2.77l2.42.81c-.68,1.65-1.74,2.89-3.18,3.73-1.44.84-3.12,1.26-5.04,1.26Z"/>
    <path class="cls-2" d="m275.43,66.24c-1.55,0-2.9-.23-4.05-.7-1.14-.47-2.02-1.11-2.63-1.94-.61-.82-.91-1.79-.91-2.9,0-.98.22-1.82.66-2.49.44-.68,1.01-1.21,1.72-1.61.76-.44,1.63-.75,2.61-.92.97-.17,2.03-.26,3.16-.26h6.91v1.77h-6.57c-.82,0-1.62.06-2.39.18-.78.12-1.43.37-1.97.74-.45.27-.8.62-1.04,1.05-.24.43-.36.94-.36,1.53,0,1.11.46,1.99,1.38,2.64.92.65,2.17.98,3.75.98,1.27,0,2.43-.26,3.47-.79,1.04-.53,1.88-1.26,2.52-2.2.64-.94.95-1.98.95-3.14l1.14,1.11c-.14,1.38-.59,2.6-1.36,3.66-.76,1.06-1.75,1.87-2.97,2.44-1.21.57-2.56.85-4.02.85Zm7.37-.26l-.17-4.14v-7.2c0-1.67-.49-2.94-1.48-3.8-.99-.86-2.44-1.29-4.36-1.29-1.24,0-2.39.22-3.43.65-1.05.43-2.03,1.16-2.97,2.2l-1.95-1.44c1.13-1.18,2.39-2.05,3.79-2.6,1.4-.55,2.97-.83,4.72-.83,2.65,0,4.7.61,6.14,1.83,1.44,1.22,2.16,2.99,2.16,5.3v11.34h-2.46Z"/>
    <path class="cls-2" d="m289.45,71.74l4.53-11.01h2.97l-5.63,11.01h-1.86Z"/>
    <path class="cls-2" d="m313.09,65.98v-25.75h3.01l15.84,22.64h-.55v-22.64h2.75v25.75h-3.09l-15.76-22.68h.55v22.68h-2.75Z"/>
    <path class="cls-2" d="m350.03,66.24c-1.92,0-3.64-.4-5.15-1.2-1.51-.8-2.69-1.91-3.54-3.32-.85-1.42-1.27-3.03-1.27-4.86s.42-3.44,1.25-4.84c.83-1.4,2.01-2.51,3.52-3.31,1.51-.8,3.24-1.2,5.19-1.2s3.66.4,5.15,1.2c1.48.8,2.65,1.9,3.52,3.31.86,1.4,1.29,3.02,1.29,4.84s-.43,3.44-1.29,4.86c-.86,1.42-2.04,2.52-3.54,3.32-1.5.8-3.21,1.2-5.12,1.2Zm0-2.07c1.47,0,2.75-.31,3.83-.92,1.09-.62,1.93-1.47,2.52-2.57.59-1.1.89-2.37.89-3.82s-.3-2.76-.89-3.86c-.59-1.1-1.43-1.95-2.52-2.55-1.09-.6-2.37-.91-3.83-.91s-2.75.31-3.86.92c-1.1.62-1.96,1.47-2.56,2.55s-.91,2.36-.91,3.84.3,2.73.91,3.82c.61,1.1,1.46,1.95,2.56,2.57,1.1.62,2.39.92,3.86.92Z"/>
    <path class="cls-2" d="m374.56,66.24c-1.92,0-3.64-.4-5.15-1.2-1.51-.8-2.69-1.91-3.54-3.32-.85-1.42-1.27-3.03-1.27-4.86s.42-3.44,1.25-4.84c.83-1.4,2.01-2.51,3.52-3.31,1.51-.8,3.24-1.2,5.19-1.2s3.67.4,5.15,1.2c1.48.8,2.65,1.9,3.51,3.31.86,1.4,1.29,3.02,1.29,4.84s-.43,3.44-1.29,4.86c-.86,1.42-2.04,2.52-3.54,3.32-1.5.8-3.21,1.2-5.13,1.2Zm0-2.07c1.47,0,2.75-.31,3.83-.92,1.09-.62,1.93-1.47,2.52-2.57.59-1.1.89-2.37.89-3.82s-.3-2.76-.89-3.86c-.59-1.1-1.43-1.95-2.52-2.55-1.09-.6-2.37-.91-3.83-.91s-2.75.31-3.85.92c-1.1.62-1.96,1.47-2.56,2.55s-.91,2.36-.91,3.84.3,2.73.91,3.82c.61,1.1,1.46,1.95,2.56,2.57,1.1.62,2.39.92,3.85.92Z"/>
    <path class="cls-2" d="m389.81,44.22v-3.99h3.18v3.99h-3.18Zm.25,21.76v-18.21h2.67v18.21h-2.67Z"/>
    <path class="cls-2" d="m396.41,49.62v-1.85h12.28v1.85h-12.28Zm9.28,16.62c-.93,0-1.75-.16-2.46-.48-.7-.32-1.25-.82-1.63-1.5-.38-.68-.57-1.53-.57-2.57v-19.14l2.71-1.37v19.95c0,.99.19,1.75.57,2.31.38.55,1.05.83,2.01.83.34,0,.71-.03,1.1-.09.4-.06.82-.14,1.27-.24v1.85c-.51.15-1.02.26-1.53.33-.51.07-1,.11-1.48.11Z"/>
    <path class="cls-2" d="m411.28,71.74l4.53-11.01h2.97l-5.63,11.01h-1.86Z"/>
    <path class="cls-2" d="m434.92,65.98v-25.75h3.01l15.84,22.64h-.55v-22.64h2.75v25.75h-3.09l-15.76-22.68h.55v22.68h-2.75Z"/>
    <path class="cls-2" d="m462.58,44.22v-3.99h3.18v3.99h-3.18Zm.25,21.76v-18.21h2.67v18.21h-2.67Z"/>
    <path class="cls-2" d="m480.63,66.24c-1.55,0-2.93-.23-4.13-.7-1.2-.47-2.2-1.12-2.99-1.96-.79-.84-1.39-1.82-1.8-2.96-.41-1.13-.61-2.34-.61-3.62s.2-2.53.59-3.68.98-2.15,1.76-3.03c.78-.87,1.74-1.56,2.88-2.05,1.15-.49,2.46-.74,3.96-.74,1.58,0,2.94.24,4.09.72,1.15.48,2.08,1.13,2.8,1.96.72.83,1.26,1.73,1.61,2.71.35.99.53,1.98.53,2.99,0,.2,0,.46-.02.78-.01.32-.05.59-.11.81h-15.46c.06,2.09.7,3.72,1.93,4.88,1.23,1.16,2.89,1.74,4.98,1.74,1.33,0,2.46-.18,3.41-.54.94-.36,1.86-.95,2.73-1.79l1.91,1.48c-.79.71-1.6,1.29-2.41,1.72-.82.43-1.69.75-2.61.96-.92.21-1.93.31-3.03.31Zm6.01-9.94c.06-.2.08-.4.08-.61v-.61c0-.64-.12-1.29-.36-1.96-.24-.66-.62-1.27-1.12-1.81-.51-.54-1.17-.98-1.99-1.33-.82-.34-1.79-.52-2.92-.52-1.3,0-2.44.28-3.41.85-.97.57-1.73,1.32-2.27,2.25-.54.94-.85,1.99-.93,3.18h13.81l-.89.55Z"/>
    <path class="cls-2" d="m488.74,71.74l4.53-11.01h2.97l-5.63,11.01h-1.86Z"/>
    <path class="cls-2" d="m11.82,103.66v-23.57H1.48v-2.18h23.43v2.18h-10.29v23.57h-2.8Z"/>
    <path class="cls-2" d="m27.2,81.9v-3.99h3.18v3.99h-3.18Zm.25,21.76v-18.21h2.67v18.21h-2.67Z"/>
    <path class="cls-2" d="m45.2,103.92c-1.86,0-3.51-.41-4.94-1.24-1.43-.82-2.54-1.95-3.35-3.36-.81-1.42-1.21-3.01-1.21-4.78,0-1.87.42-3.51,1.27-4.91s1.99-2.49,3.43-3.27c1.44-.78,3.03-1.16,4.79-1.16,1.38,0,2.63.24,3.73.72s2.03,1.14,2.8,1.98c.76.84,1.28,1.79,1.57,2.84l-.72.41v-13.22h2.67v25.75h-2.67v-5.73l.85.26c-.37,1.13-.93,2.13-1.69,2.99s-1.69,1.53-2.8,2.01c-1.1.48-2.34.72-3.73.72Zm.42-2.14c1.41,0,2.65-.31,3.73-.94,1.07-.63,1.91-1.48,2.52-2.57.61-1.08.91-2.33.91-3.73s-.3-2.65-.91-3.73c-.61-1.08-1.45-1.93-2.52-2.55-1.07-.62-2.32-.92-3.73-.92s-2.63.31-3.73.92c-1.1.62-1.96,1.47-2.58,2.55-.62,1.08-.93,2.33-.93,3.73s.31,2.65.93,3.73c.62,1.08,1.48,1.94,2.58,2.57,1.1.63,2.34.94,3.73.94Z"/>
    <path class="cls-2" d="m68.12,103.92c-1.55,0-2.9-.23-4.05-.7s-2.02-1.11-2.63-1.94c-.61-.82-.91-1.79-.91-2.9,0-.98.22-1.82.66-2.49.44-.68,1.01-1.21,1.72-1.61.76-.44,1.63-.75,2.61-.92.97-.17,2.03-.26,3.16-.26h6.91v1.77h-6.57c-.82,0-1.62.06-2.39.18-.78.12-1.43.37-1.97.74-.45.27-.8.62-1.04,1.05s-.36.94-.36,1.53c0,1.11.46,1.99,1.38,2.64.92.65,2.17.98,3.75.98,1.27,0,2.43-.26,3.47-.79,1.04-.53,1.88-1.26,2.52-2.2.64-.94.95-1.98.95-3.14l1.14,1.11c-.14,1.38-.59,2.6-1.36,3.66-.76,1.06-1.75,1.87-2.97,2.44-1.21.57-2.56.85-4.02.85Zm7.37-.26l-.17-4.14v-7.2c0-1.67-.49-2.94-1.48-3.8-.99-.86-2.44-1.29-4.36-1.29-1.24,0-2.39.22-3.43.65-1.05.43-2.03,1.16-2.97,2.2l-1.95-1.44c1.13-1.18,2.39-2.05,3.79-2.6s2.97-.83,4.72-.83c2.65,0,4.7.61,6.14,1.83,1.44,1.22,2.16,2.99,2.16,5.3v11.34h-2.46Z"/>
    <path class="cls-2" d="m84.26,103.66v-25.75h2.71v25.75h-2.71Zm14.32,0l-7.46-9.94-4.58,4.17v-2.99l10.51-9.46h3.47l-7.46,6.69,8.68,11.53h-3.18Z"/>
    <path class="cls-2" d="m117.21,111.2v-25.75h2.67v5.73l-.85-.52c.39-1.16.97-2.14,1.74-2.96.76-.81,1.69-1.43,2.8-1.87,1.1-.43,2.33-.65,3.69-.65,1.86,0,3.51.41,4.94,1.24,1.43.83,2.54,1.94,3.35,3.34.8,1.4,1.21,3,1.21,4.8s-.42,3.48-1.27,4.89c-.85,1.42-1.98,2.51-3.41,3.29-1.43.78-3.03,1.16-4.81,1.16-1.36,0-2.59-.23-3.71-.68-1.12-.46-2.05-1.09-2.8-1.9-.75-.81-1.28-1.74-1.59-2.77l.72-.59v13.22h-2.67Zm9.62-9.42c1.41,0,2.66-.31,3.75-.92,1.09-.62,1.94-1.46,2.56-2.55.62-1.08.93-2.33.93-3.73s-.31-2.65-.93-3.73c-.62-1.08-1.48-1.94-2.56-2.57-1.09-.63-2.34-.94-3.75-.94s-2.65.31-3.73.94c-1.07.63-1.91,1.48-2.52,2.57-.61,1.08-.91,2.33-.91,3.73s.3,2.65.91,3.73c.61,1.08,1.45,1.93,2.52,2.55,1.07.62,2.32.92,3.73.92Z"/>
    <path class="cls-2" d="m150.93,103.92c-1.55,0-2.93-.23-4.13-.7-1.2-.47-2.2-1.12-2.99-1.96-.79-.84-1.39-1.82-1.8-2.96-.41-1.13-.61-2.34-.61-3.62s.2-2.53.59-3.68c.39-1.15.98-2.15,1.76-3.03.78-.87,1.74-1.56,2.88-2.05,1.14-.49,2.46-.74,3.96-.74,1.58,0,2.94.24,4.09.72s2.08,1.13,2.8,1.96c.72.83,1.26,1.73,1.61,2.71.35.99.53,1.98.53,2.99,0,.2,0,.46-.02.78-.01.32-.05.59-.11.81h-15.46c.06,2.09.7,3.72,1.93,4.88,1.23,1.16,2.89,1.74,4.98,1.74,1.33,0,2.46-.18,3.41-.54s1.86-.95,2.73-1.79l1.91,1.48c-.79.71-1.6,1.29-2.41,1.72-.82.43-1.69.75-2.6.96-.92.21-1.93.31-3.03.31Zm6.02-9.94c.06-.2.09-.4.09-.61v-.61c0-.64-.12-1.29-.36-1.96s-.61-1.27-1.12-1.81c-.51-.54-1.17-.98-1.99-1.33-.82-.34-1.79-.52-2.92-.52-1.3,0-2.44.28-3.41.85-.97.57-1.73,1.32-2.27,2.25-.54.94-.85,1.99-.93,3.18h13.81l-.89.55Z"/>
    <path class="cls-2" d="m165.17,103.66v-18.21h2.71v4.84l-.68.11c.23-1.13.72-2.08,1.48-2.84.76-.76,1.65-1.35,2.67-1.75,1.02-.41,1.99-.61,2.92-.61.57,0,1.14.06,1.72.17s1.14.29,1.67.54l-1.31,2.11c-.37-.15-.78-.27-1.23-.37-.45-.1-.89-.15-1.31-.15-.73,0-1.47.12-2.2.37-.73.25-1.41.63-2.01,1.16-.61.53-1.05,1.24-1.34,2.12-.11.37-.21.83-.27,1.37-.07.54-.11,1.29-.11,2.25v8.9h-2.71Z"/>
    <path class="cls-2" d="m181.98,103.66v-18.21h2.71v4.25l-.64.18c.37-1.01.89-1.86,1.57-2.55.68-.69,1.49-1.22,2.44-1.59s2-.55,3.16-.55c2.26,0,4.02.59,5.3,1.75,1.27,1.17,1.91,2.95,1.91,5.34v11.38h-2.67v-10.53c0-2.02-.43-3.51-1.29-4.47-.86-.96-2.15-1.44-3.88-1.44-1.19,0-2.22.25-3.11.76-.89.51-1.58,1.31-2.06,2.4-.48,1.1-.72,2.52-.72,4.27v9.01h-2.71Z"/>
    <path class="cls-2" d="m211.34,103.92c-1.55,0-2.9-.23-4.05-.7s-2.02-1.11-2.63-1.94c-.61-.82-.91-1.79-.91-2.9,0-.98.22-1.82.66-2.49.44-.68,1.01-1.21,1.72-1.61.76-.44,1.63-.75,2.61-.92.97-.17,2.03-.26,3.16-.26h6.91v1.77h-6.57c-.82,0-1.62.06-2.39.18-.78.12-1.43.37-1.97.74-.45.27-.8.62-1.04,1.05-.24.43-.36.94-.36,1.53,0,1.11.46,1.99,1.38,2.64.92.65,2.17.98,3.75.98,1.27,0,2.43-.26,3.47-.79,1.04-.53,1.89-1.26,2.52-2.2.64-.94.95-1.98.95-3.14l1.14,1.11c-.14,1.38-.59,2.6-1.36,3.66-.76,1.06-1.75,1.87-2.97,2.44-1.21.57-2.56.85-4.02.85Zm7.37-.26l-.17-4.14v-7.2c0-1.67-.49-2.94-1.48-3.8-.99-.86-2.44-1.29-4.36-1.29-1.24,0-2.39.22-3.43.65-1.04.43-2.03,1.16-2.97,2.2l-1.95-1.44c1.13-1.18,2.39-2.05,3.79-2.6s2.97-.83,4.72-.83c2.65,0,4.7.61,6.14,1.83s2.16,2.99,2.16,5.3v11.34h-2.46Z"/>
    <path class="cls-2" d="m227.48,103.66v-25.75h2.71v11.78l-.68.18c.37-1.01.9-1.86,1.59-2.55.69-.69,1.51-1.22,2.46-1.59.95-.37,2-.55,3.16-.55,2.29,0,4.06.6,5.32,1.79,1.26,1.19,1.88,2.96,1.88,5.3v11.38h-2.67v-10.53c0-2.02-.43-3.51-1.29-4.47-.86-.96-2.15-1.44-3.88-1.44-1.81,0-3.24.59-4.3,1.77s-1.59,3.07-1.59,5.65v9.01h-2.71Z"/>
    <path class="cls-2" d="m248.11,109.42l4.53-11.01h2.97l-5.63,11.01h-1.86Z"/>
    <path class="cls-2" d="m284.07,81.21c-.06.25-.28.39-.73.41-.25,3.61-.6,7.03-1.2,10.17,2.28,2.21,4.74,5.07,5.88,6.97l-1.8,1.24c-.92-1.6-2.75-3.89-4.55-5.9-1.14,4.8-2.94,8.79-5.88,11.55-.41-.3-1.3-.85-1.86-1.16,5.06-4.58,6.54-13.26,7.18-23.57l2.97.28Zm9.64,10.42c-1.14,5.15-3.6,10.61-9.01,13.98-.47-.5-1.2-.99-1.87-1.38,9.36-5.43,9.55-17.39,9.67-23.24l2.97.19c-.06.25-.28.39-.73.44-.03,1.05-.06,2.29-.16,3.67.85,6.7,2.81,14.67,8.95,18.58-.51.39-1.3,1.21-1.68,1.76-4.65-3.31-6.92-8.68-8.12-14h-.03Z"/>
    <path class="cls-2" d="m333.96,83.85h-9.77c-.13.19-.44.25-.79.22-.69,1.16-1.52,2.32-2.4,3.45l.88.22c-.06.17-.25.33-.66.36v17.56h-2.18v-15.85c-3.26,3.53-7.43,6.84-12.08,9.21-.32-.44-.98-1.16-1.42-1.54,6.54-3.14,12.23-8.44,15.46-13.62h-14.6v-1.85h27.56v1.85Zm-.85,14.83c-2.31-2.01-7.14-5.04-10.97-7.11l1.52-1.27c3.79,1.93,8.66,4.88,11.06,6.86l-1.61,1.52Z"/>
    <path class="cls-2" d="m335.92,109.42l4.53-11.01h2.97l-5.63,11.01h-1.86Z"/>
    <path class="cls-2" d="m358.42,103.66v-25.75h3.01l15.84,22.64h-.55v-22.64h2.75v25.75h-3.09l-15.76-22.68h.55v22.68h-2.75Z"/>
    <path class="cls-2" d="m386.08,81.9v-3.99h3.18v3.99h-3.18Zm.25,21.76v-18.21h2.67v18.21h-2.67Z"/>
    <path class="cls-2" d="m395.52,103.66v-25.75h2.71v25.75h-2.71Zm14.32,0l-7.46-9.94-4.58,4.17v-2.99l10.51-9.46h3.47l-7.45,6.69,8.68,11.53h-3.18Z"/>
    <path class="cls-2" d="m424.71,103.92c-1.86,0-3.51-.41-4.93-1.24-1.43-.82-2.54-1.95-3.35-3.36-.8-1.42-1.21-3.01-1.21-4.78,0-1.87.42-3.51,1.27-4.91s1.99-2.49,3.43-3.27c1.44-.78,3.04-1.16,4.79-1.16,1.38,0,2.63.24,3.73.72s2.03,1.14,2.8,1.98c.76.84,1.28,1.79,1.57,2.84l-.72.41v-13.22h2.67v25.75h-2.67v-5.73l.85.26c-.37,1.13-.93,2.13-1.69,2.99-.76.86-1.69,1.53-2.8,2.01-1.1.48-2.34.72-3.73.72Zm.42-2.14c1.41,0,2.65-.31,3.73-.94,1.07-.63,1.91-1.48,2.52-2.57s.91-2.33.91-3.73-.3-2.65-.91-3.73c-.61-1.08-1.45-1.93-2.52-2.55-1.07-.62-2.32-.92-3.73-.92s-2.63.31-3.73.92c-1.1.62-1.96,1.47-2.58,2.55-.62,1.08-.93,2.33-.93,3.73s.31,2.65.93,3.73c.62,1.08,1.48,1.94,2.58,2.57,1.1.63,2.34.94,3.73.94Z"/>
    <path class="cls-2" d="m443.31,111.16l3.85-8.09-8.26-17.62h2.92l6.73,15.26,6.78-15.26h2.92l-12.03,25.71h-2.92Z"/>
    <path class="cls-2" d="m3.8,123.97c2.34,1.67,3.86,2.82,4.57,3.47.59.48,1.95,1.66,4.06,3.55.97.88,1.52,1.37,1.65,1.47.91-1.21,1.37-2.21,1.37-2.99,0-.61-.31-1.55-.94-2.82l2.79-2.65c.64,1.12.96,2,.96,2.65,0,1.68-1.09,3.88-3.27,6.61l4.5,4.47-1.55,2.59c-.26-.27-.74-.78-1.42-1.54-2.82-3.07-5.92-6.11-9.3-9.11-1.32,1.5-1.97,2.96-1.97,4.37,0,1.7.14,2.6.43,2.7h2.24l-1.41,2.84H1.91l.87-1.47v-.78c0-1.99.14-3.32.41-4.02.27-.69.66-1.4,1.17-2.12.51-.72,1.15-1.46,1.92-2.23l-4.38-2.93,1.89-2.08Z"/>
    <path class="cls-2" d="m24.56,121.37v3.37h5.44c1.7,0,2.8.06,3.3.19.5.13.9.43,1.18.91s.43.99.43,1.54v1.8c0,2.56-1.19,4.85-3.56,6.86-2.37,2.01-5.28,3.44-8.72,4.3l1.74-3.27c2.16-.32,4.06-1.04,5.71-2.17,1.65-1.13,2.47-2.67,2.47-4.64v-1.07c0-.7-.13-1.19-.4-1.47-.27-.28-.81-.42-1.64-.42h-7.13c-.47,0-.71-.23-.71-.68v-.95c0-2.37-.28-3.76-.85-4.19l2.22-2.56s.06.13.14.28c.25.41.37,1.14.37,2.19Z"/>
    <path class="cls-2" d="m51.05,139.59c-.51-.2-1.04-.6-1.58-1.23-.4-.57-.61-1.3-.61-2.2v-8.16c0-.42-.07-.72-.22-.88-.15-.16-.48-.27-1.01-.32.97-1.43,2.05-2.62,3.24-3.58v1.5h5.82c2.41,0,4.23.12,5.46.35,1.23.23,2.08.69,2.53,1.38.45.69.68,2.31.68,4.88,0,3.18-.35,5.25-1.05,6.23-.7.98-1.18,1.56-1.43,1.75s-.71.28-1.38.28h-10.44Zm11.74-2.54c.24-.69.36-2.26.36-4.7,0-2.23-.39-3.66-1.16-4.28-.37-.33-.86-.55-1.47-.64-.61-.1-1.79-.15-3.55-.15h-6.1v9.77h11.92Z"/>
    <path class="cls-2" d="m70.47,121.37v3.37h5.44c1.7,0,2.8.06,3.3.19.5.13.9.43,1.18.91s.43.99.43,1.54v1.8c0,2.56-1.19,4.85-3.56,6.86-2.37,2.01-5.28,3.44-8.72,4.3l1.74-3.27c2.16-.32,4.06-1.04,5.71-2.17,1.65-1.13,2.47-2.67,2.47-4.64v-1.07c0-.7-.13-1.19-.4-1.47-.27-.28-.82-.42-1.64-.42h-7.13c-.47,0-.71-.23-.71-.68v-.95c0-2.37-.28-3.76-.85-4.19l2.22-2.56s.06.13.14.28c.25.41.37,1.14.37,2.19Z"/>
    <path class="cls-2" d="m85.57,123.66l3.91,2.68c1,.68,1.49,1.53,1.49,2.54v9.39l-2.53,2.05v-9.96c0-.63-.14-1.09-.41-1.37-.27-.28-.76-.61-1.46-.98l-3.25-1.8,2.24-2.54Z"/>
    <path class="cls-2" d="m96.57,123.39c1.67,3.37,2.84,5.98,3.5,7.83.78,2.14,1.35,3.68,1.71,4.62l1.51-.95c1.13-.94,1.69-1.92,1.69-2.95,0-1.68-.53-3.69-1.58-6.05l3.08-2.51c.47,1.71.71,3.39.71,5.06,0,2.12-.32,3.84-.96,5.16-.64,1.32-1.6,2.39-2.87,3.21-1.27.82-3.98,2.13-8.12,3.93-.65.29-1.23.56-1.73.81l1.23-3.27c.79-.21,1.59-.45,2.38-.73.97-.27,1.91-.6,2.81-1.01-.14-.4-.5-1.25-1.08-2.53-.58-1.28-1-2.24-1.27-2.87-.66-1.49-1.86-3.24-3.58-5.24l2.56-2.51Z"/>
    <path class="cls-2" d="m112.08,121.37v3.37h5.44c1.7,0,2.8.06,3.3.19.5.13.9.43,1.18.91s.43.99.43,1.54v1.8c0,2.56-1.19,4.85-3.56,6.86-2.37,2.01-5.28,3.44-8.72,4.3l1.74-3.27c2.16-.32,4.06-1.04,5.71-2.17,1.65-1.13,2.47-2.67,2.47-4.64v-1.07c0-.7-.13-1.19-.4-1.47-.27-.28-.81-.42-1.64-.42h-7.13c-.47,0-.71-.23-.71-.68v-.95c0-2.37-.28-3.76-.85-4.19l2.22-2.56s.06.13.14.28c.25.41.37,1.14.37,2.19Z"/>
    <path class="cls-2" d="m124.64,147.1l4.53-11.01h2.97l-5.63,11.01h-1.86Z"/>
    <path class="cls-2" d="m148.28,141.34v-25.75h2.75v11.49h15.59v-11.49h2.8v25.75h-2.8v-12.01h-15.59v12.01h-2.75Z"/>
    <path class="cls-2" d="m176.03,119.58v-3.99h3.18v3.99h-3.18Zm.25,21.76v-18.21h2.67v18.21h-2.67Z"/>
    <path class="cls-2" d="m185.47,141.34v-18.21h2.71v4.25l-.64.18c.37-1.01.89-1.86,1.57-2.55.68-.69,1.49-1.22,2.44-1.59.95-.37,2-.55,3.16-.55,2.26,0,4.02.59,5.3,1.75,1.27,1.17,1.91,2.95,1.91,5.34v11.38h-2.67v-10.53c0-2.02-.43-3.51-1.29-4.47-.86-.96-2.15-1.44-3.88-1.44-1.19,0-2.22.25-3.11.76-.89.51-1.57,1.31-2.05,2.4-.48,1.1-.72,2.52-.72,4.27v9.01h-2.71Z"/>
    <path class="cls-2" d="m216.56,141.6c-1.86,0-3.51-.41-4.94-1.24-1.43-.82-2.54-1.95-3.35-3.36-.81-1.42-1.21-3.01-1.21-4.78,0-1.87.42-3.51,1.27-4.91.85-1.4,1.99-2.49,3.43-3.27s3.04-1.16,4.79-1.16c1.38,0,2.63.24,3.73.72,1.1.48,2.03,1.14,2.8,1.98.76.84,1.28,1.79,1.57,2.84l-.72.41v-13.22h2.67v25.75h-2.67v-5.73l.85.26c-.37,1.13-.93,2.13-1.69,2.99-.76.86-1.69,1.53-2.8,2.01-1.1.48-2.34.72-3.73.72Zm.42-2.14c1.41,0,2.65-.31,3.73-.94,1.07-.63,1.91-1.48,2.52-2.57.61-1.08.91-2.33.91-3.73s-.3-2.65-.91-3.73c-.61-1.08-1.45-1.93-2.52-2.55s-2.32-.92-3.73-.92-2.63.31-3.73.92-1.96,1.47-2.58,2.55c-.62,1.08-.93,2.33-.93,3.73s.31,2.65.93,3.73c.62,1.08,1.48,1.94,2.58,2.57,1.1.63,2.34.94,3.73.94Z"/>
    <path class="cls-2" d="m232.92,119.58v-3.99h3.18v3.99h-3.18Zm.25,21.76v-18.21h2.67v18.21h-2.67Z"/>
    <path class="cls-2" d="m242.36,141.34v-18.21h2.71v4.25l-.64.18c.37-1.01.89-1.86,1.57-2.55.68-.69,1.49-1.22,2.44-1.59s2-.55,3.16-.55c2.26,0,4.02.59,5.3,1.75,1.27,1.17,1.91,2.95,1.91,5.34v11.38h-2.67v-10.53c0-2.02-.43-3.51-1.29-4.47-.86-.96-2.15-1.44-3.88-1.44-1.19,0-2.22.25-3.11.76-.89.51-1.58,1.31-2.06,2.4s-.72,2.52-.72,4.27v9.01h-2.71Z"/>
    <path class="cls-2" d="m273.03,149.17c-2.97,0-5.3-.48-7.01-1.44-1.71-.96-2.56-2.29-2.56-3.99v-.46c0-.18.03-.35.08-.5l4.83-3.36,1.02.59-3.26,3.29c-.03.1-.04.19-.04.28v.24c0,1.18.65,2.07,1.95,2.66,1.3.59,2.97.89,5,.89,1.72,0,3.14-.24,4.26-.72,1.12-.48,1.67-1.23,1.67-2.23,0-.59-.19-1.07-.57-1.42-.38-.36-.91-.64-1.59-.85s-1.47-.38-2.37-.52c-.9-.14-1.88-.28-2.92-.42-1.24-.17-2.44-.41-3.58-.72-1.14-.31-2.08-.75-2.8-1.33-.72-.58-1.08-1.36-1.08-2.35,0-.84.31-1.58.93-2.24.62-.65,1.48-1.21,2.58-1.68l1.69,1.03c-.96.25-1.64.59-2.05,1.02-.41.43-.61.94-.61,1.53s.22,1.02.66,1.37c.44.35,1.04.61,1.82.79.78.18,1.69.34,2.73.46,1.3.17,2.54.36,3.71.55,1.17.2,2.22.47,3.13.81.92.35,1.64.81,2.16,1.39.52.58.78,1.35.78,2.31,0,1.63-.77,2.87-2.31,3.73-1.54.86-3.62,1.29-6.25,1.29Zm-.59-13.85c-1.52,0-2.89-.26-4.09-.78-1.2-.52-2.13-1.24-2.8-2.18s-1-2.01-1-3.21.35-2.32,1.04-3.27c.69-.95,1.63-1.69,2.82-2.22,1.19-.53,2.5-.79,3.94-.79s2.75.26,3.92.79c1.17.53,2.1,1.27,2.8,2.24.69.96,1.04,2.08,1.04,3.36,0,1.21-.33,2.27-1,3.18-.66.91-1.57,1.62-2.71,2.12-1.14.51-2.46.76-3.96.76Zm-.04-1.92c1.55,0,2.78-.41,3.69-1.22.9-.81,1.36-1.83,1.36-3.07,0-1.31-.47-2.36-1.4-3.16-.93-.8-2.15-1.2-3.64-1.2s-2.77.41-3.73,1.22c-.96.81-1.44,1.85-1.44,3.1s.47,2.26,1.4,3.08c.93.83,2.19,1.24,3.77,1.24Zm6.4-7.13l-1.95-1.15,4.19-3.1,1.36,1.48-3.6,2.77Z"/>
    <path class="cls-2" d="m284.72,130.85v-1.77h10.51v1.77h-10.51Z"/>
    <path class="cls-2" d="m300.14,141.34v-25.75h2.71v11.78l-.68.18c.37-1.01.9-1.86,1.59-2.55.69-.69,1.51-1.22,2.46-1.59.95-.37,2-.55,3.16-.55,2.29,0,4.06.6,5.32,1.79,1.26,1.19,1.88,2.96,1.88,5.3v11.38h-2.67v-10.53c0-2.02-.43-3.51-1.29-4.47-.86-.96-2.15-1.44-3.88-1.44-1.81,0-3.24.59-4.3,1.77-1.06,1.18-1.59,3.07-1.59,5.65v9.01h-2.71Z"/>
    <path class="cls-2" d="m322.64,119.58v-3.99h3.18v3.99h-3.18Zm.25,21.76v-18.21h2.67v18.21h-2.67Z"/>
    <path class="cls-2" d="m332.08,141.34v-18.21h2.71v4.25l-.64.18c.37-1.01.89-1.86,1.57-2.55.68-.69,1.49-1.22,2.44-1.59.94-.37,2-.55,3.16-.55,2.26,0,4.02.59,5.3,1.75,1.27,1.17,1.91,2.95,1.91,5.34v11.38h-2.67v-10.53c0-2.02-.43-3.51-1.29-4.47s-2.15-1.44-3.88-1.44c-1.19,0-2.22.25-3.11.76-.89.51-1.57,1.31-2.05,2.4-.48,1.1-.72,2.52-.72,4.27v9.01h-2.71Z"/>
    <path class="cls-2" d="m363.18,141.6c-1.86,0-3.51-.41-4.94-1.24-1.43-.82-2.54-1.95-3.35-3.36-.81-1.42-1.21-3.01-1.21-4.78,0-1.87.42-3.51,1.27-4.91.85-1.4,1.99-2.49,3.43-3.27,1.44-.78,3.03-1.16,4.79-1.16,1.38,0,2.63.24,3.73.72,1.1.48,2.03,1.14,2.8,1.98.76.84,1.28,1.79,1.57,2.84l-.72.41v-13.22h2.67v25.75h-2.67v-5.73l.85.26c-.37,1.13-.93,2.13-1.69,2.99s-1.69,1.53-2.8,2.01c-1.1.48-2.34.72-3.73.72Zm.42-2.14c1.41,0,2.65-.31,3.73-.94,1.07-.63,1.91-1.48,2.52-2.57.61-1.08.91-2.33.91-3.73s-.3-2.65-.91-3.73c-.61-1.08-1.45-1.93-2.52-2.55-1.07-.62-2.31-.92-3.73-.92s-2.63.31-3.73.92c-1.1.62-1.96,1.47-2.58,2.55s-.93,2.33-.93,3.73.31,2.65.93,3.73,1.48,1.94,2.58,2.57c1.1.63,2.34.94,3.73.94Z"/>
    <path class="cls-2" d="m379.53,119.58v-3.99h3.18v3.99h-3.18Zm.25,21.76v-18.21h2.67v18.21h-2.67Z"/>
    <path class="cls-2" d="m412.62,119.05c-.26.48-.55.92-.85,1.3-2.19.31-4.1.8-5.7,1.43l-.04-.06.53-.8c.2-.21.64-.52,1.01-.63v-.06c-1.03-.27-1.71-.84-1.71-1.66,0-.52.42-1.19,1.03-1.68.72-.61,1.75-1.09,2.65-1.09s1.38.44,1.38.94-.35.88-.7,1.24h-.04c-.24-.42-.46-.69-.7-.75-.15-.04-.42-.06-.68-.06-.77,0-1.54.38-1.54.67,0,.92,1.84,1.22,3.14,1.22.74,0,1.49-.04,2.24-.08v.06Zm-4.08,22.62c.22-1.2.24-2.56.24-3.82v-1.87c0-3.5-.44-8.58-.79-11.89.61-.69,1.47-1.49,2.15-2.03l.2.06c.46,4.17.57,9.01.57,13.46,0,1.17-.04,2.31-.15,3.16-.07,1.05-.66,1.85-1.93,3.08l-.28-.13Z"/>
    <path class="cls-2" d="m426.04,142.1c-6.07,0-10.74-1.95-10.74-6.65,0-1.55.35-3.08,1.29-4.63l.88.33c-.42,1.09-.64,2.06-.64,2.91,0,3.86,4.36,5.45,9.87,5.45,2.56,0,5.07-.32,7.5-.82,1.01-.21,1.99-.44,2.89-.78.18-.06.22-.15.22-.21,0-.9-1.05-2.77-2.19-4.72.53-.82,1.07-1.55,1.64-2.16h.11c1.01,1.55,2.19,3.94,2.19,5.83,0,1.43-.55,2.29-1.16,3.19-1.91,1.01-7.52,2.27-11.86,2.27Zm.77,3.44c.9.57,1.78,1.26,2.63,2.05-.48.69-1.07,1.32-1.82,1.87-.86-.71-1.71-1.32-2.59-1.97.59-.69,1.18-1.36,1.78-1.95Z"/>
    <path class="cls-2" d="m443.91,136.14c.07,1.64.86,2.94,3.6,2.94,1.71,0,3.16-.46,4.76-1.24.28-.13.44-.31.44-.46,0-1.03-.77-2.39-2.06-3.63-1.25-1.17-2.92-2.2-4.47-2.89-.53-.23-.7-.48-.7-.71,0-.48.61-1.47,1.12-2.18l.18-.02c1.78.96,3.77,2.37,5.24,3.96,1.34,1.45,2.17,2.92,2.17,4.53,0,1.19-.35,2.31-.92,3.35-1.95,1.01-4.03,1.78-6.1,1.78-2.5,0-4.21-1.2-4.21-4.03,0-.31,0-.78.11-1.4h.85Z"/>
    <path class="cls-2" d="m458.38,141.66c.22-1.2.24-2.56.24-3.82v-1.87c0-3.5-.44-8.58-.79-11.89.61-.69,1.47-1.49,2.15-2.03l.2.06c.46,4.17.57,9.01.57,13.46,0,1.17-.04,2.31-.15,3.16-.07,1.05-.66,1.85-1.93,3.08l-.28-.13Z"/>
    <path class="cls-2" d="m464.09,147.1l4.53-11.01h2.97l-5.63,11.01h-1.86Z"/>
    <path class="cls-2" d="m1.7,179.02l10.97-25.75h2.33l10.93,25.75h-3.01l-9.06-22.39-9.07,22.39H1.7Zm5.42-6.61l.89-2.18h11.65l.93,2.18H7.12Z"/>
    <path class="cls-2" d="m36.69,179.28c-1.38,0-2.63-.18-3.75-.55-1.12-.37-2.08-.87-2.88-1.5s-1.43-1.32-1.88-2.09l1.91-1.33c.54,1.03,1.38,1.88,2.52,2.53,1.14.65,2.51.98,4.09.98,1.5,0,2.7-.29,3.6-.87.9-.58,1.36-1.37,1.36-2.38,0-.84-.27-1.48-.83-1.94-.55-.46-1.26-.82-2.12-1.09-.86-.27-1.8-.5-2.82-.7-.79-.17-1.58-.38-2.37-.61-.79-.23-1.5-.53-2.14-.89s-1.14-.82-1.5-1.39c-.37-.57-.55-1.27-.55-2.11,0-1.43.64-2.59,1.93-3.47,1.28-.89,2.96-1.33,5.02-1.33,1.55,0,2.97.29,4.26.87,1.28.58,2.28,1.46,2.99,2.64l-1.74,1.11c-.59-.96-1.38-1.66-2.35-2.09-.97-.43-2.05-.65-3.24-.65-1.27,0-2.32.25-3.16.74-.83.49-1.25,1.16-1.25,1.99,0,.62.2,1.11.59,1.5.39.38.96.7,1.69.94.73.25,1.6.47,2.58.67.9.17,1.8.38,2.69.63.89.25,1.71.56,2.46.94.75.38,1.34.89,1.78,1.53.44.64.66,1.45.66,2.44,0,1.11-.31,2.07-.93,2.9-.62.83-1.5,1.46-2.63,1.9-1.13.44-2.46.67-3.98.67Z"/>
    <path class="cls-2" d="m53.63,179.28c-1.19,0-2.13-.33-2.84-.98-.71-.65-1.06-1.69-1.06-3.12v-21.91h2.67v21.5c0,.84.18,1.44.55,1.81s.86.55,1.48.55c.28,0,.59-.03.93-.09.34-.06.69-.14,1.06-.24v1.99c-.48.15-.97.26-1.46.35s-.94.13-1.33.13Z"/>
    <path class="cls-2" d="m67.31,179.28c-1.55,0-2.9-.23-4.05-.7-1.14-.47-2.02-1.11-2.63-1.94-.61-.82-.91-1.79-.91-2.9,0-.98.22-1.82.66-2.49.44-.68,1.01-1.21,1.72-1.61.76-.44,1.63-.75,2.6-.92.97-.17,2.03-.26,3.16-.26h6.91v1.77h-6.57c-.82,0-1.62.06-2.39.18-.78.12-1.43.37-1.97.74-.45.27-.8.62-1.04,1.05s-.36.94-.36,1.53c0,1.11.46,1.99,1.38,2.64.92.65,2.17.98,3.75.98,1.27,0,2.43-.26,3.47-.79,1.04-.53,1.89-1.26,2.52-2.2.64-.94.95-1.98.95-3.14l1.14,1.11c-.14,1.38-.59,2.6-1.36,3.66-.76,1.06-1.75,1.87-2.97,2.44-1.21.57-2.56.85-4.02.85Zm7.37-.26l-.17-4.14v-7.2c0-1.67-.49-2.94-1.48-3.81-.99-.86-2.44-1.29-4.36-1.29-1.24,0-2.39.22-3.43.65-1.04.43-2.03,1.16-2.97,2.2l-1.95-1.44c1.13-1.18,2.39-2.05,3.79-2.6,1.4-.55,2.97-.83,4.72-.83,2.65,0,4.7.61,6.14,1.83,1.44,1.22,2.16,2.99,2.16,5.3v11.34h-2.46Z"/>
    <path class="cls-2" d="m81.34,184.78l4.53-11.01h2.97l-5.63,11.01h-1.86Z"/>
    <path class="cls-2" d="m131.66,159.24v2.25h-10.85v4.98c.67-.34,1.44-.51,2.33-.51,1.5,0,2.87.56,4.1,1.67,1.23,1.11,1.85,2.57,1.85,4.37,0,1.42-.51,2.91-1.53,4.48l-2.04-1.75c1.14-1.72,1.71-3.23,1.71-4.52,0-.95-.22-1.67-.65-2.14-.43-.48-1.07-.71-1.92-.71-1.21,0-2.5.52-3.86,1.57v10.63h-.73l-2.13-2.11v-6.78c-1.66,1.25-3.24,1.87-4.73,1.87s-2.68-.41-3.57-1.25c-.89-.83-1.33-1.89-1.33-3.17,0-1.13.41-2.02,1.23-2.67s1.77-.98,2.87-.98c2.09,0,3.93.85,5.53,2.54v-5.52h-11.69v-2.25h25.39Zm-13.71,8.84v-.3c-.93-.73-2.13-1.1-3.59-1.1s-2.67.26-3.5.77c-.83.51-1.25,1.1-1.25,1.75,0,.57.22,1.04.65,1.4.43.37,1.02.55,1.77.55,1.4,0,3.37-1.03,5.92-3.08Z"/>
    <path class="cls-2" d="m157.34,159.24v2.25h-5.53v18.06h-.86l-2-2.08v-6.19h-6.57c-.35,2.91-.8,4.37-1.33,4.37-.45,0-1.46-.87-3.03-2.62-1.57-1.75-2.36-2.91-2.36-3.49,0-.3.24-.44.71-.44h3.15c.34-.73.59-1.73.76-3-.5.12-1.13.17-1.91.17-1.25,0-2.52-.47-3.81-1.4-1.29-.93-1.94-1.91-1.94-2.94,0-.72.23-1.33.69-1.83.46-.5,1.07-.75,1.82-.75,2.08,0,3.86.8,5.34,2.41,1.49,1.61,2.23,3.52,2.23,5.73,0,.58-.03,1.11-.09,1.59h6.33v-7.6h-5.62l-1.86-2.25h15.87Zm-17.02,6.06c0-1.38-.29-2.46-.87-3.25s-1.35-1.19-2.31-1.19c-.57,0-1.05.19-1.43.57s-.57.83-.57,1.35c0,.77.33,1.42.99,1.94.66.52,1.53.78,2.59.78.51,0,1.04-.06,1.6-.19Z"/>
    <path class="cls-2" d="m169.25,159.24v2.25h-5.52v18.02h-.82l-2.04-2.03v-15.98h-4.06v-2.25h5.86c-1.23-2.38-2.54-4.17-3.95-5.36-1.41-1.2-2.91-1.79-4.5-1.79-1.32,0-2.32.32-2.99.95s-1,1.59-1,2.86c0,1.07.27,2.19.82,3.35h-2.18c-1-1.31-1.49-2.69-1.49-4.14s.57-2.75,1.7-3.71c1.14-.96,2.58-1.44,4.32-1.44,2.69,0,4.96,1.02,6.81,3.05,1.3,1.43,2.47,3.51,3.51,6.25h5.52Z"/>
    <path class="cls-2" d="m199.01,159.24v2.25h-5.53v18.02h-.38l-2.48-2.16v-8.84h-5.9c-.86,0-1.39.14-1.57.42-.19.28-.28.86-.28,1.74,0,.44.04.94.13,1.48.04.31.05.63.05.98,0,.48-.23.71-.69.71-.55,0-1.36-.72-2.45-2.16-1.09-1.44-1.63-2.58-1.63-3.43,0-.59.22-1.07.67-1.44.45-.37.97-.55,1.57-.55h10.1v-4.78h-13.96v-2.25h22.35Z"/>
    <path class="cls-2" d="m219.36,159.24v2.25h-5.17l.46,5.98h-10.12c-.72,0-1.25.09-1.61.25-.36.17-.54.42-.54.75,0,.4.2.88.6,1.42.4.55,1,1.16,1.8,1.83,1.42-.79,3.04-1.19,4.86-1.19,1.66,0,3.12.52,4.37,1.57,1.25,1.05,1.87,2.17,1.87,3.38,0,.88-.28,1.73-.85,2.56s-1.41,1.63-2.54,2.43l-2.09-1.79c1.39-.81,2.44-1.56,3.14-2.24.7-.68,1.05-1.29,1.05-1.83,0-.62-.29-1.13-.86-1.53-.57-.4-1.32-.6-2.24-.6-1.76,0-3.42.44-4.97,1.31-1.55.87-2.33,1.98-2.33,3.31,0,1.53,1.29,3.13,3.86,4.78,1.29.83,2.81,1.59,4.58,2.29s3.76,1.33,6,1.9l-.24.67-1.33-.38c-4.45-1.28-8.15-2.87-11.1-4.78-1.48-.95-2.59-1.9-3.32-2.83s-1.1-1.88-1.1-2.82c0-1.31.84-2.57,2.53-3.76-2.34-2.12-3.51-3.75-3.51-4.9,0-.75.3-1.28.9-1.59.6-.31,1.62-.46,3.07-.46h7.48v-3.73h-13.52v-2.25h20.88Z"/>
    <path class="cls-2" d="m231.26,159.24v2.25h-5.52v18.02h-.82l-2.04-2.03v-15.98h-4.06v-2.25h5.86c-1.23-2.38-2.54-4.17-3.95-5.36-1.41-1.2-2.91-1.79-4.5-1.79-1.32,0-2.32.32-2.99.95-.67.63-1,1.59-1,2.86,0,1.07.27,2.19.82,3.35h-2.18c-.99-1.31-1.49-2.69-1.49-4.14s.57-2.75,1.7-3.71c1.13-.96,2.58-1.44,4.32-1.44,2.69,0,4.96,1.02,6.81,3.05,1.3,1.43,2.47,3.51,3.51,6.25h5.52Z"/>
    <path class="cls-2" d="m222.89,153.72l2.42-2.11,2.42,2.11-2.42,2.11-2.42-2.11Z"/>
    <path class="cls-2" d="m230.93,184.78l4.53-11.01h2.97l-5.63,11.01h-1.86Z"/>
    <path class="cls-2" d="m254.58,179.02v-25.75h3.01l15.84,22.64h-.55v-22.64h2.75v25.75h-3.09l-15.76-22.68h.55v22.68h-2.75Z"/>
    <path class="cls-2" d="m289.4,179.28c-1.47,0-2.74-.26-3.81-.79s-1.9-1.32-2.48-2.36c-.58-1.05-.87-2.37-.87-3.97v-11.34h2.67v10.53c0,1.33.2,2.43.59,3.31.4.87.97,1.53,1.74,1.96s1.72.65,2.88.65c1.24,0,2.3-.26,3.18-.78.87-.52,1.55-1.3,2.01-2.36.46-1.06.7-2.41.7-4.06v-9.24h2.67v18.21h-2.67v-4.25h.64c-.54,1.5-1.45,2.63-2.73,3.38-1.29.75-2.79,1.13-4.51,1.13Z"/>
    <path class="cls-2" d="m305.24,179.02v-18.21h2.71v4.25l-.64.18c.37-1.01.89-1.86,1.57-2.55.68-.69,1.49-1.22,2.44-1.59s2-.55,3.16-.55c2.26,0,4.02.59,5.3,1.75,1.27,1.17,1.91,2.95,1.91,5.34v11.38h-2.67v-10.53c0-2.02-.43-3.51-1.29-4.47-.86-.96-2.15-1.44-3.88-1.44-1.19,0-2.22.25-3.11.76-.89.51-1.58,1.31-2.06,2.4s-.72,2.52-.72,4.27v9.01h-2.71Z"/>
    <path class="cls-2" d="m336.21,179.28c-1.47,0-2.78-.24-3.94-.72-1.16-.48-2.14-1.15-2.94-2.01s-1.42-1.86-1.84-2.99-.64-2.35-.64-3.66.21-2.49.64-3.62c.42-1.13,1.04-2.13,1.84-2.99.8-.86,1.79-1.53,2.94-2.01,1.16-.48,2.47-.72,3.94-.72,1.89,0,3.56.41,5,1.22,1.44.81,2.51,2.06,3.22,3.73l-2.41.81c-.45-1.16-1.17-2.07-2.16-2.73-.99-.67-2.2-1-3.64-1-1.53,0-2.78.35-3.77,1.03-.99.69-1.73,1.59-2.22,2.7-.49,1.11-.74,2.3-.74,3.58s.25,2.48.74,3.6c.49,1.12,1.24,2.03,2.22,2.71.99.69,2.25,1.03,3.77,1.03,1.44,0,2.65-.33,3.64-1,.99-.66,1.71-1.59,2.16-2.77l2.41.81c-.68,1.65-1.74,2.89-3.18,3.73-1.44.84-3.12,1.26-5.04,1.26Z"/>
    <path class="cls-2" d="m356.04,179.28c-1.55,0-2.9-.23-4.05-.7s-2.02-1.11-2.63-1.94c-.61-.82-.91-1.79-.91-2.9,0-.98.22-1.82.66-2.49.44-.68,1.01-1.21,1.72-1.61.76-.44,1.63-.75,2.61-.92.97-.17,2.03-.26,3.16-.26h6.91v1.77h-6.57c-.82,0-1.62.06-2.39.18s-1.43.37-1.97.74c-.45.27-.8.62-1.04,1.05-.24.43-.36.94-.36,1.53,0,1.11.46,1.99,1.38,2.64.92.65,2.17.98,3.75.98,1.27,0,2.43-.26,3.47-.79,1.04-.53,1.88-1.26,2.52-2.2.64-.94.95-1.98.95-3.14l1.14,1.11c-.14,1.38-.59,2.6-1.36,3.66-.76,1.06-1.75,1.87-2.97,2.44-1.21.57-2.56.85-4.02.85Zm7.37-.26l-.17-4.14v-7.2c0-1.67-.49-2.94-1.48-3.81-.99-.86-2.44-1.29-4.36-1.29-1.24,0-2.39.22-3.43.65-1.05.43-2.03,1.16-2.97,2.2l-1.95-1.44c1.13-1.18,2.39-2.05,3.79-2.6s2.97-.83,4.72-.83c2.65,0,4.7.61,6.14,1.83,1.44,1.22,2.16,2.99,2.16,5.3v11.34h-2.46Z"/>
    <path class="cls-2" d="m370.06,184.78l4.53-11.01h2.97l-5.63,11.01h-1.86Z"/>
    <path class="cls-2" d="m4.32,216.7v-25.75h2.75v25.75h-2.75Zm2.16-8.42v-3.1l15.59-14.22h3.73l-19.32,17.33Zm16.18,8.42l-10.38-14.33,2.08-1.66,11.56,15.99h-3.26Z"/>
    <path class="cls-2" d="m29.78,216.7v-25.75h2.71v11.78l-.68.18c.37-1.01.9-1.86,1.59-2.55.69-.69,1.51-1.22,2.46-1.59.95-.37,2-.55,3.16-.55,2.29,0,4.06.6,5.32,1.79,1.26,1.19,1.88,2.96,1.88,5.3v11.38h-2.67v-10.53c0-2.02-.43-3.51-1.29-4.47-.86-.96-2.15-1.44-3.88-1.44-1.81,0-3.24.59-4.3,1.77-1.06,1.18-1.59,3.07-1.59,5.65v9.01h-2.71Z"/>
    <path class="cls-2" d="m61.34,216.96c-1.92,0-3.64-.4-5.15-1.2s-2.69-1.91-3.54-3.32-1.27-3.04-1.27-4.86.42-3.44,1.25-4.84c.83-1.4,2-2.51,3.52-3.31,1.51-.8,3.24-1.2,5.19-1.2s3.67.4,5.15,1.2c1.48.8,2.65,1.9,3.52,3.31.86,1.4,1.29,3.02,1.29,4.84s-.43,3.44-1.29,4.86-2.04,2.52-3.54,3.32c-1.5.8-3.21,1.2-5.13,1.2Zm0-2.07c1.47,0,2.75-.31,3.83-.92,1.09-.61,1.93-1.47,2.52-2.57.59-1.1.89-2.37.89-3.82s-.3-2.76-.89-3.86c-.59-1.1-1.43-1.95-2.52-2.55s-2.37-.91-3.83-.91-2.75.31-3.85.92c-1.1.62-1.96,1.47-2.56,2.55s-.91,2.36-.91,3.84.3,2.73.91,3.82c.61,1.1,1.46,1.95,2.56,2.57,1.1.62,2.39.92,3.85.92Zm-6.27-18.51l6.27-5.76,6.27,5.76h-2.25l-4.02-3.69-4.02,3.69h-2.24Z"/>
    <path class="cls-2" d="m76.85,216.7v-18.21h2.71v4.25l-.64.18c.37-1.01.89-1.86,1.57-2.55.68-.69,1.49-1.22,2.44-1.59s2-.55,3.16-.55c2.26,0,4.02.59,5.3,1.75,1.27,1.17,1.91,2.95,1.91,5.34v11.38h-2.67v-10.53c0-2.02-.43-3.51-1.29-4.47-.86-.96-2.15-1.44-3.88-1.44-1.19,0-2.22.25-3.11.76-.89.51-1.58,1.31-2.06,2.4s-.72,2.52-.72,4.27v9.01h-2.71Z"/>
    <path class="cls-2" d="m107.51,224.53c-2.97,0-5.3-.48-7.01-1.44-1.71-.96-2.56-2.29-2.56-3.99v-.46c0-.18.03-.35.09-.5l4.83-3.36,1.02.59-3.26,3.29c-.03.1-.04.19-.04.28v.24c0,1.18.65,2.07,1.95,2.66s2.97.89,5,.89c1.72,0,3.14-.24,4.26-.72,1.12-.48,1.67-1.23,1.67-2.23,0-.59-.19-1.07-.57-1.42-.38-.36-.91-.64-1.59-.85-.68-.21-1.47-.38-2.37-.52-.91-.14-1.88-.28-2.92-.42-1.24-.17-2.44-.41-3.58-.72-1.14-.31-2.08-.75-2.8-1.33s-1.08-1.36-1.08-2.35c0-.84.31-1.58.93-2.24.62-.65,1.48-1.21,2.58-1.68l1.69,1.03c-.96.25-1.65.59-2.05,1.02-.41.43-.61.94-.61,1.53s.22,1.02.66,1.37c.44.35,1.04.61,1.82.79.78.18,1.69.34,2.73.46,1.3.17,2.53.36,3.71.55,1.17.2,2.22.47,3.13.81.92.35,1.64.81,2.16,1.39.52.58.78,1.35.78,2.31,0,1.63-.77,2.87-2.31,3.73-1.54.86-3.62,1.29-6.25,1.29Zm-.59-13.85c-1.52,0-2.89-.26-4.09-.78-1.2-.52-2.13-1.24-2.8-2.18-.66-.94-1-2.01-1-3.21s.35-2.32,1.04-3.27,1.63-1.69,2.82-2.22,2.5-.79,3.94-.79,2.75.26,3.92.79,2.1,1.27,2.8,2.24c.69.96,1.04,2.08,1.04,3.36,0,1.21-.33,2.27-1,3.18-.66.91-1.57,1.62-2.71,2.12-1.14.51-2.46.76-3.96.76Zm-.04-1.92c1.55,0,2.78-.41,3.69-1.22.9-.81,1.36-1.83,1.36-3.07,0-1.31-.46-2.36-1.4-3.16-.93-.8-2.15-1.2-3.64-1.2s-2.77.41-3.73,1.22-1.44,1.85-1.44,3.1.46,2.26,1.4,3.08c.93.83,2.19,1.24,3.77,1.24Zm6.4-7.13l-1.95-1.15,4.19-3.1,1.36,1.48-3.6,2.77Z"/>
    <path class="cls-2" d="m141.83,216.96c-1.36,0-2.59-.24-3.71-.72-1.12-.48-2.05-1.15-2.82-2.01s-1.33-1.86-1.69-2.99l.85-.26v5.73h-2.67v-25.75h2.67v13.22l-.72-.37c.31-1.06.85-2.01,1.61-2.84.76-.84,1.69-1.5,2.8-1.99,1.1-.49,2.33-.74,3.69-.74,1.78,0,3.38.39,4.81,1.16,1.43.78,2.56,1.87,3.41,3.27.85,1.4,1.27,3.04,1.27,4.91,0,1.77-.4,3.37-1.21,4.78-.8,1.42-1.92,2.54-3.35,3.36-1.43.83-3.07,1.24-4.94,1.24Zm-.42-2.14c1.41,0,2.66-.31,3.75-.94,1.09-.63,1.94-1.48,2.56-2.57.62-1.08.93-2.33.93-3.73s-.31-2.65-.93-3.73c-.62-1.08-1.48-1.93-2.56-2.55s-2.34-.92-3.75-.92-2.66.31-3.73.92-1.91,1.47-2.52,2.55c-.61,1.08-.91,2.33-.91,3.73s.3,2.65.91,3.73c.61,1.08,1.45,1.94,2.52,2.57,1.07.63,2.32.94,3.73.94Z"/>
    <path class="cls-2" d="m163.26,216.96c-1.55,0-2.9-.23-4.05-.7s-2.02-1.11-2.63-1.94c-.61-.82-.91-1.79-.91-2.9,0-.98.22-1.82.66-2.49s1.01-1.21,1.72-1.61c.76-.44,1.63-.75,2.61-.92.97-.17,2.03-.26,3.16-.26h6.91v1.77h-6.57c-.82,0-1.62.06-2.39.18-.78.12-1.43.37-1.97.74-.45.27-.8.62-1.04,1.05-.24.43-.36.94-.36,1.53,0,1.11.46,1.99,1.38,2.64.92.65,2.17.98,3.75.98,1.27,0,2.43-.26,3.47-.79,1.04-.53,1.89-1.26,2.52-2.2.64-.94.95-1.98.95-3.14l1.14,1.11c-.14,1.38-.59,2.6-1.36,3.66-.76,1.06-1.75,1.87-2.97,2.44-1.21.57-2.56.85-4.02.85Zm7.37-.26l-.17-4.14v-7.2c0-1.67-.49-2.94-1.48-3.81-.99-.86-2.44-1.29-4.36-1.29-1.24,0-2.39.22-3.43.65-1.04.43-2.03,1.16-2.97,2.2l-1.95-1.44c1.13-1.18,2.39-2.05,3.79-2.6s2.97-.83,4.72-.83c2.65,0,4.7.61,6.14,1.83,1.44,1.22,2.16,2.99,2.16,5.3v11.34h-2.46Z"/>
    <path class="cls-2" d="m188.21,216.96c-1.92,0-3.64-.4-5.15-1.2s-2.69-1.91-3.54-3.32-1.27-3.04-1.27-4.86.42-3.44,1.25-4.84c.83-1.4,2.01-2.51,3.52-3.31,1.51-.8,3.24-1.2,5.19-1.2s3.66.4,5.15,1.2c1.48.8,2.65,1.9,3.52,3.31.86,1.4,1.29,3.02,1.29,4.84s-.43,3.44-1.29,4.86-2.04,2.52-3.54,3.32-3.21,1.2-5.13,1.2Zm0-2.07c1.47,0,2.75-.31,3.83-.92,1.09-.61,1.93-1.47,2.52-2.57.59-1.1.89-2.37.89-3.82s-.3-2.76-.89-3.86c-.59-1.1-1.43-1.95-2.52-2.55-1.09-.6-2.37-.91-3.83-.91s-2.75.31-3.85.92c-1.1.62-1.96,1.47-2.56,2.55s-.91,2.36-.91,3.84.3,2.73.91,3.82c.61,1.1,1.46,1.95,2.56,2.57,1.1.62,2.39.92,3.85.92Z"/>
    <path class="cls-2" d="m222.95,224.53c-2.97,0-5.3-.48-7.01-1.44-1.71-.96-2.56-2.29-2.56-3.99v-.46c0-.18.03-.35.08-.5l4.83-3.36,1.02.59-3.26,3.29c-.03.1-.04.19-.04.28v.24c0,1.18.65,2.07,1.95,2.66,1.3.59,2.97.89,5,.89,1.72,0,3.14-.24,4.26-.72,1.12-.48,1.67-1.23,1.67-2.23,0-.59-.19-1.07-.57-1.42-.38-.36-.91-.64-1.59-.85s-1.47-.38-2.37-.52c-.9-.14-1.88-.28-2.92-.42-1.24-.17-2.44-.41-3.58-.72-1.14-.31-2.08-.75-2.8-1.33-.72-.58-1.08-1.36-1.08-2.35,0-.84.31-1.58.93-2.24.62-.65,1.48-1.21,2.58-1.68l1.69,1.03c-.96.25-1.64.59-2.05,1.02-.41.43-.61.94-.61,1.53s.22,1.02.66,1.37c.44.35,1.04.61,1.82.79.78.18,1.69.34,2.73.46,1.3.17,2.54.36,3.71.55,1.17.2,2.22.47,3.13.81.92.35,1.64.81,2.16,1.39.52.58.78,1.35.78,2.31,0,1.63-.77,2.87-2.31,3.73-1.54.86-3.62,1.29-6.25,1.29Zm-.59-13.85c-1.52,0-2.89-.26-4.09-.78-1.2-.52-2.13-1.24-2.8-2.18s-1-2.01-1-3.21.35-2.32,1.04-3.27c.69-.95,1.63-1.69,2.82-2.22,1.19-.53,2.5-.79,3.94-.79s2.75.26,3.92.79c1.17.53,2.1,1.27,2.8,2.24.69.96,1.04,2.08,1.04,3.36,0,1.21-.33,2.27-1,3.18-.66.91-1.57,1.62-2.71,2.12-1.14.51-2.46.76-3.96.76Zm-.04-1.92c1.55,0,2.78-.41,3.69-1.22.9-.81,1.36-1.83,1.36-3.07,0-1.31-.47-2.36-1.4-3.16-.93-.8-2.15-1.2-3.64-1.2s-2.77.41-3.73,1.22c-.96.81-1.44,1.85-1.44,3.1s.47,2.26,1.4,3.08c.93.83,2.19,1.24,3.77,1.24Zm6.4-7.13l-1.95-1.15,4.19-3.1,1.36,1.48-3.6,2.77Z"/>
    <path class="cls-2" d="m235.95,194.94v-3.99h3.18v3.99h-3.18Zm.25,21.76v-18.21h2.67v18.21h-2.67Z"/>
    <path class="cls-2" d="m254.42,216.96c-1.92,0-3.64-.4-5.15-1.2s-2.69-1.91-3.54-3.32-1.27-3.04-1.27-4.86.42-3.44,1.25-4.84c.83-1.4,2.01-2.51,3.52-3.31,1.51-.8,3.24-1.2,5.19-1.2s3.66.4,5.15,1.2c1.48.8,2.65,1.9,3.52,3.31.86,1.4,1.29,3.02,1.29,4.84s-.43,3.44-1.29,4.86-2.04,2.52-3.54,3.32-3.21,1.2-5.13,1.2Zm0-2.07c1.47,0,2.75-.31,3.83-.92,1.09-.61,1.93-1.47,2.52-2.57.59-1.1.89-2.37.89-3.82s-.3-2.76-.89-3.86c-.59-1.1-1.43-1.95-2.52-2.55-1.09-.6-2.37-.91-3.83-.91s-2.75.31-3.85.92c-1.1.62-1.96,1.47-2.56,2.55s-.91,2.36-.91,3.84.3,2.73.91,3.82c.61,1.1,1.46,1.95,2.56,2.57,1.1.62,2.39.92,3.85.92Zm-1.06-18.77l-5.17-5.17h2.84l4.41,5.17h-2.08Zm7.84,6.87v-1.59c1.36,0,2.34-.35,2.94-1.05s.91-1.73.91-3.08v-1.66h1.91v1.81c0,1.13-.21,2.11-.61,2.94-.41.83-1.03,1.47-1.86,1.94-.83.47-1.93.7-3.28.7Z"/>
    <path class="cls-2" d="m267.72,222.46l4.53-11.01h2.97l-5.63,11.01h-1.86Z"/>
    <path class="cls-2" d="m291.36,216.7v-25.75h2.75v25.75h-2.75Zm2.16-8.42v-3.1l15.59-14.22h3.73l-19.32,17.33Zm16.18,8.42l-10.38-14.33,2.08-1.66,11.56,15.99h-3.26Z"/>
    <path class="cls-2" d="m323.47,216.96c-1.55,0-2.9-.23-4.05-.7s-2.02-1.11-2.63-1.94c-.61-.82-.91-1.79-.91-2.9,0-.98.22-1.82.66-2.49.44-.68,1.01-1.21,1.72-1.61.76-.44,1.63-.75,2.61-.92.97-.17,2.03-.26,3.16-.26h6.91v1.77h-6.57c-.82,0-1.62.06-2.39.18s-1.43.37-1.97.74c-.45.27-.8.62-1.04,1.05s-.36.94-.36,1.53c0,1.11.46,1.99,1.38,2.64.92.65,2.17.98,3.75.98,1.27,0,2.43-.26,3.47-.79,1.04-.53,1.88-1.26,2.52-2.2.64-.94.95-1.98.95-3.14l1.14,1.11c-.14,1.38-.59,2.6-1.36,3.66-.76,1.06-1.75,1.87-2.97,2.44-1.21.57-2.56.85-4.02.85Zm7.37-.26l-.17-4.14v-7.2c0-1.67-.49-2.94-1.48-3.81-.99-.86-2.44-1.29-4.36-1.29-1.24,0-2.39.22-3.43.65-1.05.43-2.03,1.16-2.97,2.2l-1.95-1.44c1.13-1.18,2.39-2.05,3.79-2.6s2.97-.83,4.72-.83c2.65,0,4.7.61,6.14,1.83,1.44,1.22,2.16,2.99,2.16,5.3v11.34h-2.46Z"/>
    <path class="cls-2" d="m339.61,216.7v-18.21h2.71v4.69h-.55c.25-.86.59-1.6,1.02-2.22.42-.62.93-1.13,1.53-1.53s1.23-.71,1.93-.9c.69-.2,1.42-.3,2.18-.3,1.24,0,2.34.2,3.28.61s1.72,1.03,2.31,1.87c.59.84,1,1.91,1.23,3.21l-1.48.07c.4-1.26.91-2.31,1.55-3.16.64-.85,1.43-1.5,2.39-1.94.96-.44,2.09-.67,3.39-.67,1.69,0,3.05.34,4.07,1.02,1.02.68,1.75,1.58,2.2,2.71.45,1.13.68,2.43.68,3.88v10.86h-2.67v-10.34c0-1.26-.16-2.34-.46-3.25-.31-.91-.82-1.61-1.53-2.11-.71-.49-1.67-.74-2.88-.74-1.04,0-1.97.24-2.78.72-.8.48-1.43,1.21-1.86,2.2-.44.99-.66,2.22-.66,3.69v9.83h-2.71v-10.68c0-1.95-.4-3.39-1.21-4.34-.8-.95-2-1.42-3.58-1.42-1.05,0-1.98.25-2.8.74-.82.49-1.45,1.24-1.91,2.25-.45,1.01-.68,2.29-.68,3.84v9.6h-2.71Z"/>
    <path class="cls-2" d="m377.94,216.7l-6.06-18.21h2.84l4.66,14.74,5.63-14.74h2.46l5.68,14.66,4.66-14.66h2.84l-6.1,18.21h-2.54l-5.72-15-5.76,15h-2.58Z"/>
    <path class="cls-2" d="m413.53,216.96c-1.55,0-2.93-.23-4.13-.7s-2.2-1.12-2.99-1.96c-.79-.84-1.39-1.82-1.8-2.96-.41-1.13-.61-2.34-.61-3.62s.2-2.53.59-3.68c.39-1.15.98-2.15,1.76-3.03.78-.87,1.74-1.56,2.88-2.05,1.14-.49,2.46-.74,3.96-.74,1.58,0,2.95.24,4.09.72,1.14.48,2.08,1.13,2.79,1.96.72.83,1.26,1.73,1.61,2.71.35.99.53,1.98.53,2.99,0,.2,0,.46-.02.78-.01.32-.05.59-.11.81h-15.46c.06,2.09.7,3.72,1.93,4.88,1.23,1.16,2.89,1.74,4.98,1.74,1.33,0,2.46-.18,3.41-.54s1.86-.95,2.73-1.79l1.91,1.48c-.79.71-1.6,1.29-2.41,1.72-.82.43-1.69.75-2.6.96-.92.21-1.93.31-3.03.31Zm6.01-9.94c.06-.2.09-.4.09-.61v-.61c0-.64-.12-1.29-.36-1.96-.24-.67-.61-1.27-1.12-1.81-.51-.54-1.17-.98-1.99-1.33s-1.79-.52-2.92-.52c-1.3,0-2.44.28-3.41.85-.97.57-1.73,1.32-2.27,2.25-.54.94-.85,1.99-.93,3.18h13.81l-.89.55Z"/>
    <path class="cls-2" d="m456.83,109.42l4.53-11.01h2.97l-5.63,11.01h-1.86Z"/>
    <path class="cls-2" d="m383.92,145.86l4.53-11.01h2.97l-5.63,11.01h-1.86Z"/>
  </g>
</svg>