<?xml version="1.0" encoding="UTF-8"?>
<svg id="Layer_1" data-name="Layer 1" xmlns="http://www.w3.org/2000/svg" viewBox="0 0 9019.34 3067.49">
  <defs>
    <style>
      .cls-1 {
        stroke-width: 12px;
      }

      .cls-1, .cls-2, .cls-3 {
        fill: none;
        stroke: #eeb249;
        stroke-miterlimit: 10;
      }

      .cls-2 {
        stroke-width: 5px;
      }

      .cls-3 {
        stroke-width: 19px;
      }
    </style>
  </defs>
  <path class="cls-3" d="m-114,276.46c220.03-73.13,478.08,114.46,1052.8,391.47,898.47,433.05,1060.13,330.48,1199.49,93.21,731.92-1246.09,1544.86,851.11,1807.64-402.94,197.11-940.66,2613.78,2861.31,5015.56,1971.31"/>
  <path class="cls-1" d="m-78.09,541.86c220.03-73.13,478.08,114.46,1052.8,391.47,898.47,433.05,1060.13,330.48,1199.49,93.21,731.92-1246.09,1544.86,851.11,1807.64-402.94,197.11-940.66,2485.1,2636.4,4979.65,1973.9"/>
  <path class="cls-2" d="m-42.19,807.27c220.03-73.13,478.08,114.46,1052.8,391.47,898.47,433.05,1060.13,330.48,1199.49,93.21,731.92-1246.09,1544.86,851.11,1807.64-402.94,197.11-940.66,2356.43,2411.5,4943.75,1976.5"/>
</svg>