<?xml version="1.0" encoding="UTF-8"?>
<svg id="Layer_1" data-name="Layer 1" xmlns="http://www.w3.org/2000/svg" viewBox="0 0 4698 2329.5">
  <defs>
    <style>
      .cls-1 {
        stroke-width: 12px;
      }

      .cls-1, .cls-2, .cls-3 {
        fill: none;
        stroke: #e5b45c;
        stroke-miterlimit: 10;
      }

      .cls-2 {
        stroke-width: 5px;
      }

      .cls-3 {
        stroke-width: 19px;
      }
    </style>
  </defs>
  <path class="cls-3" d="m59,229.48c162.36-57.13,352.77,89.41,776.85,305.79,662.97,338.27,782.25,258.15,885.09,72.81,540.07-973.37,1139.93,664.83,1333.84-314.75,145.45-734.79,446.49,416.68,1514.24,1534.54"/>
  <path class="cls-1" d="m85.49,436.8c162.36-57.13,352.77,89.41,776.85,305.79,662.97,338.27,782.25,258.15,885.09,72.81,540.07-973.37,1139.93,664.83,1333.84-314.75,145.45-734.79,446.49,416.68,1514.24,1534.54"/>
  <path class="cls-2" d="m111.99,644.11c162.36-57.13,352.77,89.41,776.85,305.79,662.97,338.27,782.25,258.15,885.09,72.81,540.07-973.37,1139.93,664.83,1333.84-314.75,145.45-734.79,446.49,416.68,1514.24,1534.54"/>
</svg>