<?xml version="1.0" encoding="UTF-8"?>
<svg id="Layer_1" data-name="Layer 1" xmlns="http://www.w3.org/2000/svg" viewBox="0 0 2622.12 949.79">
  <defs>
    <style>
      .cls-1 {
        fill: none;
        stroke: #e6b45d;
        stroke-miterlimit: 10;
        stroke-width: 16px;
      }
    </style>
  </defs>
  <path class="cls-1" d="m-112.21,137.1c449.15,2.9,790.17,451.73,907.35,460.62,130.18,9.87,190.05-109.74,347.85-91.23,189.56,22.23,243.43,211.29,408.24,219.92,132.04,6.91,283.77-77.02,373.55-145.07,109.15-82.74,387.75,88.53,855.23,652.7"/>
  <path class="cls-1" d="m-89.16,68.77c449.15,2.9,790.17,451.73,907.35,460.62,130.18,9.87,190.05-109.74,347.85-91.23,189.56,22.23,243.43,211.29,408.24,219.92,132.04,6.91,234.35-78.7,355.63-151.85,104.91-63.28,375.03,106.08,873.15,659.48"/>
  <path class="cls-1" d="m-66.11.45c449.15,2.9,790.17,451.73,907.35,460.62,130.18,9.87,190.05-109.74,347.85-91.23,189.56,22.23,243.43,211.29,408.24,219.92,132.04,6.91,182.57-84.35,337.7-158.63,98.59-47.21,362.32,123.64,891.08,666.26"/>
</svg>