<?xml version="1.0" encoding="UTF-8"?>
<svg id="Layer_1" data-name="Layer 1" xmlns="http://www.w3.org/2000/svg" viewBox="0 0 8215.44 3387.35">
  <defs>
    <style>
      .cls-1 {
        stroke-width: 17px;
      }

      .cls-1, .cls-2, .cls-3 {
        fill: none;
        stroke: #e6b45d;
        stroke-miterlimit: 10;
      }

      .cls-2 {
        stroke-width: 5px;
      }

      .cls-3 {
        stroke-width: 11px;
      }
    </style>
  </defs>
  <path class="cls-1" d="m-629.69,188.86C-173.29,3.55,2382.21,1777.02,2858.7,1039.5c866.74-1341.58,2514.17,1190.94,2743.18-199.03,194.56-1180.91,1146.4,1147.38,3243.26,2511.35"/>
  <path class="cls-3" d="m-592.68,285.49C-212.83,129.24,2588.3,1983.19,2932.99,1342.78c796.95-1480.68,2485.15,1134.94,2743.18-199.03,228.35-1174.06,767.81,832.2,2967.3,2268.4"/>
  <path class="cls-2" d="m-555.66,382.11c303.29-127.15,3334.88,1801.85,3562.95,1263.95,692.04-1632.12,2346.07,853.75,2743.18-199.03,424.9-1126.45,389.25,517.05,2691.34,2025.42"/>
</svg>