<?xml version="1.0" encoding="UTF-8"?>
<svg id="Layer_1" data-name="Layer 1" xmlns="http://www.w3.org/2000/svg" viewBox="0 0 8418.73 2855.43">
  <defs>
    <style>
      .cls-1 {
        stroke-width: 17px;
      }

      .cls-1, .cls-2, .cls-3 {
        fill: none;
        stroke: #e6b45d;
        stroke-miterlimit: 10;
      }

      .cls-2 {
        stroke-width: 5px;
      }

      .cls-3 {
        stroke-width: 11px;
      }
    </style>
  </defs>
  <path class="cls-1" d="m8414.39,2778.28C6540.67,1665.96,5659.01-128.5,5508.95,754.77c-176.62,1039.64-1675.32-936.52-2415.14,41.31C2687.1,1333.63,401.53-105.86,2.48,15.84"/>
  <path class="cls-3" d="m8237.67,2815.79C6272.15,1644.91,5759.95,109.77,5579.98,986.54c-203.22,996.24-1739.4-1044.23-2415.14,41.31C2872.58,1497.36,368.96-12.59,36.87,90.22"/>
  <path class="cls-2" d="m8060.95,2853.29c-2057.3-1229.41-2055.79-2468.02-2409.93-1634.98-330.98,778.56-1834.66-1162.66-2415.14,41.31C3044.57,1656.41,336.38,80.69,71.27,164.59"/>
</svg>